<svg width="224" height="384" viewBox="0 0 224 384" fill="none" xmlns="http://www.w3.org/2000/svg">
<path d="M0 28.6866C0 18.6453 0 13.6247 1.95316 9.78947C3.67121 6.41589 6.41263 3.67308 9.78449 1.95416C13.6178 0 18.6359 0 28.672 0H195.328C205.364 0 210.382 0 214.216 1.95416C217.587 3.67308 220.329 6.41589 222.047 9.78947C224 13.6247 224 18.6453 224 28.6866V354.997C224 365.038 224 370.058 222.047 373.894C220.329 377.267 217.587 380.01 214.216 381.729C210.382 383.683 205.364 383.683 195.328 383.683H28.672C18.6359 383.683 13.6178 383.683 9.78449 381.729C6.41263 380.01 3.67121 377.267 1.95316 373.894C0 370.058 0 365.038 0 354.997V28.6866Z" fill="url(#paint0_linear_163_4836)"/>
<path fill-rule="evenodd" clip-rule="evenodd" d="M29.6296 307.553C29.2054 307.743 28.7862 307.934 28.3696 308.123L28.3693 308.123C27.0237 308.734 25.7053 309.332 24.3348 309.878C15.7799 313.257 7.68717 312.623 0 308.765V306.83C2.43419 308.19 4.97782 309.354 7.78006 309.788C10.0027 310.074 12.2826 310.132 14.5284 310.189H14.5289C15.1011 310.204 15.6711 310.218 16.2374 310.237C17.407 310.326 17.7669 309.519 17.7669 308.533V304.499V25.6791C17.7669 25.2953 17.7612 24.9172 17.7555 24.5419V24.5418V24.5418V24.5418V24.5418V24.5417V24.5417V24.5417C17.7387 23.4267 17.7222 22.3367 17.8569 21.1965C18.0368 19.4034 19.2964 18.2379 21.0958 17.969C21.8156 17.9092 22.5354 17.9291 23.2552 17.9491C23.6151 17.959 23.9749 17.969 24.3348 17.969H199.779C200.079 17.969 200.379 17.959 200.679 17.9491C201.279 17.9291 201.879 17.9092 202.478 17.969C204.728 18.2379 205.897 19.4034 206.077 21.7344C206.137 22.6309 206.117 23.5274 206.097 24.424C206.087 24.8722 206.077 25.3205 206.077 25.7688V303.244V305.037C206.077 310.595 206.617 311.133 212.195 310.057C215.884 309.34 219.303 307.816 222.452 305.844C222.957 305.532 223.475 305.253 224 304.994V307.305C223.931 307.411 223.865 307.522 223.802 307.637L223.982 307.547C223.352 307.906 222.632 308.264 222.002 308.533L222.182 308.354C221.912 308.444 221.62 308.511 221.327 308.578C221.035 308.645 220.743 308.713 220.473 308.802C210.396 313.464 200.589 313.016 191.232 307.009C190.849 306.78 190.45 306.568 190.055 306.357L190.055 306.357C189.522 306.073 188.998 305.794 188.533 305.485C182.505 301.451 175.757 301.451 169.099 302.437C165.469 302.966 161.751 304.364 159.147 307.399C158.531 307.747 157.834 308.093 157.223 308.354L157.403 308.264C157.253 308.294 157.103 308.314 156.953 308.334C156.653 308.374 156.353 308.414 156.053 308.533C145.706 313.643 135.63 313.016 126.093 306.651C120.244 302.796 113.856 301.361 107.019 302.078C102.263 302.615 97.7757 303.954 94.271 307.518C93.6468 307.77 93.0225 308.04 92.3983 308.309C91.7235 308.601 91.0487 308.892 90.3739 309.161C84.9756 311.492 79.3974 312.568 73.4593 311.492C69.1406 310.685 65.1819 309.251 61.583 306.74C55.8249 302.796 49.3469 301.361 42.5091 302.078C38.4309 302.52 34.4401 303.136 31.4835 306.499C30.8656 306.848 30.1667 307.195 29.5532 307.457C29.4786 307.606 29.5894 307.57 29.6296 307.553ZM31.4835 306.499L31.5325 306.471L31.3526 306.651C31.3762 306.623 31.3999 306.595 31.4236 306.568C31.4435 306.545 31.4635 306.522 31.4835 306.499ZM94.271 307.518C94.3215 307.498 94.3721 307.478 94.4226 307.457L94.2427 307.547L94.271 307.518ZM159.147 307.399L159.202 307.368L159.022 307.547L159.058 307.504L159.088 307.469L159.119 307.432L159.147 307.399ZM224 307.787L223.711 307.906L223.891 307.816C223.282 308.076 222.589 308.42 221.975 308.766C222.013 308.718 222.052 308.67 222.091 308.623L221.912 308.802L221.975 308.766C221.904 308.856 221.835 308.947 221.765 309.038C221.445 309.458 221.124 309.878 220.652 310.147C211.925 314.809 203.197 315.347 194.29 310.595C193.331 310.087 192.391 309.539 191.451 308.992C189.572 307.896 187.692 306.8 185.653 306.023C177.556 303.064 169.368 302.975 161.451 306.92C160.85 307.219 160.123 307.456 159.429 307.682C159.291 307.727 159.155 307.772 159.021 307.816L159.201 307.637C158.572 307.906 157.852 308.264 157.222 308.623L157.402 308.533C157.288 308.666 157.174 308.806 157.059 308.948L157.058 308.949C156.626 309.482 156.17 310.043 155.603 310.326C147.415 314.63 139.138 315.078 130.77 311.133C129.241 310.416 127.801 309.609 126.452 308.713C116.735 302.616 106.658 302.168 96.3113 307.009C95.9528 307.162 95.5652 307.286 95.165 307.414L95.164 307.415C94.908 307.497 94.6467 307.58 94.3847 307.674L94.4023 307.656L94.4219 307.637L94.2419 307.726C94.2895 307.709 94.3371 307.691 94.3847 307.674C94.2164 307.846 94.065 308.026 93.9163 308.202C93.6063 308.57 93.3082 308.924 92.8924 309.161C82.5456 315.526 72.1989 315.257 61.8522 308.892C59.243 307.278 56.3639 305.844 53.3949 305.037C46.557 303.154 39.6292 303.333 32.9713 306.471C32.6512 306.631 32.2995 306.696 31.9536 306.76H31.9534C31.7161 306.803 31.4815 306.847 31.2619 306.92L31.4418 306.74C30.812 307.009 30.0922 307.368 29.4624 307.726L29.6424 307.637C29.5409 307.772 29.4649 307.932 29.3904 308.089C29.2667 308.349 29.1472 308.601 28.9226 308.713C19.4467 314.893 9.80583 315.649 0 310.351V312.204C2.84675 313.705 5.87561 314.772 9.30881 314.899C15.7868 315.168 22.0848 314.988 27.8429 311.313C28.0043 311.205 28.1978 311.194 28.385 311.184C28.4444 311.18 28.5031 311.177 28.56 311.17C26.7554 313.59 23.9268 314.643 21.1851 315.436C13.9347 317.587 6.76706 317.262 0 313.749V315.497C7.76569 319.341 15.8171 319.349 24.1542 316.154C24.784 315.93 25.3913 315.683 25.9986 315.436C26.5618 315.208 27.1251 314.979 27.7063 314.768C27.5836 314.901 27.4703 315.063 27.3551 315.228C27.1541 315.515 26.9472 315.811 26.6738 315.974C18.0516 320.986 9.07089 321.799 0 317.164V318.982C4.66956 321.188 9.67792 322.111 15.0674 321.623C18.1883 321.285 21.1046 320.284 24.0477 319.274L24.052 319.272L24.0524 319.272L24.0529 319.272C24.9266 318.972 25.8028 318.672 26.6874 318.387L26.6738 318.395L26.6929 318.386L26.8122 318.347C26.6456 318.518 26.4955 318.696 26.3482 318.871C26.0382 319.239 25.74 319.593 25.3242 319.829C16.9706 324.346 8.52918 324.576 0 320.693V322.401C6.36819 325.315 13.0748 325.3 19.9259 323.774C21.2456 323.528 22.5653 323.206 23.885 322.878L23.8847 322.878C23.9629 322.878 24.0411 322.861 24.1046 322.842C23.981 322.972 23.8603 323.107 23.7402 323.241L23.74 323.241C23.3043 323.729 22.8769 324.207 22.3549 324.402C14.8285 327.351 7.3022 327.37 0 324.086V325.908C5.42695 328.268 11.1302 328.914 17.0465 327.719C18.7335 327.383 20.4204 326.871 22.1073 326.36C23.0887 326.063 24.0702 325.765 25.0516 325.502C25.0461 325.516 25.0406 325.53 25.0352 325.543C25.0299 325.557 25.0247 325.571 25.0195 325.585C24.9886 325.626 24.964 325.68 24.964 325.746C24.9815 325.691 25 325.637 25.0195 325.585C25.0724 325.513 25.144 325.478 25.144 325.478L25.0516 325.502C25.5531 324.27 26.6583 323.943 27.8431 323.774L27.6632 323.864C27.7415 323.83 27.8213 323.796 27.9021 323.759C27.3668 325.024 26.417 325.548 25.1328 325.651C25.1649 325.622 25.1985 325.594 25.2338 325.567L25.0538 325.657L25.0945 325.654L25.1328 325.651C25.0173 325.757 24.9198 325.879 24.8245 325.998L24.8243 325.999C24.6754 326.185 24.5319 326.365 24.3341 326.464C16.2763 330.867 8.21849 331.196 0 327.451V329.164C4.33649 331.05 8.90896 331.69 13.7174 331.036C14.0773 330.991 14.4597 330.991 14.8421 330.991C15.2244 330.991 15.6068 330.991 15.9667 330.947C17.2263 330.857 18.036 331.215 17.9461 332.65V335.34C17.9461 338.115 17.9361 340.9 17.9261 343.689L17.9261 343.69C17.9061 349.279 17.8861 354.88 17.9461 360.442C17.9461 364.297 19.2057 365.552 22.9845 365.732H24.7839H199.239C199.51 365.732 199.781 365.737 200.051 365.743C200.855 365.76 201.647 365.776 202.388 365.642C204.997 365.283 205.897 364.118 206.077 361.428C206.137 360.648 206.116 359.828 206.096 359.021V359.021C206.086 358.623 206.077 358.228 206.077 357.842C206.077 355.216 206.067 352.579 206.057 349.94C206.037 344.65 206.017 339.347 206.077 334.084C206.077 331.484 206.346 331.036 208.776 331.036C213.274 331.036 217.143 328.974 220.922 326.912C221.959 326.359 222.981 325.805 224 325.251V323.134C223.369 323.412 222.734 323.687 222.092 323.954L222.271 323.864C221.642 324.133 220.922 324.492 220.292 324.85L220.472 324.671C220.386 324.747 220.299 324.826 220.213 324.906C220.149 324.964 220.086 325.023 220.022 325.083C219.966 325.136 219.91 325.189 219.853 325.242C219.24 325.82 218.602 326.421 217.863 326.823C209.136 331.395 200.408 331.215 191.861 326.464C190.992 325.986 190.143 325.469 189.295 324.951L189.294 324.951L189.294 324.951L189.293 324.951L189.293 324.95L189.293 324.95L189.292 324.95L189.292 324.95C187.592 323.914 185.893 322.878 184.034 322.161C175.936 319.023 167.749 319.202 159.831 322.967C159.181 323.255 158.473 323.485 157.801 323.704L157.798 323.705L157.785 323.709C157.686 323.741 157.588 323.773 157.491 323.805C157.431 323.825 157.371 323.844 157.312 323.864L157.492 323.774C157.31 323.852 157.121 323.937 156.929 324.027C156.966 324.007 157.001 323.988 157.037 323.968C157.075 323.947 157.112 323.926 157.149 323.905L157.222 323.864L157.042 323.953C160.461 320.457 164.78 319.112 169.368 318.574C176.206 317.767 182.594 319.112 188.442 323.057C193.841 326.733 199.869 328.526 206.527 328.257C210.125 328.167 213.544 327.271 216.873 325.926C217.413 325.702 217.975 325.5 218.538 325.298C219.1 325.097 219.662 324.895 220.202 324.671L220.022 324.85C220.652 324.581 221.372 324.222 222.002 323.864L221.822 323.953C222.432 323.059 223.172 322.393 224 321.876V319.926C223.676 320.037 223.354 320.148 223.034 320.259C223.309 319.841 223.637 319.504 224 319.221V316.932L223.711 317.05L223.891 316.871C223.262 317.14 222.542 317.499 221.912 317.857L222.092 317.767C219.303 320.905 215.524 322.34 211.655 323.147C204.008 324.76 196.81 323.416 190.422 319.023C185.294 315.526 179.715 313.912 173.687 313.733C171.447 313.663 169.153 314.136 166.888 314.603L166.888 314.603L166.885 314.604C166.24 314.737 165.598 314.869 164.96 314.988C164.113 315.147 163.296 315.398 162.474 315.651L162.473 315.652C161.9 315.829 161.323 316.006 160.731 316.154L160.911 315.974C160.282 316.243 159.562 316.602 158.932 316.961L159.112 316.781C158.122 317.498 157.222 318.126 156.233 318.754L156.413 318.574C155.783 318.843 155.063 319.202 154.433 319.561L154.613 319.381C154.345 319.589 154.097 319.816 153.852 320.041C153.357 320.494 152.876 320.934 152.274 321.174C143.727 324.581 135.269 324.402 127.172 319.65C126.452 319.247 125.755 318.821 125.058 318.395C124.36 317.969 123.663 317.543 122.943 317.14C115.476 313.016 107.738 312.837 99.7307 314.899C99.1509 315.053 98.5878 315.19 98.0341 315.325L98.0317 315.326L98.0308 315.326L98.0295 315.326C97.2959 315.506 96.5789 315.681 95.8619 315.885L96.0418 315.705C95.7269 315.885 95.3895 316.064 95.0521 316.243L95.0486 316.245L95.0484 316.245C94.7609 316.398 94.4735 316.551 94.2001 316.704C94.2145 316.67 94.2286 316.636 94.2424 316.602L94.0625 316.781C94.1079 316.755 94.1538 316.73 94.2001 316.704C93.6517 317.974 92.6783 318.487 91.3633 318.574L91.5433 318.395C90.9564 318.646 90.2914 318.974 89.6939 319.308C89.7024 319.29 89.7108 319.273 89.7192 319.255C89.7275 319.238 89.7357 319.22 89.7438 319.202L89.5639 319.381C89.6068 319.357 89.6502 319.332 89.6939 319.308C88.9688 320.785 87.4824 321.247 86.0648 321.688L86.0615 321.689C85.8469 321.756 85.6338 321.822 85.4252 321.891C77.0578 324.491 68.9604 323.864 61.5827 319.023C56.4544 315.705 51.0561 313.643 45.028 313.375C42.8995 313.242 40.7218 313.648 38.5676 314.05C37.808 314.192 37.0513 314.333 36.3007 314.45C35.0186 314.652 33.7365 315.005 32.4544 315.358C32.0271 315.476 31.5997 315.593 31.1724 315.705L31.3523 315.526C30.3822 316.229 29.4985 316.846 28.5317 317.461C27.9919 317.697 27.3963 317.993 26.8527 318.294C26.8266 318.264 26.8145 318.193 26.8537 318.037C27.4835 317.768 28.2033 317.409 28.8331 317.05L28.6532 317.14C29.1895 315.804 30.1698 315.176 31.5059 315.168C31.454 315.226 31.4028 315.286 31.3523 315.347L31.5322 315.168L31.5059 315.168C33.2105 313.243 35.6527 312.554 38.0102 312.119C45.028 310.954 51.9558 310.954 58.3438 314.899C60.0532 315.975 61.9426 317.05 63.7421 318.037C71.0297 321.981 78.7673 322.25 86.5948 319.83C87.1796 319.65 87.742 319.493 88.3043 319.336C88.8666 319.18 89.4289 319.023 90.0137 318.843L89.8338 319.023C90.4182 318.773 91.08 318.446 91.6756 318.114C91.6612 318.147 91.647 318.181 91.6332 318.216L91.8132 318.037L91.7422 318.077L91.6756 318.114C92.224 316.844 93.1973 316.331 94.5123 316.243L94.3324 316.423C94.6472 316.243 94.9845 316.064 95.3218 315.885L95.3221 315.885L95.3253 315.883C95.6262 315.723 95.9271 315.563 96.2119 315.403C96.1849 315.444 96.1582 315.485 96.1318 315.526L96.3117 315.347C96.2787 315.366 96.2454 315.385 96.2119 315.403C97.7827 313.057 100.417 312.626 102.817 312.235C103.05 312.196 103.282 312.159 103.509 312.119C107.828 311.402 112.327 311.402 116.825 312.478C119.774 313.15 122.25 314.686 124.695 316.204L124.71 316.213C124.871 316.313 125.032 316.413 125.193 316.512C133.83 321.981 142.917 322.967 152.454 319.292C152.923 319.091 153.492 319.04 154.049 318.99C154.24 318.973 154.43 318.956 154.613 318.933L154.433 319.112C155.018 318.863 155.68 318.536 156.275 318.204C156.261 318.237 156.247 318.271 156.233 318.305L156.413 318.126L156.337 318.169L156.275 318.204C156.824 316.933 157.797 316.42 159.112 316.333L158.932 316.512C159.545 316.251 160.243 315.904 160.86 315.555C160.817 315.605 160.774 315.655 160.731 315.706L160.911 315.526L160.86 315.555C163.107 312.996 166.369 312.471 169.459 312.119C176.656 311.313 183.494 312.209 189.522 316.602C193.841 319.74 198.879 321.174 204.098 321.712C208.776 322.16 213.275 321.264 217.593 319.381C219.123 318.664 220.562 318.036 222.092 317.409L221.912 317.499C222.504 317.246 223.175 316.914 223.777 316.577C223.765 316.597 223.753 316.618 223.741 316.638C223.731 316.656 223.721 316.674 223.711 316.692L223.891 316.512C223.853 316.534 223.815 316.556 223.777 316.577C223.847 316.457 223.922 316.342 224 316.232V313.288C223.597 313.483 223.188 313.698 222.812 313.912L222.992 313.823C222.452 315.168 221.462 315.706 220.113 315.795L220.293 315.616C219.978 315.795 219.64 315.974 219.303 316.154C218.97 316.331 218.638 316.507 218.326 316.684C218.381 316.626 218.436 316.569 218.492 316.514L218.313 316.692L218.326 316.684C218.212 316.805 218.1 316.931 217.989 317.055C217.553 317.543 217.126 318.021 216.604 318.216C208.236 321.264 200.139 320.905 192.221 316.333C188.892 314.361 185.384 312.478 181.785 311.313C176.027 309.52 170.088 309.878 164.24 311.671C163.686 311.855 163.09 311.955 162.48 312.058L162.479 312.058L162.478 312.058L162.477 312.058L162.476 312.058C162.196 312.105 161.914 312.153 161.631 312.209L161.811 312.03C161.497 312.209 161.16 312.388 160.824 312.566L160.821 312.568L160.819 312.569L160.818 312.569C160.531 312.722 160.243 312.875 159.969 313.028C159.983 312.995 159.998 312.961 160.012 312.926L159.832 313.106C159.877 313.08 159.923 313.054 159.969 313.028C159.416 314.294 158.36 314.724 157.133 314.899L157.312 314.809C156.683 315.078 155.963 315.437 155.333 315.795L155.513 315.616C155.181 315.871 154.856 316.147 154.532 316.422L154.532 316.423L154.531 316.423C153.715 317.117 152.906 317.805 152.004 318.126C143.637 321.264 135.449 320.995 127.622 316.333C127.436 316.22 127.25 316.106 127.064 315.993L126.883 315.883C123.448 313.787 120.039 311.707 115.926 310.954C109.178 309.699 102.7 309.968 96.4017 313.106C95.0521 313.823 93.7026 314.361 92.353 314.899L92.5329 314.719C91.9513 314.968 91.2929 315.293 90.6995 315.623C90.7112 315.591 90.7225 315.559 90.7335 315.526L90.5536 315.706C90.6017 315.678 90.6504 315.651 90.6995 315.623C90.1498 317.122 88.8314 317.557 87.5879 317.967C87.3418 318.048 87.0985 318.128 86.8647 318.216C78.7673 321.264 70.7598 320.905 63.2022 316.423L60.5031 314.809C51.0561 309.071 41.4291 308.533 31.4423 313.195C31.0841 313.348 30.6967 313.472 30.2969 313.6L30.296 313.6C29.9931 313.697 29.683 313.797 29.3729 313.912L29.5529 313.823C28.9986 314.06 28.3747 314.366 27.8037 314.68L27.4831 314.361C28.1129 314.092 28.8327 313.733 29.4625 313.374L29.2826 313.464C32.8814 309.699 37.56 308.533 42.5084 308.085C48.9863 307.368 54.9245 309.25 60.3227 312.747C69.5898 318.754 79.1268 319.65 89.2936 315.347C89.5185 315.302 89.7434 315.28 89.9684 315.257C90.1933 315.235 90.4182 315.212 90.6432 315.168L90.4632 315.347C91.093 315.078 91.8128 314.719 92.4426 314.361L92.2626 314.54C96.4013 310.595 101.44 308.802 107.018 308.264C113.766 307.547 119.974 309.519 125.552 313.285C131.49 317.319 138.058 318.843 145.076 317.947C147.509 317.698 149.898 316.975 152.275 316.257C153.326 315.939 154.374 315.622 155.423 315.347L155.243 315.526C155.873 315.257 156.592 314.899 157.222 314.54L157.042 314.63C157.582 313.285 158.572 312.747 159.921 312.657L159.741 312.837C160.056 312.657 160.394 312.478 160.731 312.299C161.062 312.122 161.394 311.946 161.704 311.77C161.649 311.826 161.595 311.882 161.541 311.94L161.721 311.761L161.704 311.77C164.21 309.231 167.638 308.794 170.808 308.444C177.286 307.637 183.404 309.071 189.072 312.657C192.041 314.54 195.37 316.064 198.699 317.14C204.367 318.933 210.125 318.485 215.794 316.781C216.413 316.596 216.99 316.496 217.583 316.393L217.627 316.385L217.731 316.367C217.771 316.36 217.812 316.353 217.853 316.346C218.033 316.314 218.216 316.281 218.403 316.243L218.223 316.423C218.538 316.243 218.875 316.064 219.212 315.885L219.213 315.885L219.213 315.884C219.55 315.705 219.887 315.526 220.202 315.347L220.022 315.526C220.992 314.823 221.876 314.206 222.843 313.591C223.214 313.429 223.611 313.238 224 313.037V310.201C223.743 310.377 223.485 310.549 223.222 310.721C223.443 310.407 223.703 310.156 224 309.967V307.787ZM23.885 322.878L24.1279 322.817C24.1541 322.79 24.1804 322.763 24.2069 322.736C24.0976 322.785 23.9901 322.833 23.885 322.878ZM46.018 138.193C46.155 137.988 46.3442 137.732 46.5459 137.502C46.5373 137.615 46.5251 137.725 46.5128 137.834L46.5128 137.835C46.4903 138.036 46.4678 138.238 46.4678 138.462C46.3778 138.417 46.3104 138.373 46.2429 138.328C46.1754 138.283 46.1079 138.238 46.018 138.193ZM46.7086 136.894C46.7879 136.744 46.8735 136.598 46.9587 136.452C47.1572 136.113 47.3529 135.779 47.4575 135.414C47.5375 134.896 47.5464 134.36 47.5553 133.822C47.5664 133.15 47.5775 132.475 47.7274 131.828C50.5165 120.083 55.1951 109.146 63.7424 100.36C79.1275 84.312 97.9315 77.0501 120.334 79.7397C127.892 80.6362 135 82.6982 141.658 86.1947C157.943 94.622 169.009 107.622 174.407 125.194C175.396 128.413 176.095 131.776 176.788 135.107L176.788 135.108L176.788 135.11L176.789 135.111L176.789 135.113L176.789 135.115L176.79 135.117L176.79 135.118L176.79 135.12C177.042 136.331 177.293 137.537 177.556 138.731C177.736 134.069 177.017 129.587 175.757 125.194C172.068 111.925 165.14 100.718 154.434 91.8428C138.149 78.3052 119.255 73.2847 98.7413 77.588C75.7985 82.3396 59.7836 96.3254 50.6965 117.842C48.1387 123.906 46.2727 130.229 46.7086 136.894ZM181.397 127.638C181.452 128.402 181.507 129.169 181.585 129.936C181.503 129.868 181.41 129.801 181.316 129.733L181.316 129.733L181.316 129.733L181.316 129.733L181.316 129.732L181.316 129.732L181.316 129.732L181.315 129.732C181.083 129.564 180.852 129.396 180.795 129.228C177.286 101.346 154.434 77.4984 127.172 71.8502C107.289 67.6366 88.9344 71.0434 72.1997 82.5189C56.9945 92.9186 47.4575 107.173 43.7687 125.283C43.5887 126.135 43.4538 127.009 43.3188 127.883L43.3188 127.883L43.3188 127.883L43.3188 127.883L43.3188 127.883L43.3188 127.883L43.3188 127.884L43.3187 127.884C43.1838 128.758 43.0489 129.632 42.869 130.483C42.809 130.842 42.589 131.121 42.3691 131.4C42.289 131.501 42.2089 131.603 42.1365 131.708C41.7443 124.796 43.972 118.405 46.2879 112.015C49.6168 102.96 54.8352 94.891 61.673 88.167C72.3796 77.4984 85.2456 70.5951 100.361 68.0848C106.479 67.0987 112.597 67.009 118.715 67.4573C125.553 67.9952 132.211 69.6089 138.599 72.3882C161.092 82.1603 175.397 98.746 180.795 122.683C181.157 124.303 181.276 125.964 181.397 127.637L181.397 127.638ZM42.0592 142.138V132.14C41.0653 134.673 41.0104 137.348 42.0592 142.138ZM181.695 130.261C181.695 133.948 181.697 137.552 181.785 141.241C182.505 138.014 182.505 134.697 182.415 131.469C182.415 131.17 182.175 130.872 181.935 130.573C181.852 130.469 181.768 130.365 181.695 130.261ZM186.094 122.774C186.085 123.366 186.076 123.96 186.096 124.555C184.947 123.332 184.847 121.762 184.749 120.224V120.224C184.711 119.627 184.673 119.035 184.574 118.47C181.605 106.187 176.117 95.3392 167.659 85.9257C160.822 78.3052 152.904 72.1192 143.457 67.9055C136.619 64.8573 129.602 62.7057 122.134 61.7195C117.815 61.1816 113.497 60.9126 109.178 61.0919C93.7029 61.8091 79.6673 66.6504 67.3412 75.9743C53.4856 86.4636 44.4884 100.18 40.0798 116.856C39.7161 118.306 39.4724 119.815 39.2274 121.333L39.2274 121.333C39.0482 122.443 38.8683 123.557 38.6403 124.656C38.5183 125.081 38.2721 125.507 38.0421 125.904C37.9656 126.037 37.8909 126.166 37.8231 126.291C37.6086 118.316 39.9321 110.865 43.0489 103.767C53.4856 80.0983 71.6599 64.947 96.9418 59.6575C118.985 54.9955 139.678 59.8368 157.763 73.6433C172.788 85.2085 181.875 100.539 185.834 118.918C186.133 120.172 186.114 121.466 186.094 122.774ZM37.7406 138.373V126.78C36.7417 129.583 36.6042 134.105 37.7406 138.373ZM186.194 124.882V140.345C186.913 135.593 186.913 130.842 186.913 126.09C186.913 125.791 186.673 125.492 186.434 125.194C186.35 125.09 186.267 124.986 186.194 124.882ZM52.0461 135.414C52.3254 135.344 52.6048 135.302 52.8789 135.26C53.311 135.194 53.73 135.13 54.1154 134.966C55.4483 134.401 56.7688 133.824 58.0861 133.249L58.0863 133.249L58.0865 133.249L58.0867 133.249L58.0869 133.249L58.0878 133.248L58.0893 133.248L58.0932 133.246C60.3304 132.269 62.5584 131.296 64.822 130.393C75.9785 125.911 87.5848 123.132 99.4611 122.235C109.088 121.518 118.895 121.428 128.612 122.773C138.869 124.118 148.855 126.449 158.482 130.214C161.483 131.364 164.409 132.625 167.428 133.925L167.43 133.926L167.434 133.927C169.12 134.654 170.835 135.393 172.608 136.131L172.461 135.495L172.46 135.492C171.984 133.434 171.568 131.637 171.078 129.766C168.199 119.456 162.891 110.67 155.243 103.229C139.678 88.0774 120.964 82.2499 99.731 86.5533C78.5877 90.8566 63.6524 103.767 55.1051 123.58C54.9922 123.836 54.8779 124.093 54.7633 124.351C53.2335 127.795 51.6276 131.411 52.0461 135.414ZM52.0461 135.414C52.0011 135.459 51.9561 135.481 51.9111 135.504C51.8661 135.526 51.8211 135.548 51.7761 135.593C51.6862 135.683 51.6862 135.773 51.6862 135.862C51.7234 135.825 51.7607 135.773 51.8044 135.711C51.8661 135.624 51.9407 135.519 52.0461 135.414ZM204.908 236.453V167.42C204.908 167.132 204.913 166.838 204.919 166.542L204.919 166.54C204.936 165.638 204.953 164.711 204.818 163.834C204.728 163.027 204.278 162.13 203.738 161.503C202.119 159.8 200.319 158.186 198.52 156.572C197.89 155.944 197.17 156.034 196.99 157.11C196.837 157.896 196.694 158.683 196.551 159.468L196.551 159.469L196.551 159.47L196.551 159.472L196.551 159.473L196.55 159.474L196.55 159.476C196.108 161.91 195.669 164.332 194.921 166.703C193.841 170.468 192.132 174.234 188.983 176.565C186.284 178.627 185.474 180.778 185.834 183.737C185.924 184.633 185.924 185.53 185.834 186.426C185.474 189.743 185.744 192.523 189.882 193.509C191.772 193.957 192.941 195.661 192.852 197.543C192.762 199.157 191.682 200.412 190.062 201.309C186.643 203.012 182.955 203.819 179.266 203.371C179.027 203.344 178.786 203.317 178.544 203.291L178.538 203.29L178.535 203.29C175.585 202.97 172.422 202.626 170.179 200.143C168.469 198.261 168.469 196.378 170.269 194.674C170.335 194.608 170.403 194.54 170.471 194.47C170.963 193.97 171.516 193.408 172.068 193.33C176.387 192.702 176.477 189.743 176.207 186.337C176.03 184.841 176.114 183.432 176.202 181.94L176.207 181.854C176.297 180.24 175.757 179.075 174.497 177.999C172.878 176.565 171.258 174.861 169.999 173.068C165.68 166.792 164.6 159.62 164.51 152.269C164.51 149.489 165.77 147.696 167.839 146.441C168.611 145.98 169.499 145.636 170.388 145.292C171.055 145.034 171.721 144.776 172.338 144.469C172.788 144.29 173.328 143.752 173.418 143.303C173.957 140.972 172.878 138.462 170.629 137.386C167.3 135.773 163.881 134.159 160.462 132.724C144.987 126.269 128.792 123.49 112.057 123.132C108.818 123.042 105.489 123.401 102.25 123.759C100.857 123.913 99.4631 124.051 98.0722 124.189L98.071 124.189L98.0709 124.189L98.0707 124.189L98.0706 124.189L98.0705 124.189L98.0704 124.189L98.0703 124.189L98.0702 124.189C93.8044 124.612 89.5638 125.032 85.4255 125.911C74.7189 128.152 64.5521 131.918 54.6552 136.49C51.8661 137.745 50.9664 139.538 50.8764 142.317C50.7864 143.393 51.0564 144.021 51.9561 144.379C52.3159 144.514 52.6532 144.648 52.9904 144.783L52.9908 144.783C53.3281 144.917 53.6655 145.052 54.0254 145.186C58.434 146.89 60.5034 149.938 59.6037 154.062C59.4566 154.746 59.4698 155.483 59.4832 156.23C59.4943 156.853 59.5056 157.484 59.4237 158.096C58.7039 164.73 56.6346 170.916 52.136 176.027C48.0873 177.909 48.2673 181.585 48.4472 185.171C48.5372 186.337 48.5372 187.592 48.4472 188.757C48.1773 190.819 48.8071 192.254 50.9664 192.792C51.2472 192.848 51.4929 192.973 51.7473 193.104C51.9005 193.182 52.0569 193.262 52.226 193.33C53.9355 194.136 55.1051 195.302 55.1051 197.454C55.1051 199.605 53.9355 200.771 52.226 201.578C46.6478 203.998 40.9796 204.178 35.3114 201.936C34.2317 201.488 33.242 200.681 32.4323 199.874C31.0827 198.44 31.0827 196.557 32.4323 195.123C32.5498 195.006 32.6698 194.881 32.7922 194.754C33.419 194.105 34.1087 193.39 34.8615 193.24C38.3704 192.702 38.9102 190.461 38.6403 187.502C38.4604 185.888 38.5503 184.185 38.6403 182.571C38.7303 180.689 38.2804 179.254 36.5709 177.909C31.3526 173.875 29.0133 168.137 27.8437 161.772C27.5738 160.158 27.3039 158.544 26.854 156.931C26.7641 156.662 26.0443 156.303 25.9543 156.393C25.4479 156.849 24.9285 157.293 24.4101 157.736C22.9944 158.945 21.5856 160.149 20.466 161.593C19.6563 162.579 19.6563 164.372 19.6563 165.806V305.216V307.906C19.7463 309.34 20.466 309.878 21.7256 309.34C24.6047 308.085 27.3939 306.651 30.093 305.037C34.9515 302.078 40.0798 300.554 45.7481 300.465C51.5962 300.375 56.9045 301.989 61.8529 305.126C62.437 305.485 63.0212 305.82 63.6053 306.156L63.6074 306.158L63.6077 306.158L63.608 306.158L63.6083 306.158L63.6086 306.158L63.6089 306.158L63.6092 306.158L63.6095 306.159C64.1936 306.494 64.7777 306.83 65.3618 307.188C71.3899 310.595 77.6879 311.133 84.4358 309.788C88.3046 308.982 91.6335 307.009 94.9625 305.037C101.89 300.733 109.268 299.658 117.275 301.361C121.206 302.16 124.493 304.1 127.774 306.036C128.173 306.272 128.572 306.507 128.972 306.74C137.699 311.761 146.516 311.94 155.513 307.457C156.593 306.92 157.605 306.292 158.617 305.664C159.63 305.037 160.642 304.409 161.721 303.871C168.019 300.644 174.677 299.837 181.695 301.271C186.104 302.168 189.792 304.409 193.481 306.651C196.36 308.354 199.419 309.43 202.568 310.237C204.368 310.775 204.998 310.237 205.088 308.264C205.147 307.551 205.128 306.876 205.108 306.189V306.189C205.098 305.84 205.088 305.488 205.088 305.126C204.908 282.175 204.908 259.314 204.908 236.453ZM204.908 159.71V155.586V25.5895C204.908 19.762 204.728 19.5827 198.88 19.5827H25.2345H22.5354C20.0162 19.762 19.6563 20.031 19.5663 22.4516C19.5064 23.647 19.5263 24.8424 19.5463 26.0377C19.5563 26.6354 19.5663 27.2331 19.5663 27.8308V154.689C19.5663 155.001 19.5475 155.316 19.5284 155.637C19.4539 156.888 19.3739 158.23 20.3761 159.799C20.9031 159.204 21.3752 158.637 21.8246 158.096L21.8247 158.096C22.5261 157.252 23.1721 156.475 23.885 155.765C24.0055 155.652 24.1271 155.539 24.2487 155.426L24.2492 155.425L24.2497 155.425L24.251 155.424C25.7619 154.02 27.2769 152.612 26.944 150.207C26.854 149.489 27.5738 148.503 28.2036 147.965C29.2833 146.979 30.5429 145.993 31.8025 145.455C33.7818 144.738 34.2317 143.483 33.9618 141.6C33.9168 141.376 33.9168 141.152 33.9168 140.928C33.9168 140.703 33.9168 140.479 33.8718 140.255C32.1623 130.573 33.0621 120.89 35.4013 111.477C39.1801 96.5047 46.7377 83.774 58.0742 73.195C71.21 60.9126 86.7751 54.099 104.499 52.2163C112.867 51.3198 121.234 51.8577 129.422 53.8301C148.855 58.4023 164.42 68.802 176.117 84.7602C182.865 93.9944 187.273 104.394 189.433 115.69C191.052 124.207 191.322 132.814 189.882 141.51C189.523 143.841 189.613 144.2 191.952 145.186C194.921 146.441 196.81 148.503 197.44 151.731C197.62 152.538 197.89 153.613 198.43 154.151C199.809 155.463 201.232 156.645 202.79 157.938L202.79 157.938L202.792 157.94C203.469 158.502 204.172 159.085 204.908 159.71ZM188.353 126.09C190.152 109.684 177.826 81.3534 155.603 67.0986C127.982 49.3474 99.641 48.6302 71.4799 65.1263C45.838 80.0983 33.152 109.684 35.4013 130.662C36.8409 85.5671 75.0788 56.3403 111.967 56.43C149.575 56.5196 184.754 85.2085 188.353 126.09ZM39.9899 142.048C38.8202 122.325 44.7584 104.753 57.8942 89.8704C71.03 74.9881 87.8547 66.8297 107.648 65.6642C145.886 63.3332 180.345 91.2152 183.944 131.559C185.744 116.408 174.407 88.6153 151.914 74.5398C127.262 59.2092 101.53 57.8644 76.3384 72.1192C49.7068 87.2705 37.8306 111.297 39.9899 142.048ZM58.3441 155.138C48.0873 160.337 38.3704 160.248 28.6535 155.586C28.5635 162.31 30.5429 168.854 34.4116 173.785C39.0002 179.523 45.5681 180.778 51.0564 174.234C53.0357 171.903 54.4753 168.944 55.5549 166.075C56.6158 163.468 57.1763 160.75 57.8045 157.703C57.9755 156.874 58.1516 156.02 58.3441 155.138ZM166.31 155.407C166.4 161.503 168.019 166.792 170.898 171.723C171.618 172.978 172.518 174.234 173.598 175.22C178.096 179.613 183.404 179.613 187.903 175.309C189.343 173.875 190.602 172.082 191.592 170.289C194.201 165.717 195.371 160.696 195.551 155.407C185.924 160.068 176.387 160.427 166.31 155.407ZM44.3985 139.538C46.7377 98.746 78.8576 75.9743 108.728 74.6295C126.992 73.8226 143.187 79.3811 156.863 91.5738C170.359 103.587 177.916 118.739 179.446 136.759C180.795 119.097 168.919 93.2772 145.706 80.6362C122.134 67.8159 98.4714 68.2641 75.5286 82.3396C54.5653 95.1599 42.5091 119.725 44.3985 139.538ZM174.767 136.938C173.238 111.028 150.565 83.8637 117.995 80.9051C80.747 77.588 51.5062 105.829 49.2569 137.117C50.9664 128.78 53.6655 120.89 58.1641 113.718C62.7527 106.277 68.5108 99.9115 75.7985 94.9806C82.9063 90.1394 90.6438 86.8222 99.1012 85.0292C107.738 83.1465 116.196 83.3258 124.833 85.0292C133.29 86.7326 140.938 90.0497 148.046 94.9806C155.333 100.001 161.092 106.277 165.77 113.718C170.359 120.801 172.698 128.78 174.767 136.938ZM184.304 187.682V185.44C184.214 183.647 184.124 181.854 184.124 180.151C182.415 180.061 180.705 179.971 178.996 180.061C178.456 180.061 177.466 180.689 177.466 181.047C177.376 185.351 177.286 189.654 177.376 193.957C177.466 195.571 179.266 196.467 181.155 196.378C183.225 196.288 184.304 195.392 184.304 193.509V187.682ZM46.6478 180.151H41.3394C40.2598 180.151 39.63 180.509 39.63 181.675C39.63 182.955 39.62 184.245 39.6101 185.538L39.6101 185.539V185.54V185.54V185.541V185.542V185.542V185.543C39.59 188.143 39.5699 190.756 39.63 193.33C39.72 195.392 41.0695 196.467 43.3188 196.378C45.5681 196.288 46.6478 195.392 46.6478 193.24V180.151ZM46.2604 201.441L46.2606 201.441L46.2607 201.441L46.2608 201.441L46.2609 201.441L46.2611 201.441C47.7599 201.041 49.2455 200.644 50.6965 200.143C52.136 199.695 53.7555 198.709 53.4856 197.095C53.3656 196.438 52.6059 195.86 51.8461 195.282C51.4662 194.993 51.0864 194.704 50.7865 194.405C50.6065 194.226 50.2466 194.047 49.9767 194.047C49.4369 194.047 48.6271 194.137 48.5372 194.405C47.5054 197.49 45.1434 197.435 42.7481 197.379C42.4281 197.371 42.1074 197.364 41.7893 197.364C40.1698 197.364 38.8202 197.005 38.4604 195.123C38.1904 193.599 37.2907 193.599 36.2111 194.136C35.4013 194.495 34.5916 194.943 33.8718 195.392C32.1623 196.647 32.1623 197.992 33.9618 199.247C36.7509 201.309 39.9899 201.757 43.4988 202.205C44.4209 201.933 45.3431 201.687 46.2604 201.441ZM180.795 202.205C180.795 202.1 180.826 201.995 180.852 201.908C180.87 201.847 180.885 201.794 180.885 201.757C181.122 201.757 181.368 201.767 181.618 201.776C182.128 201.797 182.651 201.817 183.135 201.757L183.207 201.744C185.794 201.3 188.461 200.842 190.422 198.888C190.872 198.44 191.322 197.633 191.232 197.005C191.142 196.019 188.173 193.868 187.093 194.047C186.717 194.1 186.437 194.506 186.139 194.938C185.937 195.23 185.728 195.534 185.474 195.75C185.315 195.886 185.151 196.044 184.982 196.207C184.481 196.689 183.943 197.207 183.405 197.274C181.695 197.454 179.806 197.454 178.096 197.274C177.466 197.185 176.837 196.557 176.387 196.019C174.767 193.778 174.587 193.688 172.608 194.764C171.528 195.392 170.629 196.109 170.629 197.454C170.629 198.798 171.528 199.695 172.698 200.054L180.795 202.205ZM195.821 150.924C195.772 150.802 195.73 150.681 195.689 150.563C195.579 150.246 195.478 149.955 195.281 149.758C195.081 149.559 194.881 149.35 194.679 149.137C194.061 148.487 193.417 147.811 192.672 147.338C189.972 145.634 189.433 145.903 188.713 148.952C188.616 149.434 188.467 149.89 188.323 150.334L188.322 150.334L188.322 150.334L188.322 150.334C188.198 150.716 188.076 151.089 187.993 151.462C187.68 152.788 187.435 154.183 187.198 155.527C187.163 155.727 187.128 155.926 187.093 156.124L187.094 156.124C188.893 155.675 190.692 155.227 192.402 154.689C193.211 154.42 194.021 153.793 194.561 153.165C195.101 152.627 195.461 151.82 195.821 150.924ZM37.5606 156.841C37.3828 156.235 37.2073 155.64 37.0339 155.051L37.0336 155.05L37.0331 155.048C36.1544 152.063 35.328 149.256 34.5016 146.262C34.1559 146.4 33.8235 146.524 33.4993 146.646L33.4984 146.646L33.4974 146.646C32.9785 146.841 32.4804 147.028 31.9824 147.248C31.3526 147.517 30.6328 147.965 30.093 148.414C28.2036 149.848 28.1136 151.641 29.7331 153.345C31.7125 155.407 34.3217 156.213 37.5606 156.841ZM50.3366 147.607C50.418 148.31 50.4994 148.98 50.5783 149.63L50.5784 149.63C50.7611 151.136 50.9307 152.532 51.0564 153.972C51.0564 154.037 51.0512 154.107 51.0458 154.179C51.0287 154.408 51.0097 154.664 51.1463 154.869C51.4163 155.227 51.9561 155.855 52.226 155.855C54.3853 155.496 57.7143 152.717 57.8042 151.283C57.9842 149.669 54.7452 146.8 52.136 146.262C51.0564 145.993 50.4266 146.531 50.3366 147.607ZM172.927 152.947L172.927 152.945L172.927 152.944L172.927 152.944C173.117 151.185 173.304 149.459 173.418 147.696C173.418 147.248 172.428 146.262 172.248 146.352C171.993 146.473 171.738 146.592 171.484 146.711C169.854 147.474 168.251 148.224 166.85 149.31C165.77 150.207 165.95 151.731 166.94 152.896C168.379 154.42 170.089 155.496 172.608 156.034C172.707 154.985 172.817 153.961 172.927 152.947ZM48.8071 151.82C48.8627 151.876 48.9183 151.897 48.9951 151.926L48.9953 151.926L48.996 151.927C49.0433 151.945 49.0986 151.966 49.167 152V145.903H48.8071V151.82ZM35.2214 140.255C35.2664 140.255 35.3114 140.233 35.3563 140.21C35.4013 140.188 35.4463 140.166 35.4913 140.166V135.145H35.2214V140.255ZM189.073 132.366H189.433V128.6H189.073V132.366ZM177.736 145.993C177.646 145.948 177.556 145.926 177.466 145.903C177.376 145.881 177.286 145.859 177.196 145.814C177.241 146.262 177.264 146.688 177.286 147.114C177.309 147.54 177.331 147.965 177.376 148.414H177.646C177.736 147.607 177.736 146.8 177.736 145.993ZM48.7171 143.124H49.077V140.255H48.7171V143.124ZM174.944 140.377C174.92 140.408 174.896 140.438 174.874 140.467C174.697 140.692 174.587 140.832 174.587 140.972C174.587 141.259 174.661 141.509 174.737 141.769C174.781 141.916 174.825 142.066 174.857 142.228C175.037 142.048 175.217 141.869 175.307 141.69L175.307 141.689C175.217 141.241 175.127 140.793 175.037 140.255C175.005 140.298 174.974 140.339 174.944 140.377ZM44.4884 147.607C44.5109 147.54 44.5391 147.472 44.5672 147.405C44.6515 147.203 44.7359 147.002 44.6684 146.8C44.6684 146.639 44.5712 146.477 44.474 146.316C44.4093 146.208 44.3445 146.101 44.3085 145.993C44.2185 146.262 44.1286 146.531 44.2185 146.8C44.2185 147.069 44.3085 147.338 44.4884 147.607ZM46.4678 142.407C46.4228 142.362 46.4003 142.295 46.3779 142.228C46.3554 142.16 46.3329 142.093 46.2879 142.048C46.2429 142.183 46.1979 142.295 46.1529 142.407C46.1079 142.519 46.0629 142.631 46.018 142.766C46.018 142.821 46.0523 142.876 46.0998 142.953C46.1292 143 46.1635 143.056 46.1979 143.124C46.2429 142.99 46.2879 142.878 46.3329 142.766C46.3778 142.653 46.4228 142.541 46.4678 142.407ZM175.037 151.462C174.992 151.417 174.97 151.35 174.947 151.283C174.925 151.215 174.902 151.148 174.857 151.103C174.812 151.238 174.767 151.35 174.722 151.462C174.677 151.574 174.632 151.686 174.587 151.82C174.587 151.91 174.677 152.089 174.767 152.179C174.947 151.91 175.037 151.641 175.037 151.462ZM177.523 141.989C177.51 142 177.496 142.012 177.481 142.023C177.391 142.096 177.286 142.18 177.286 142.317C177.286 142.586 177.376 142.855 177.466 143.124C177.488 143.103 177.514 143.082 177.542 143.059C177.631 142.987 177.736 142.902 177.736 142.766C177.736 142.497 177.646 142.228 177.556 141.959C177.546 141.969 177.535 141.979 177.523 141.989ZM188.533 139.807C188.488 139.762 188.465 139.695 188.443 139.628C188.42 139.56 188.398 139.493 188.353 139.448C188.308 139.583 188.263 139.695 188.218 139.807C188.173 139.919 188.128 140.031 188.083 140.166C188.083 140.221 188.117 140.276 188.165 140.353C188.194 140.4 188.229 140.456 188.263 140.524C188.443 140.255 188.533 139.986 188.533 139.807ZM46.018 145.814L46.1979 145.993V145.724L46.018 145.814ZM220.616 312.378L220.517 312.388C220.292 312.411 220.067 312.433 219.842 312.478C209.855 316.781 200.228 316.423 190.871 310.685C190.332 310.416 189.792 310.147 189.342 309.788C182.774 305.485 175.576 304.32 168.019 306.202C164.634 307.025 161.25 308.225 158.7 310.771C159.152 310.582 159.604 310.387 160.056 310.192C160.731 309.9 161.406 309.609 162.081 309.34C162.529 309.156 162.971 308.956 163.411 308.757C164.471 308.278 165.525 307.8 166.669 307.547C175.216 305.575 183.314 306.74 190.512 311.671C196.72 315.974 203.557 317.319 210.845 316.333C214.403 315.827 217.96 315.082 220.616 312.378ZM155.787 312.481C153.196 315.187 149.561 315.83 146.156 316.243C138.868 317.14 132.12 315.795 125.732 311.581C116.195 305.306 106.028 304.857 95.6816 310.057C95.2312 310.338 94.7104 310.548 94.1853 310.732C96.768 308.339 100.012 307.098 103.329 306.292C110.887 304.409 117.994 305.575 124.652 309.788C126.271 310.774 127.98 311.67 129.688 312.566L129.689 312.567L129.69 312.567L129.691 312.568C132.84 314.361 136.259 314.988 139.947 315.168C145.476 315.426 150.756 314.61 155.787 312.481ZM90.6917 312.851C85.883 314.901 80.9071 315.514 75.6178 315.347C71.839 315.168 68.2402 314.45 64.9112 312.657C63.9128 312.108 62.9275 311.533 61.9402 310.957L61.9395 310.957C60.3472 310.027 58.7497 309.094 57.0837 308.264C49.5261 304.589 41.8785 304.678 34.2309 307.995C33.2104 308.44 32.3708 309.155 31.5197 309.885C31.678 309.833 31.8333 309.773 31.9817 309.699C38.0098 307.009 44.1279 306.023 50.6958 307.278C54.8345 308.085 58.4333 309.788 61.6723 312.03C67.8804 316.243 74.6282 317.14 81.826 316.333C85.0769 315.938 88.258 315.125 90.6917 312.851ZM25.8638 321.981L26.0092 321.836C26.8542 321.229 27.6461 320.682 28.5035 320.136C28.5789 320.103 28.6554 320.069 28.7326 320.034C28.1906 321.36 27.2049 321.892 25.8638 321.981ZM30.5423 319.112L30.473 319.142C30.641 319 30.8069 318.853 30.9724 318.707C31.5824 318.168 32.1879 317.633 32.8818 317.319C40.1695 314.181 47.5472 314.002 54.9248 317.319C56.7243 318.126 58.4337 319.023 60.0532 320.098C68.2406 325.478 77.0578 326.016 86.2349 323.326C86.7891 323.142 87.3854 323.042 87.9951 322.939L87.9958 322.939C88.2765 322.892 88.5601 322.845 88.8437 322.788L88.7545 322.877L88.7539 322.878L88.6642 322.967C88.6924 322.951 88.7208 322.935 88.7494 322.919C86.9532 324.987 84.3506 325.669 81.916 326.015C75.1682 327.091 68.6002 326.643 62.4822 322.967C58.5234 320.547 54.6546 318.216 49.9761 317.229C44.128 315.974 38.4598 316.602 32.8815 318.485C32.4767 318.619 32.0493 318.754 31.6219 318.888C31.1946 319.023 30.7672 319.157 30.3623 319.292L30.5423 319.112ZM93.3522 320.195C92.7976 321.404 91.8388 321.896 90.5537 321.981L90.6428 321.892L90.6435 321.891L90.7332 321.802C90.6662 321.84 90.5981 321.878 90.5291 321.916C91.0815 320.685 92.0458 320.185 93.3423 320.098L93.253 320.187L93.2524 320.188L93.1627 320.278C93.2251 320.251 93.2883 320.224 93.3522 320.195ZM98.453 318.47C97.3177 318.788 96.185 319.106 95.0523 319.381L95.1413 319.292L95.1421 319.292L95.2318 319.202C95.2016 319.215 95.1711 319.228 95.1405 319.241C95.1105 319.254 95.0804 319.267 95.05 319.281C95.7928 317.784 97.2668 317.324 98.6683 316.887C98.8749 316.822 99.0799 316.758 99.2808 316.692C107.468 313.823 115.386 314.54 122.853 319.023C123.269 319.269 123.684 319.518 124.099 319.768C127.002 321.513 129.905 323.259 133.29 324.043C140.668 325.747 147.775 325.567 154.523 321.891C155.258 321.497 156.028 321.209 156.811 320.916L156.811 320.916C157.161 320.786 157.513 320.654 157.866 320.511C153.794 324.236 148.88 326.03 143.457 326.553C136.709 327.181 130.501 325.567 124.832 321.712C119.254 317.857 112.956 316.064 106.208 316.781C103.59 317.03 101.015 317.752 98.453 318.47ZM158.437 320.234L158.331 320.269C158.454 320.146 158.574 320.018 158.696 319.889C159.078 319.482 159.463 319.072 159.922 318.843C169.189 313.912 178.366 313.912 187.543 319.112C187.993 319.381 188.42 319.673 188.847 319.964C189.275 320.255 189.702 320.547 190.152 320.816C199.689 326.464 209.496 326.822 219.483 321.891C219.829 321.719 220.213 321.62 220.586 321.524C220.632 321.512 220.677 321.501 220.722 321.489C217.523 324.766 213.278 325.947 208.866 326.464C202.028 327.271 195.64 325.836 189.792 321.891C184.394 318.216 178.365 316.423 171.708 316.692C168.109 316.871 164.69 317.767 161.361 319.112C160.415 319.583 159.401 319.917 158.438 320.233L158.437 320.234ZM155.806 324.597C155.613 324.687 155.424 324.772 155.243 324.85L155.423 324.76C155.126 324.868 154.829 324.967 154.535 325.066C153.848 325.296 153.174 325.522 152.544 325.836C149.125 327.629 145.526 328.167 141.747 328.346C135.629 328.615 129.961 327.091 124.832 323.684C118.894 319.74 112.506 317.767 105.309 318.574C101.245 319.014 97.2685 319.714 94.3152 322.963C94.3815 322.934 94.4472 322.905 94.5119 322.878L94.3319 323.057C94.8707 322.878 95.4319 322.677 95.9932 322.475L95.9964 322.474L95.9996 322.473C96.5608 322.272 97.1221 322.071 97.6609 321.892C105.488 319.292 113.226 319.292 120.784 322.788C122.15 323.412 123.445 324.216 124.736 325.017C125.484 325.482 126.232 325.946 126.992 326.374C136.259 331.574 145.436 331.305 154.613 326.016C154.913 325.836 155.133 325.498 155.353 325.159C155.463 324.99 155.573 324.82 155.693 324.671L155.513 324.76C155.608 324.706 155.706 324.651 155.806 324.597ZM92.5061 323.887C92.4545 323.91 92.4033 323.932 92.3527 323.953L92.5327 323.774C91.0032 324.402 89.5636 325.029 88.0341 325.746C84.5252 327.45 80.7464 328.257 76.8776 328.346C70.7596 328.526 65.0913 327.002 60.0529 323.505C54.2048 319.471 47.7268 317.678 40.6191 318.574C36.6757 319.098 32.647 319.707 29.6967 322.803L29.7323 322.788L29.6426 322.878L29.5524 322.967C30.2722 322.743 30.9695 322.519 31.6667 322.295C32.364 322.071 33.0613 321.847 33.7811 321.623C40.349 319.471 46.9169 319.292 53.4848 321.712C56.004 322.609 58.3433 323.954 60.5926 325.298C67.3405 329.333 74.4482 331.215 82.3657 329.153C86.1426 328.191 89.6623 326.63 92.5061 323.887ZM111.696 364.028H197.619H200.768C203.827 363.939 204.907 363.042 204.907 359.994C204.997 351.298 204.997 342.691 204.907 333.995C204.907 331.395 204.547 331.126 201.668 330.947C197.529 330.767 193.84 329.333 190.332 327.271C189.612 326.867 188.915 326.441 188.217 326.016L188.217 326.015C187.52 325.59 186.822 325.164 186.103 324.76C178.275 320.368 170.268 320.278 162.08 323.595C160.866 324.068 159.745 324.758 158.626 325.446C157.838 325.931 157.05 326.415 156.232 326.823C155.601 327.119 154.966 327.43 154.327 327.743C151.87 328.947 149.356 330.18 146.785 330.678C138.688 332.112 130.77 331.036 123.753 326.105C122.673 325.298 121.503 324.671 120.334 324.043C116.465 321.802 112.056 321.264 107.828 321.264C102.429 321.354 97.391 322.967 92.7124 326.105C88.4838 328.974 83.8952 330.767 78.4969 331.036C73.1886 331.305 68.1502 330.857 63.3817 328.436C62.9451 328.199 62.5086 327.966 62.0729 327.734C60.5336 326.912 59.0062 326.097 57.5336 325.119C52.945 322.161 47.8166 321.264 42.5983 321.354C37.02 321.443 31.8017 323.416 27.2131 326.643C25.5937 327.719 23.8842 328.616 21.9948 329.243C19.8355 329.96 19.4756 331.305 19.5656 333.277C19.6555 341.346 19.6555 349.415 19.5656 357.484C19.48 364.047 19.8825 364.046 25.0264 364.03C25.2925 364.029 25.5714 364.028 25.8636 364.028H111.696Z" fill="#2B2B2B" style="mix-blend-mode:color-burn"/>
<path d="M138.869 196.736C137.969 198.977 138.599 200.322 140.398 201.757C141.838 202.922 144.537 203.102 144.447 205.881C142.198 206.15 141.388 203.908 139.588 203.191C138.149 202.564 137.519 202.743 137.519 204.177C137.519 205.164 137.699 206.239 138.149 207.046C138.779 208.032 139.768 208.75 140.578 209.646C140.758 209.825 140.668 210.184 140.758 210.453C140.398 210.453 139.768 210.722 139.588 210.453C138.419 209.557 137.339 208.481 136.17 207.405C135.72 207.943 135.45 208.481 135.09 208.929C134.01 210.094 133.74 211.17 135.09 212.336C135.54 212.694 135.9 213.232 136.17 213.77C136.259 213.949 136.17 214.398 135.99 214.487C135.72 214.667 135.18 214.846 134.91 214.667C134.55 214.487 134.28 214.039 134.01 213.681C133.29 212.874 132.661 211.977 131.491 212.963C130.411 213.86 129.332 214.667 130.501 216.191C130.681 216.46 130.951 216.729 130.861 216.998C130.861 217.356 130.591 217.715 130.411 218.074C130.051 217.894 129.602 217.894 129.422 217.625C128.522 216.191 127.712 216.101 126.812 217.536C125.643 219.329 124.203 220.584 122.044 221.211C119.615 221.929 120.245 223.991 120.335 225.694C120.424 227.487 121.774 229.101 123.124 229.28C123.573 229.37 124.113 229.37 124.383 229.19C129.152 226.053 134.73 225.604 140.128 224.26C154.344 220.853 168.559 217.805 182.775 214.577C183.045 214.487 183.315 214.398 183.674 214.398C184.394 214.398 185.384 214.218 185.834 214.577C188.353 216.908 192.312 215.922 194.741 217.984C198.25 220.942 196.45 225.963 192.852 226.77C189.793 227.487 186.823 228.204 183.764 228.921C186.734 235.556 185.564 237.707 178.636 239.321C177.376 239.59 176.027 240.038 174.587 240.487C175.127 241.473 175.667 242.369 175.937 243.266C176.837 246.224 175.307 249.093 172.338 249.99C170.539 250.528 168.559 250.886 166.67 251.335C167.12 252.231 167.749 252.948 168.019 253.755C169.189 257.7 167.929 260.21 163.881 261.107C155.873 262.9 148.136 265.769 139.768 265.41C138.149 265.32 137.609 266.038 137.609 267.472C137.609 267.651 137.609 267.741 137.609 267.92C137.249 275.81 136.979 283.699 136.619 291.589C136.349 295.892 135.9 300.106 135.54 304.499C133.92 303.871 134.19 302.526 134.19 301.361C134.37 298.402 134.73 295.444 134.82 292.485C135.18 284.775 135.54 276.975 135.9 269.265C136.169 263.886 136.529 258.597 136.799 253.217C137.069 248.645 137.429 243.983 137.519 239.411C137.609 235.645 137.249 235.197 133.56 234.032C130.411 233.046 127.262 232.059 124.113 231.342C120.604 230.535 118.355 228.921 118.535 224.977C118.625 223.273 117.635 223.094 116.286 223.184C113.317 223.273 110.258 223.273 107.289 223.184C105.669 223.094 105.309 223.722 105.129 225.246C104.769 229.37 103.96 230.177 100.001 231.342C96.672 232.239 93.433 233.135 90.1041 234.121C87.045 235.018 86.1453 236.094 86.2353 239.232C86.3253 243.804 86.7751 248.466 87.045 253.038C87.4049 261.196 87.7648 269.445 88.1247 277.603C88.3946 282.803 88.6645 288.003 89.0244 293.202C89.2044 295.892 89.5642 298.492 89.7442 301.182C89.7442 301.719 89.4743 302.347 89.2943 302.795C89.2043 302.885 88.5746 302.975 88.4846 302.795C88.3046 302.437 88.1247 301.988 88.1247 301.54C87.7648 296.071 87.4949 290.513 87.225 285.044C86.8651 279.127 86.5952 273.12 86.3253 267.203C86.2353 265.948 85.7854 265.231 84.4359 265.41C77.688 266.038 71.48 263.438 65.092 262.362C63.4725 262.093 61.853 261.734 60.3235 261.286C56.0048 260.031 54.7453 257.252 56.5447 253.128C56.8146 252.59 57.0845 252.052 57.3544 251.424C55.7349 250.976 54.2054 250.528 52.5859 250.169C48.2673 249.004 47.0077 246.583 48.6272 242.549C49.4369 240.487 49.4369 240.487 47.5475 239.859C46.7378 239.59 45.8381 239.501 44.9384 239.321C43.9487 239.052 42.869 238.873 41.9693 238.425C38.9103 236.901 38.1005 234.57 39.4501 231.432C40.3498 229.19 40.3498 229.19 37.9206 228.563C35.7613 228.025 33.6019 227.487 31.4426 226.949C28.4736 226.142 27.5738 224.529 27.8438 221.211C28.1137 218.611 29.3733 217.267 32.1624 217.087C33.6919 216.998 34.9515 216.729 36.2111 215.743C37.7406 214.487 39.5401 214.487 41.6994 214.936C58.0742 218.791 74.539 222.377 90.9138 226.142C93.613 226.77 96.2221 227.935 98.8313 229.011C100.451 229.639 101.8 229.549 102.88 228.473C105.129 226.142 104.589 222.287 101.53 221.301C99.4611 220.584 98.5614 219.06 97.3018 217.715C96.3121 216.639 95.5024 216.101 94.7826 217.805C94.4227 217.536 93.8829 217.356 93.7029 216.998C93.613 216.639 93.9728 216.191 94.1528 215.743C94.6926 214.218 93.2531 213.681 92.4433 212.963C91.4536 212.067 90.9138 213.053 90.284 213.681C89.8342 214.218 89.2943 214.667 88.2147 214.846C88.5745 213.949 88.7545 212.963 89.2943 212.246C90.194 211.081 89.9241 210.094 89.2043 209.019C88.3946 207.943 87.6748 207.763 86.6852 208.66C85.8754 209.377 85.1556 210.094 84.3459 210.722C84.1659 210.812 83.7161 210.722 83.5361 210.543C83.4462 210.453 83.4462 210.005 83.5361 209.825C84.4359 208.839 85.3356 207.853 86.3253 206.867C87.225 206.06 87.4049 205.253 86.7751 204.088C86.2353 203.012 85.8754 202.205 84.5258 203.281C83.2662 204.267 81.8267 205.164 80.4771 206.06C80.2972 206.15 79.7573 206.06 79.6674 205.97C79.5774 205.612 79.3974 204.984 79.5774 204.805C80.747 203.819 81.8267 202.833 83.1763 202.115C85.4255 200.95 86.1453 199.336 85.1556 196.736C83.4462 197.633 81.8267 198.529 80.1172 199.426C79.0376 199.964 77.9579 200.412 76.8782 200.86C76.6983 200.95 76.2484 200.681 76.1585 200.502C76.0685 200.322 76.1585 199.874 76.3384 199.784C77.8679 198.888 79.4874 198.081 81.0169 197.274C82.2765 196.557 83.7161 195.929 84.7957 194.943C85.3356 194.495 85.1556 193.329 85.3356 192.522C84.6158 192.433 83.896 192.164 83.3562 192.343C80.747 193.06 78.2278 194.047 75.7086 194.764C75.1688 194.943 74.359 195.929 73.9992 194.674C73.9092 194.405 74.8089 193.598 75.4387 193.329C77.688 192.523 79.9373 191.805 82.1866 191.088C82.9963 190.819 83.986 190.64 84.6158 190.102C85.0657 189.743 85.2456 188.847 85.2456 188.219C85.2456 187.95 84.3459 187.502 83.896 187.502C81.1969 187.771 78.5877 188.219 75.9785 188.667C75.7086 188.667 75.4387 188.936 75.1688 188.936C74.1791 188.936 73.1894 188.757 72.1997 188.757C72.3797 186.785 73.9992 187.681 74.9888 187.502C77.8679 186.874 80.837 186.426 83.7161 185.799C84.2559 185.709 84.9757 185.53 85.3356 185.171C85.6955 184.812 85.8754 184.095 85.9654 183.557C85.9654 183.468 85.2456 183.019 84.8857 183.019C82.4565 182.93 80.0273 183.199 77.688 182.93C75.7986 182.661 73.5493 184.274 72.1098 181.943C73.9992 181.764 75.7986 181.406 77.688 181.316C80.2072 181.226 82.8164 181.316 85.3356 181.226C85.9654 181.226 86.9551 180.688 87.045 180.24C87.3149 179.075 86.2353 178.806 85.3356 178.626C81.5568 177.999 77.688 177.371 73.9092 176.744C73.4593 176.654 73.0095 176.654 72.6496 176.475C72.4696 176.385 72.2897 176.026 72.3797 175.757C72.3797 175.578 72.7396 175.22 72.8295 175.22C75.0788 175.578 77.2381 175.937 79.3974 176.295C81.9167 176.744 84.3459 177.192 86.8651 177.551C87.3149 177.64 87.7648 177.461 88.1247 177.282C88.4846 177.102 88.7545 176.654 88.8445 176.295C88.9344 176.116 88.5745 175.757 88.3946 175.578C87.8548 175.309 87.3149 175.13 86.7751 174.951C83.2662 173.785 79.6674 172.62 76.1585 171.454C75.3487 171.185 74.7189 170.558 73.9992 170.109C74.8989 170.02 75.8886 169.84 76.7883 169.93C77.778 170.109 78.7676 170.558 79.7573 170.916C82.4565 171.813 85.1556 172.709 87.8548 173.516C88.5745 173.695 89.2943 174.054 90.0141 173.964C90.464 173.964 90.9138 173.337 91.3637 172.978C91.0938 172.709 90.8238 172.351 90.5539 172.171C86.9551 170.378 83.3562 168.496 79.7573 166.703C78.6777 166.165 77.598 165.627 76.6083 164.999C76.3384 164.82 76.2484 164.372 76.0685 164.013C76.4284 163.834 76.8782 163.385 77.1482 163.565C78.4977 164.103 79.8473 164.82 81.1969 165.537C84.9757 167.42 88.6645 169.302 92.4433 171.185C92.8932 171.364 93.523 171.006 94.0628 170.916C93.8829 170.558 93.7929 170.02 93.523 169.84C92.6233 169.033 91.6336 168.406 90.6439 167.689C87.225 165.268 83.8061 162.847 80.4771 160.337C79.9373 159.979 79.7573 159.172 79.3974 158.634C80.0272 158.723 80.6571 158.723 81.2869 158.903C81.6467 158.992 82.0066 159.441 82.3665 159.71C86.3253 162.579 90.374 165.447 94.4227 168.316C94.8726 168.675 95.4124 169.034 95.8622 169.302C96.0422 169.392 96.4021 169.123 96.582 168.944C96.762 168.765 96.9419 168.316 96.8519 168.227C96.4921 167.778 96.1322 167.33 95.6823 166.882C92.4433 163.565 89.1144 160.337 85.7854 157.02C85.0657 156.303 84.2559 155.586 83.6261 154.779C83.4462 154.51 83.5361 154.061 83.5361 153.703C83.8061 153.703 84.1659 153.703 84.3459 153.793C85.2456 154.599 86.1453 155.406 86.9551 156.213C90.5539 159.799 94.2428 163.385 97.8416 166.882C98.2015 167.24 98.8313 167.24 99.3711 167.42C99.2812 166.882 99.3711 166.254 99.1012 165.896C96.0422 161.682 92.8932 157.468 89.9241 153.255C89.1144 152.179 87.4049 151.282 88.4846 149.489C89.3843 150.386 90.374 151.193 91.0937 152.179C94.4227 156.572 97.6617 161.054 100.991 165.447C101.171 165.716 101.71 165.716 102.16 165.806C102.25 165.358 102.43 164.909 102.25 164.641C100.001 160.248 97.7516 155.855 95.5024 151.462C95.3224 151.103 94.9625 150.744 94.7826 150.296C94.4227 149.131 94.0628 147.875 93.7029 146.62C95.8622 146.531 95.5923 148.593 96.2221 149.669C98.7413 154.241 101.081 158.903 103.51 163.565C103.78 164.103 104.5 164.372 104.949 164.82C104.949 164.282 105.219 163.654 105.039 163.116C103.78 159.172 102.43 155.227 101.081 151.282C100.361 149.131 99.6411 147.069 99.0112 144.917C98.9213 144.648 99.3711 144.2 99.5511 143.841C99.911 144.02 100.451 144.2 100.541 144.469C102.43 149.937 104.14 155.496 106.029 160.965C106.479 162.31 107.109 163.565 107.738 164.909C108.728 163.475 108.008 161.951 107.828 160.516C107.289 155.944 106.299 151.462 105.579 146.889C105.399 145.724 105.399 144.558 105.309 143.393C105.309 143.214 105.669 142.945 105.939 142.945C106.209 142.945 106.569 143.124 106.659 143.303C107.109 145.455 107.469 147.696 107.828 149.848C108.548 154.241 109.178 158.634 109.808 163.027C109.898 163.385 110.258 163.744 110.438 164.013C110.708 163.654 111.337 163.206 111.337 162.847C111.427 157.199 111.427 151.462 111.427 145.813C111.427 144.558 111.517 143.303 112.327 142.138C112.417 143.303 112.507 144.469 112.507 145.544C112.507 150.924 112.507 156.303 112.507 161.682C112.507 162.847 112.147 164.192 113.857 164.73C115.116 157.558 116.286 150.386 117.545 143.303C117.545 143.124 117.995 143.034 118.625 142.586C118.445 150.206 116.106 157.379 116.466 164.82C116.916 163.834 117.365 162.758 117.725 161.772C119.525 156.303 121.324 150.744 123.214 145.276C123.394 144.738 124.113 144.379 124.563 144.02C124.653 144.558 124.833 145.186 124.743 145.724C122.854 151.551 120.964 157.289 119.075 163.116C118.805 163.923 118.805 164.73 119.255 165.806C119.885 164.73 120.604 163.654 121.234 162.489C123.394 158.275 125.553 153.972 127.712 149.758C128.072 148.951 128.432 148.144 128.972 147.427C129.242 146.979 129.871 146.889 130.411 146.62C130.411 147.069 130.591 147.607 130.411 148.055C130.051 149.041 129.512 149.937 129.062 150.834C126.722 155.496 124.293 160.158 122.044 164.82C121.864 165.178 122.134 165.716 122.134 166.165C122.494 165.985 123.034 165.806 123.214 165.537C126.812 160.606 130.411 155.675 134.01 150.744C134.28 150.386 134.55 150.027 134.91 149.758C135.09 149.669 135.54 149.579 135.63 149.758C135.9 150.027 136.169 150.565 136.08 150.834C135.9 151.372 135.36 151.82 135 152.268C131.581 157.02 128.162 161.682 124.833 166.434C124.563 166.792 124.833 167.42 124.833 167.868C125.193 167.689 125.733 167.599 126.003 167.33C129.782 163.654 133.47 159.979 137.159 156.303C137.969 155.496 138.869 154.689 139.768 153.882C139.948 153.793 140.398 153.882 140.578 153.972C140.758 154.061 140.758 154.51 140.668 154.689C139.948 155.496 139.229 156.213 138.509 156.93C134.91 160.516 131.311 164.103 127.712 167.778C127.442 168.047 127.532 168.765 127.442 169.213C127.982 169.123 128.522 169.302 128.882 169.033C133.02 166.075 137.159 163.116 141.298 160.158C142.108 159.53 143.097 159.082 143.997 158.544C144.087 158.454 144.447 158.813 144.537 158.992C144.627 159.082 144.627 159.351 144.537 159.441C143.817 160.158 143.097 160.965 142.288 161.592C138.959 164.103 135.54 166.523 132.121 168.944C131.671 169.302 131.041 169.571 130.681 170.02C130.411 170.289 130.231 170.916 130.321 171.185C130.411 171.454 131.131 171.633 131.401 171.544C132.211 171.275 133.02 170.827 133.83 170.378C137.159 168.675 140.488 166.971 143.817 165.358C145.077 164.73 146.066 163.296 147.776 164.103C147.506 166.165 145.527 166.165 144.267 166.882C141.568 168.406 138.689 169.661 135.9 171.096C135 171.544 134.1 172.082 133.2 172.709C132.931 172.889 132.931 173.516 133.021 173.875C133.021 174.054 133.47 174.323 133.74 174.323C134.46 174.233 135.18 174.054 135.9 173.875C139.588 172.709 143.277 171.544 146.966 170.378C148.046 170.02 149.125 170.02 150.475 170.647C147.866 171.544 145.257 172.53 142.557 173.426C140.308 174.144 138.059 174.861 135.81 175.668C135.45 175.757 134.91 176.475 134.91 176.564C135.18 177.013 135.54 177.64 136.08 177.819C136.619 177.999 137.249 177.909 137.789 177.819C142.018 177.102 146.336 176.385 150.565 175.668C150.835 175.578 151.195 176.026 151.555 176.206C151.285 176.475 151.105 177.013 150.835 177.102C147.146 177.819 143.457 178.357 139.858 178.985C139.229 179.075 138.599 178.985 138.059 179.164C137.519 179.344 137.159 179.881 136.709 180.24C137.249 180.688 137.699 181.406 138.239 181.585C139.229 181.854 140.308 181.675 141.388 181.675C144.537 181.675 147.686 181.675 150.835 181.764C151.285 181.764 151.735 182.212 152.184 182.481C151.735 182.75 151.375 183.378 150.925 183.378C148.046 183.468 145.257 183.468 142.378 183.468C141.658 183.468 140.848 183.468 140.128 183.468C139.318 183.557 138.239 183.199 138.149 184.633C138.059 185.799 138.779 186.157 139.768 186.247C143.457 186.785 147.146 187.412 150.745 188.13C151.015 188.219 151.195 188.757 151.465 189.026C151.105 189.205 150.745 189.654 150.475 189.654C147.956 189.205 145.527 188.757 143.007 188.309C142.018 188.13 140.938 187.95 139.858 188.04C139.318 188.13 138.329 188.667 138.329 189.026C138.239 189.564 138.779 190.46 139.319 190.64C142.108 191.626 144.987 192.433 147.776 193.509C148.676 193.778 150.115 194.853 150.115 194.943C149.215 196.736 148.046 195.212 147.146 194.943C144.717 194.316 142.378 193.329 139.948 192.612C139.498 192.523 138.689 192.702 138.419 193.06C138.149 193.509 138.239 194.316 138.509 194.674C139.049 195.302 139.858 195.84 140.578 196.198C142.827 197.364 145.077 198.529 147.326 199.784C147.596 199.964 147.686 200.502 147.776 200.86C147.416 200.95 146.876 201.219 146.606 201.129C144.177 199.426 141.568 198.081 138.869 196.736ZM134.73 205.343C136.259 203.55 136.619 201.398 136.709 199.246C136.709 194.764 136.799 190.281 136.709 185.888C136.709 184.543 136.439 183.199 135.99 182.033C131.581 170.468 121.234 166.434 111.787 166.344C106.299 166.254 100.901 167.868 96.3121 171.364C90.5539 175.757 86.8651 181.137 87.135 188.757C87.225 191.985 87.135 195.302 87.135 198.619C87.135 200.771 87.4049 202.922 89.0244 204.626C89.1144 206.957 90.464 208.57 92.1734 210.184C92.7132 208.839 92.6233 207.763 91.5436 206.867C90.6439 206.15 89.7442 205.522 88.7545 204.805C88.6645 202.474 88.8445 200.322 91.1837 198.977C91.7236 198.619 92.2634 197.902 92.3533 197.274C92.5333 196.019 93.2531 195.84 94.2428 195.84C96.492 195.84 98.7413 195.929 100.991 195.84C105.399 195.571 108.638 193.509 110.528 189.474C110.977 188.398 111.337 187.323 111.877 186.068C112.327 186.605 112.777 186.874 112.867 187.233C114.846 193.509 117.995 195.84 124.653 195.84C126.273 195.84 127.982 195.75 129.602 195.929C130.141 196.019 130.771 196.467 131.221 196.915C131.851 197.543 132.121 198.44 132.751 198.888C134.28 199.874 135 201.219 134.91 203.012C134.82 203.908 134.91 204.805 134.91 205.701C132.481 206.419 130.501 207.494 131.671 210.991C132.841 208.839 134.64 207.584 134.73 205.343ZM97.1218 230.446C97.1218 230.177 97.1218 229.908 97.1218 229.639C95.3224 229.011 93.523 228.294 91.7236 227.846C77.688 224.618 63.6524 221.391 49.5269 218.163C46.3779 217.446 43.1389 216.729 39.8999 216.191C37.9206 215.922 36.3011 217.267 35.9412 219.06C35.5813 220.673 36.3911 222.377 38.1005 223.094C39.1802 223.542 40.3498 223.901 41.5194 224.08C52.6759 226.591 63.9223 229.011 75.0788 231.432C75.6186 231.521 76.1585 231.88 76.6983 232.149C76.8782 232.239 76.8782 232.597 76.9682 232.866C76.9682 232.956 76.7883 233.135 76.6083 233.135C75.7086 233.135 74.8089 233.135 73.9092 232.956C68.4209 231.701 62.9327 230.356 57.3544 229.101C55.465 228.653 53.5756 228.115 51.6862 227.846C49.347 227.487 47.4576 228.742 46.9177 230.894C46.4679 232.508 47.5475 234.032 49.6169 234.839C50.6066 235.197 51.5962 235.466 52.5859 235.735C56.6347 236.632 60.6834 237.528 64.7321 238.514C69.0507 239.501 73.4593 240.487 77.778 241.563C78.1379 241.652 78.3178 242.19 78.6777 242.459C78.3178 242.638 77.8679 242.997 77.598 242.907C74.0891 242.19 70.6702 241.383 67.1613 240.666C64.5521 240.128 61.943 239.59 59.2438 239.321C57.4444 239.142 56.6347 240.487 56.0948 242.011C55.645 243.266 56.3647 244.969 57.7143 245.687C58.4341 246.135 59.3338 246.314 60.2335 246.493C66.8914 248.018 73.5493 249.542 80.2072 251.066C80.6571 251.155 81.0169 251.783 81.3768 252.142C80.927 252.321 80.3871 252.769 79.9373 252.679C78.0479 252.321 76.1585 251.783 74.2691 251.424C72.1098 250.976 69.9504 250.348 67.7011 250.08C65.8117 249.811 64.1023 251.245 63.7424 252.948C63.3825 254.473 64.1923 256.176 65.8117 256.983C66.8914 257.431 68.061 257.79 69.2307 258.059C73.0994 258.955 77.0582 259.941 81.0169 260.748C82.5465 261.107 84.1659 261.107 85.6955 261.196C85.6055 259.762 85.5155 258.328 85.4255 256.893C85.3356 255.817 85.3356 254.831 85.3356 253.755C85.0657 249.273 84.7957 244.88 84.5258 240.397C84.5258 239.68 84.4359 238.873 84.5258 238.156C84.7957 235.556 85.8754 233.673 88.5746 232.956C91.5436 232.239 94.3327 231.342 97.1218 230.446ZM126.722 230.177C127.982 230.625 128.972 231.073 130.141 231.432C131.851 231.97 133.56 232.418 135.27 233.046C137.879 233.942 139.498 235.735 139.319 238.694C139.229 241.114 139.229 243.445 139.049 245.866C138.779 250.617 138.509 255.369 138.239 260.121C138.149 261.555 138.869 261.734 140.218 261.376C144.987 260.21 149.845 259.224 154.614 258.148C155.783 257.879 156.953 257.61 158.033 257.072C159.472 256.355 160.192 255.1 160.012 253.397C159.832 251.783 158.392 250.348 156.773 250.259C155.783 250.169 154.704 250.438 153.714 250.707C150.205 251.424 146.696 252.231 143.277 252.859C143.007 252.948 142.647 252.5 142.468 252.231C142.378 252.142 142.737 251.783 143.007 251.604C143.277 251.424 143.547 251.335 143.817 251.335C149.665 250.08 155.423 248.824 161.272 247.569C162.891 247.211 164.421 246.762 165.95 246.135C167.48 245.507 168.109 244.162 168.019 242.549C167.929 241.114 166.22 239.68 164.6 239.59C163.701 239.501 162.801 239.59 161.901 239.769C157.403 240.756 152.904 241.831 148.406 242.818C147.686 242.997 146.966 243.176 146.246 243.176C145.976 243.176 145.617 242.818 145.257 242.638C145.437 242.369 145.617 242.1 145.796 242.011C146.336 241.742 146.876 241.652 147.506 241.473C155.333 239.68 163.161 237.887 170.988 236.094C172.338 235.825 173.598 235.556 174.857 235.018C176.477 234.301 177.376 232.597 177.017 231.073C176.657 229.37 175.037 228.025 173.058 228.115C172.338 228.115 171.618 228.294 170.898 228.473C163.971 230.087 157.043 231.701 150.025 233.314C149.035 233.494 148.046 233.314 146.246 233.314C147.416 232.508 147.956 231.97 148.496 231.79C159.562 229.28 170.539 226.859 181.605 224.439C183.045 224.08 184.484 223.722 185.924 223.273C187.543 222.735 188.173 221.48 188.083 219.777C187.993 218.074 186.734 216.639 185.024 216.46C184.124 216.37 183.225 216.46 182.325 216.639C166.67 220.225 151.015 223.722 135.36 227.397C132.481 227.846 129.422 227.935 126.722 230.177ZM111.967 190.729C108.368 195.929 103.69 197.633 98.0216 197.274C97.3018 197.184 96.4921 197.184 95.7723 197.274C95.2324 197.364 94.4227 197.812 94.4227 198.081C94.5127 199.784 93.0731 199.695 92.0834 200.233C90.0141 201.488 90.0141 203.998 92.2634 204.626C93.8829 205.074 94.1528 205.612 94.2428 207.136C94.6026 212.336 96.9419 216.46 101.53 219.239C107.559 222.825 113.857 223.184 120.245 220.315C125.733 217.894 128.972 213.77 129.422 207.674C129.512 206.06 130.141 205.432 131.491 204.715C133.65 203.55 133.56 201.577 131.581 200.233C130.951 199.784 129.692 199.426 129.602 198.888C129.332 197.184 128.162 197.364 126.902 197.274C124.833 197.184 122.674 197.364 120.694 196.915C117.186 196.288 114.396 194.136 111.967 190.729ZM142.198 264.514C149.035 262.99 156.593 261.465 164.061 259.672C165.68 259.314 167.12 257.79 166.94 256.086C166.76 254.831 165.59 253.576 164.511 252.679C163.161 251.514 161.991 252.052 161.901 253.935C161.721 257.252 159.652 258.597 156.773 259.224C152.544 260.121 148.406 261.017 144.177 262.003C142.737 262.362 141.298 262.721 139.858 263.079C139.678 263.169 139.498 263.527 139.588 263.796C139.588 263.976 139.858 264.334 140.128 264.334C140.578 264.424 141.028 264.424 142.198 264.514ZM81.8267 264.424C82.1866 264.424 82.5465 264.514 82.8164 264.424C83.3562 264.245 83.8061 263.976 84.2559 263.796C83.896 263.438 83.5361 262.99 83.0863 262.9C78.2278 261.734 73.2794 260.39 68.331 259.493C64.6421 258.865 62.2129 257.431 61.943 253.397C61.853 252.231 60.9533 252.142 59.9636 252.59C57.8043 253.576 57.0845 254.652 57.3544 256.714C57.6243 258.417 58.794 259.583 60.9533 260.121C65.9917 261.286 71.1201 262.452 76.1585 263.617C78.0479 263.886 80.0273 264.155 81.8267 264.424ZM195.101 221.57C194.651 220.853 194.111 219.956 193.391 219.239C191.592 217.536 190.152 217.894 189.793 220.404C189.343 223.453 187.273 224.529 184.664 225.156C182.415 225.694 180.076 226.322 177.826 226.949C177.556 227.039 177.286 227.666 177.376 227.935C177.556 228.294 178.096 228.653 178.366 228.563C182.955 227.577 187.633 226.68 192.222 225.425C193.841 225.066 194.921 223.632 195.101 221.57ZM47.1876 227.487C46.9177 227.308 46.6478 226.949 46.3779 226.859C44.1286 226.232 41.7893 225.515 39.5401 225.156C36.571 224.618 34.7716 223.184 34.1418 220.136C33.6919 218.074 32.7022 217.805 31.0827 218.88C28.3836 220.673 28.6535 223.722 31.5326 225.156C32.3423 225.515 33.242 225.784 34.0518 225.963C37.4707 226.77 40.9796 227.577 44.3985 228.384C45.0283 228.563 45.8381 228.384 46.4679 228.294C46.6478 228.204 46.8278 227.846 47.1876 227.487ZM54.5653 239.949C54.9252 239.769 55.465 239.411 56.0948 239.052C55.555 238.604 55.1051 238.066 54.4753 237.797C53.2157 237.349 51.8662 236.99 50.6066 236.901C47.5475 236.542 45.6581 235.287 45.4782 231.88C45.3882 229.728 43.7687 229.28 42.0593 230.625C40.7997 231.611 39.8999 232.956 40.4398 234.48C40.7997 235.645 41.8793 237.08 42.869 237.349C46.5578 238.425 50.4266 239.052 54.5653 239.949ZM169.369 240.038C173.508 239.052 177.466 238.335 181.245 237.259C182.685 236.811 183.585 235.466 183.585 233.763C183.585 232.059 182.865 230.983 181.245 230.356C180.076 229.818 178.996 229.997 178.906 231.342C178.546 235.466 175.667 236.632 172.338 237.349C171.348 237.528 170.269 237.618 169.279 237.887C168.829 238.066 168.199 238.694 168.289 238.963C168.379 239.411 169.009 239.769 169.369 240.038ZM174.497 244.79C174.317 244.342 174.227 243.445 173.778 242.997C172.968 242.28 171.888 241.742 170.809 241.473C170.629 241.383 169.819 242.728 169.639 243.535C168.829 246.224 166.94 247.749 164.331 248.286C163.341 248.466 162.261 248.735 161.362 249.093C161.002 249.183 160.732 249.631 160.462 249.9C160.912 250.259 161.451 250.976 161.811 250.886C165.32 250.169 168.739 249.362 172.158 248.466C173.778 248.018 174.317 246.673 174.497 244.79ZM64.0123 249.811C62.9327 249.273 62.2129 248.645 61.4931 248.555C57.8043 248.107 54.7452 247.121 54.4753 242.638C54.3854 241.652 53.4856 241.204 52.406 241.563C50.9664 242.1 49.6169 242.818 49.4369 244.521C49.257 246.045 50.0667 247.838 51.8662 248.376C55.2851 249.452 58.794 250.169 62.2129 250.886C62.6627 250.976 63.2026 250.348 64.0123 249.811Z" fill="#2B2B2B" style="mix-blend-mode:color-burn"/>
<path d="M112.057 244.701C114.216 248.825 116.105 252.5 117.995 256.176C119.254 258.687 120.604 261.197 121.863 263.707C122.403 264.693 122.313 265.5 120.964 265.5C114.846 265.5 108.728 265.5 102.61 265.41C102.34 265.41 101.8 264.693 101.8 264.245C101.8 263.707 102.25 263.169 102.52 262.631C105.579 256.893 108.638 251.066 112.057 244.701ZM112.057 248.197C109.447 253.128 107.108 257.431 104.859 261.824C104.409 262.631 103.959 263.707 105.399 263.707C109.717 263.797 114.036 263.797 118.355 263.707C119.344 263.707 119.614 262.99 119.254 262.183C117.005 257.79 114.666 253.307 112.057 248.197Z" fill="#2B2B2B" style="mix-blend-mode:color-burn"/>
<path d="M108.638 199.785C108.638 197.454 109.538 196.468 111.697 196.288C113.947 196.199 115.746 197.902 115.656 200.053C115.566 201.667 113.857 203.37 112.147 203.46C110.258 203.639 108.638 202.026 108.638 199.785ZM114.756 200.053C113.497 199.157 112.867 198.35 112.057 198.171C110.977 197.902 110.078 198.798 109.988 199.874C109.898 201.04 110.798 201.846 111.877 201.757C112.687 201.667 113.407 200.86 114.756 200.053Z" fill="#2B2B2B" style="mix-blend-mode:color-burn"/>
<path d="M112.866 213.412C113.406 213.591 114.576 213.86 115.745 214.219C114.935 216.191 113.226 214.936 111.966 215.205C110.797 215.384 109.627 215.115 108.458 215.026C108.278 215.026 108.098 214.577 108.098 214.398C108.098 214.129 108.368 213.771 108.548 213.771C109.807 213.591 110.977 213.502 112.866 213.412Z" fill="#2B2B2B" style="mix-blend-mode:color-burn"/>
<path d="M98.9219 205.074C99.1018 204.895 99.3717 204.536 99.5517 204.626C101.081 205.253 102.611 205.074 104.14 204.536C104.32 204.446 104.77 204.715 104.86 204.895C104.95 205.074 104.95 205.522 104.77 205.701C103.241 207.225 100.811 207.225 99.1918 205.791C99.0118 205.791 99.0118 205.432 98.9219 205.074Z" fill="#2B2B2B" style="mix-blend-mode:color-burn"/>
<path d="M120.605 204.984C121.954 204.805 123.304 204.626 124.653 204.536C124.923 204.536 125.283 204.715 125.373 204.895C125.463 205.074 125.283 205.433 125.103 205.612C123.394 207.046 121.954 207.225 119.885 206.06C119.525 205.881 119.345 205.433 119.075 205.074C119.525 204.805 119.975 204.626 120.335 204.357C120.425 204.626 120.515 204.805 120.605 204.984Z" fill="#2B2B2B" style="mix-blend-mode:color-burn"/>
<path d="M112.417 209.646C112.867 210.004 113.227 210.273 113.587 210.542C112.957 210.811 112.417 211.349 111.787 211.439C111.427 211.528 110.978 210.901 110.618 210.632C111.247 210.273 111.787 210.004 112.417 209.646Z" fill="#2B2B2B" style="mix-blend-mode:color-burn"/>
<path d="M51.992 350.514V343.485H54.4298V341.671H47.3125V343.485H49.7503V350.514H51.992Z" fill="#2B2B2B" style="mix-blend-mode:color-burn"/>
<path d="M66.4544 348.7H62.6446V346.899H66.2277V345.244H62.6446V343.485H66.4544V341.671H60.3967V350.514H66.4544V348.7Z" fill="#2B2B2B" style="mix-blend-mode:color-burn"/>
<path d="M82.4418 350.514V341.671H79.8448L77.6153 347.45H77.5663L75.3368 341.671H72.7398V350.514H74.7182V344.993H74.7672L76.9477 350.514H78.234L80.4206 344.993H80.4635V350.514H82.4418Z" fill="#2B2B2B" style="mix-blend-mode:color-burn"/>
<path d="M88.7947 341.671V350.514H91.0426V347.922H92.4881C94.4542 347.922 95.8078 346.69 95.8078 344.803C95.8078 342.903 94.5216 341.671 92.6228 341.671H88.7947ZM91.0426 343.393H92.0287C92.9719 343.393 93.5354 343.89 93.5354 344.809C93.5354 345.734 92.9719 346.231 92.0164 346.231H91.0426V343.393Z" fill="#2B2B2B" style="mix-blend-mode:color-burn"/>
<path d="M107.881 348.7H104.072V346.899H107.655V345.244H104.072V343.485H107.881V341.671H101.824V350.514H107.881V348.7Z" fill="#2B2B2B" style="mix-blend-mode:color-burn"/>
<path d="M116.415 343.369H117.726C118.528 343.369 119.049 343.878 119.049 344.631C119.049 345.397 118.559 345.881 117.732 345.881H116.415V343.369ZM116.415 347.42H117.56L119.079 350.514H121.603L119.833 347.089C120.8 346.666 121.345 345.673 121.345 344.588C121.345 342.762 120.157 341.671 117.952 341.671H114.167V350.514H116.415V347.42Z" fill="#2B2B2B" style="mix-blend-mode:color-burn"/>
<path d="M133.303 350.514H135.691L132.721 341.671H129.971L127 350.514H129.291L129.854 348.572H132.745L133.303 350.514ZM131.275 343.547H131.324L132.304 346.954H130.289L131.275 343.547Z" fill="#2B2B2B" style="mix-blend-mode:color-burn"/>
<path d="M143.692 350.514V345.324H143.741L147.508 350.514H149.284V341.671H147.152V346.813H147.103L143.355 341.671H141.56V350.514H143.692Z" fill="#2B2B2B" style="mix-blend-mode:color-burn"/>
<path d="M159.692 350.667C161.97 350.667 163.599 349.282 163.703 347.181H161.541C161.4 348.216 160.684 348.866 159.698 348.866C158.46 348.866 157.689 347.818 157.689 346.084C157.689 344.368 158.467 343.32 159.692 343.32C160.678 343.32 161.419 344.006 161.529 345.048H163.691C163.624 342.958 161.927 341.518 159.692 341.518C157.058 341.518 155.398 343.203 155.398 346.09C155.398 348.982 157.046 350.667 159.692 350.667Z" fill="#2B2B2B" style="mix-blend-mode:color-burn"/>
<path d="M175.832 348.7H172.022V346.899H175.606V345.244H172.022V343.485H175.832V341.671H169.775V350.514H175.832V348.7Z" fill="#2B2B2B" style="mix-blend-mode:color-burn"/>
<path d="M96.3008 41.2373H98.6895L100.411 38.3693H100.46L102.175 41.2373H104.698L101.911 36.825V36.7821L104.723 32.3944H102.23L100.594 35.3849H100.552L98.9284 32.3944H96.3069L99.0019 36.7576V36.8067L96.3008 41.2373Z" fill="#2B2B2B" style="mix-blend-mode:color-burn"/>
<path d="M112.907 41.2373V32.3944H110.659V41.2373H112.907Z" fill="#2B2B2B" style="mix-blend-mode:color-burn"/>
<path d="M124.423 41.2373L127.241 32.3944H124.778L123.082 39.0373H123.033L121.33 32.3944H118.776L121.593 41.2373H124.423Z" fill="#2B2B2B" style="mix-blend-mode:color-burn"/>
<defs>
<linearGradient id="paint0_linear_163_4836" x1="112" y1="0" x2="112" y2="383.683" gradientUnits="userSpaceOnUse">
<stop stop-color="#E75267"/>
<stop offset="1" stop-color="#EC928A"/>
</linearGradient>
</defs>
</svg>
