<svg width="375" height="768" viewBox="0 0 375 768" fill="none" xmlns="http://www.w3.org/2000/svg">
<mask id="mask0_0_1938" style="mask-type:alpha" maskUnits="userSpaceOnUse" x="0" y="0" width="375" height="768">
<path d="M0 51.2C0 33.2783 0 24.3175 3.48779 17.4723C6.55574 11.4511 11.4511 6.55574 17.4723 3.48779C24.3175 0 33.2783 0 51.2 0H323.8C341.722 0 350.683 0 357.528 3.48779C363.549 6.55574 368.444 11.4511 371.512 17.4723C375 24.3175 375 33.2783 375 51.2V768H0V51.2Z" fill="#F3F6F8"/>
</mask>
<g mask="url(#mask0_0_1938)">
<g opacity="0.4">
<circle cx="178" cy="49" r="250" fill="#FAF8F4"/>
<mask id="mask1_0_1938" style="mask-type:alpha" maskUnits="userSpaceOnUse" x="0" y="-84" width="388" height="398">
<rect y="-83.9999" width="388" height="398" fill="url(#paint0_linear_0_1938)"/>
</mask>
<g mask="url(#mask1_0_1938)">
<path d="M93.3274 270.361C-39.8496 234.676 -119.013 97.3837 -83.3609 -35.6726C-47.6762 -168.85 89.616 -248.013 222.672 -212.361C355.849 -176.676 435.013 -39.384 399.361 93.6723C363.676 226.849 226.504 306.045 93.3274 270.361ZM222.349 -211.153C89.8961 -246.644 -46.6629 -167.802 -82.1535 -35.349C-117.644 97.1035 -38.8016 233.663 93.6509 269.153C226.104 304.644 362.663 225.801 398.153 93.3487C433.644 -39.1038 354.801 -175.663 222.349 -211.153Z" fill="#4E5150"/>
<path d="M96.3368 259.132C-30.5617 225.129 -106.134 94.2347 -72.1314 -32.6638C-38.1291 -159.562 92.7656 -235.134 219.664 -201.132C346.563 -167.13 422.135 -36.235 388.132 90.6635C354.13 217.562 223.235 293.134 96.3368 259.132ZM219.341 -199.925C93.1665 -233.733 -37.0834 -158.635 -70.924 -32.3402C-104.765 93.9546 -29.6345 224.084 96.6603 257.924C222.955 291.765 353.084 216.635 386.925 90.34C420.765 -35.9548 345.515 -166.116 219.341 -199.925Z" fill="#4E5150"/>
<path d="M112.707 198.037C19.498 173.061 -36.0118 76.9157 -11.0365 -16.2935C13.9388 -109.503 110.085 -165.013 203.294 -140.037C296.503 -115.062 352.013 -18.9161 327.038 74.2931C302.062 167.502 205.916 223.012 112.707 198.037ZM203.021 -139.021C110.321 -163.86 14.7919 -108.621 -10.02 -16.0212C-34.832 76.5782 20.2786 172.181 112.98 197.02C205.681 221.859 301.182 166.722 326.021 74.0208C350.86 -18.6802 295.722 -114.182 203.021 -139.021Z" fill="#4E5150"/>
<path d="M88.4021 262.182C88.5962 261.457 89.3293 261.136 89.933 261.298C90.6574 261.492 90.9786 262.225 90.8169 262.829C90.6228 263.553 89.8896 263.875 89.2859 263.713C88.6822 263.551 88.2403 262.786 88.4021 262.182ZM99.5102 265.158C99.7043 264.434 100.317 264.08 101.041 264.274C101.766 264.469 102.119 265.081 101.925 265.805C101.731 266.53 101.119 266.883 100.394 266.689C99.6696 266.495 99.3161 265.883 99.5102 265.158ZM78.4279 260.286C77.8242 260.124 77.3823 259.359 77.6972 258.666C77.8913 257.942 78.6244 257.621 79.3165 257.936C80.0409 258.13 80.3621 258.863 80.0473 259.555C79.7648 260.126 79.1524 260.48 78.4279 260.286ZM110.627 267.619C110.821 266.895 111.434 266.541 112.07 266.582C112.794 266.777 113.148 267.389 113.107 268.025C112.912 268.749 112.3 269.103 111.664 269.062L111.543 269.03C110.907 268.989 110.433 268.344 110.627 267.619ZM67.611 256.223C67.0396 255.94 66.5977 255.175 66.8802 254.603C67.195 253.911 67.9281 253.59 68.4995 253.873C69.1916 254.187 69.5128 254.921 69.2303 255.492C68.9478 256.063 68.3354 256.417 67.7317 256.255C67.7317 256.255 67.7317 256.255 67.611 256.223ZM121.873 269.598C121.947 268.841 122.591 268.366 123.316 268.561C124.073 268.634 124.547 269.279 124.353 270.003C124.279 270.76 123.635 271.234 122.91 271.04L122.789 271.008C122.186 270.846 121.711 270.201 121.873 269.598ZM57.1325 251.862C56.5612 251.58 56.24 250.846 56.5225 250.275C56.8373 249.583 57.5381 249.383 58.2302 249.697C58.9223 250.012 59.1227 250.713 58.8079 251.405C58.5254 251.976 57.9453 252.209 57.3416 252.048C57.2533 251.894 57.1325 251.862 57.1325 251.862ZM133.128 271.06C133.202 270.304 133.846 269.829 134.482 269.87C135.118 269.911 135.713 270.588 135.672 271.224C135.631 271.861 134.954 272.456 134.318 272.415C134.318 272.415 134.197 272.382 134.077 272.35C133.473 272.188 133.087 271.696 133.128 271.06ZM46.6951 246.865C46.003 246.551 45.8026 245.85 46.1174 245.158C46.3999 244.586 47.2538 244.298 47.8251 244.58C48.5172 244.895 48.6853 245.716 48.4028 246.288C48.1203 246.859 47.5403 247.092 46.9366 246.93C46.9366 246.93 46.8159 246.898 46.6951 246.865ZM144.512 272.04C144.586 271.283 145.11 270.777 145.867 270.85C146.503 270.891 147.13 271.448 147.057 272.204C146.983 272.961 146.459 273.468 145.703 273.394C145.582 273.362 145.582 273.362 145.461 273.33C144.89 273.047 144.504 272.556 144.512 272.04ZM36.6286 241.451C36.0572 241.168 35.7684 240.314 36.1716 239.775C36.4541 239.204 37.308 238.915 37.847 239.318C38.4183 239.601 38.7072 240.455 38.3039 240.994C38.0214 241.565 37.4414 241.798 36.8377 241.636C36.8701 241.515 36.7493 241.483 36.6286 241.451ZM155.938 272.384C155.979 271.748 156.535 271.121 157.171 271.162C157.807 271.203 158.435 271.759 158.394 272.395C158.353 273.031 157.796 273.658 157.16 273.617C157.039 273.585 156.919 273.553 156.798 273.52C156.315 273.391 155.929 272.899 155.938 272.384ZM26.8446 235.464C26.3056 235.061 26.1051 234.36 26.42 233.668C26.8232 233.129 27.524 232.929 28.2161 233.244C28.7551 233.647 28.9555 234.348 28.6407 235.04C28.3905 235.49 27.8105 235.723 27.2068 235.561C27.0537 235.65 26.9329 235.617 26.8446 235.464ZM167.251 272.18C167.171 271.512 167.728 270.884 168.517 270.837C169.185 270.757 169.813 271.314 169.86 272.103C169.94 272.771 169.383 273.399 168.594 273.446C168.473 273.414 168.353 273.381 168.232 273.349C167.749 273.22 167.363 272.728 167.251 272.18ZM17.2783 229.148C16.7394 228.745 16.5712 227.923 16.9745 227.384C17.3777 226.845 18.1992 226.677 18.7382 227.08C19.2772 227.484 19.4453 228.305 19.0421 228.844C18.6712 229.263 18.2119 229.528 17.6082 229.366C17.5198 229.213 17.3991 229.18 17.2783 229.148ZM178.694 271.493C178.614 270.825 179.17 270.198 179.839 270.118C180.507 270.038 181.135 270.594 181.214 271.263C181.294 271.931 180.738 272.559 180.069 272.638C179.948 272.606 179.795 272.694 179.554 272.63C179.071 272.5 178.685 272.009 178.694 271.493ZM7.99463 222.261C7.45563 221.857 7.28752 221.036 7.8115 220.529C8.21475 219.99 9.03623 219.822 9.54288 220.346C10.0819 220.749 10.25 221.571 9.726 222.077C9.35511 222.496 8.9282 222.64 8.44524 222.511C8.3245 222.478 8.20376 222.446 7.99463 222.261ZM190.024 270.259C189.945 269.59 190.38 268.931 191.049 268.851C191.717 268.771 192.377 269.207 192.456 269.875C192.536 270.544 192.101 271.203 191.432 271.283C191.279 271.372 191.038 271.307 190.917 271.274C190.434 271.145 190.016 270.774 190.024 270.259ZM-0.797462 214.987C-1.33646 214.584 -1.38383 213.795 -0.980585 213.256C-0.577342 212.717 0.211807 212.669 0.750806 213.073C1.28981 213.476 1.33717 214.265 0.933929 214.804C0.56303 215.222 0.136103 215.367 -0.34686 215.237C-0.588356 215.173 -0.709082 215.14 -0.797462 214.987ZM201.243 268.477C201.163 267.808 201.599 267.149 202.267 267.069C202.935 266.989 203.595 267.425 203.796 268.125C203.875 268.794 203.44 269.454 202.771 269.533C202.618 269.622 202.377 269.557 202.256 269.525C201.652 269.363 201.355 269.024 201.243 268.477ZM-9.37175 207.384C-9.8784 206.86 -9.92578 206.071 -9.40178 205.564C-8.8778 205.058 -8.08866 205.01 -7.58201 205.534C-7.07537 206.058 -7.02799 206.847 -7.55197 207.354C-7.89052 207.651 -8.31744 207.796 -8.8004 207.666C-9.04188 207.602 -9.28337 207.537 -9.37175 207.384ZM212.349 266.147C212.149 265.446 212.584 264.786 213.285 264.586C213.986 264.385 214.646 264.821 214.846 265.522C215.047 266.223 214.611 266.882 213.91 267.083C213.636 267.139 213.516 267.106 213.274 267.042C212.88 267.065 212.461 266.695 212.349 266.147ZM-17.5752 199.362C-18.0818 198.838 -18.0084 198.082 -17.6052 197.543C-17.0812 197.036 -16.3244 197.109 -15.8178 197.633C-15.3111 198.157 -15.3845 198.914 -15.9085 199.421C-16.247 199.718 -16.6739 199.863 -17.1569 199.733C-17.2453 199.58 -17.4868 199.516 -17.5752 199.362ZM223.432 263.422C223.232 262.722 223.667 262.062 224.247 261.829C224.948 261.629 225.608 262.064 225.808 262.765C226.009 263.466 225.573 264.126 224.872 264.326C224.598 264.382 224.478 264.35 224.236 264.285C223.874 264.188 223.576 263.849 223.432 263.422ZM-25.3753 190.802C-25.882 190.278 -25.8086 189.521 -25.2846 189.014C-24.7606 188.508 -24.0038 188.581 -23.4972 189.105C-22.9905 189.629 -23.0639 190.386 -23.5879 190.893C-23.9264 191.19 -24.3534 191.335 -24.7156 191.238C-24.9571 191.173 -25.1985 191.108 -25.3753 190.802ZM234.314 259.997C234.114 259.297 234.429 258.604 235.129 258.404C235.83 258.204 236.522 258.518 236.723 259.219C236.923 259.92 236.608 260.612 235.908 260.812C235.634 260.869 235.36 260.925 235.118 260.86C234.756 260.763 234.459 260.424 234.314 259.997ZM-32.7485 182.097C-33.1344 181.605 -33.1495 180.695 -32.5371 180.342C-32.0131 179.835 -31.1679 180.062 -30.782 180.553C-30.3961 181.045 -30.5018 181.923 -30.9935 182.308C-31.332 182.606 -31.7266 182.63 -32.0888 182.533C-32.3303 182.468 -32.5394 182.282 -32.7485 182.097ZM245.052 256.145C244.819 255.565 245.167 254.752 245.747 254.52C246.327 254.287 247.139 254.634 247.372 255.214C247.573 255.915 247.258 256.607 246.678 256.84C246.404 256.896 246.13 256.952 245.889 256.887C245.494 256.911 245.197 256.572 245.052 256.145ZM-39.7509 172.974C-40.1368 172.482 -40.0311 171.605 -39.4187 171.251C-38.9271 170.865 -38.0495 170.971 -37.696 171.583C-37.3101 172.075 -37.4158 172.952 -38.0282 173.306C-38.3343 173.483 -38.7613 173.627 -39.1235 173.53C-39.3326 173.345 -39.5418 173.159 -39.7509 172.974ZM255.646 251.866C255.413 251.286 255.639 250.441 256.34 250.241C256.92 250.008 257.765 250.234 257.966 250.935C258.319 251.547 257.972 252.36 257.392 252.593C257.086 252.77 256.844 252.705 256.603 252.64C256.12 252.511 255.79 252.293 255.646 251.866ZM-46.2939 163.585C-46.6475 162.973 -46.5741 162.216 -45.9617 161.863C-45.3494 161.509 -44.5926 161.582 -44.239 162.195C-43.8855 162.807 -43.9588 163.564 -44.5712 163.918C-44.8774 164.094 -45.272 164.118 -45.6342 164.021C-45.7549 163.989 -46.0848 163.771 -46.2939 163.585ZM265.853 247.096C265.5 246.483 265.847 245.67 266.427 245.438C267.039 245.084 267.852 245.431 268.085 246.011C268.438 246.624 268.091 247.436 267.511 247.669C267.205 247.846 266.931 247.902 266.569 247.805C266.36 247.62 266.03 247.402 265.853 247.096ZM-52.3454 153.811C-52.6989 153.199 -52.5048 152.474 -51.8924 152.121C-51.2801 151.767 -50.5556 151.961 -50.2021 152.574C-49.8485 153.186 -50.0426 153.91 -50.655 154.264C-50.9612 154.441 -51.3558 154.465 -51.5972 154.4C-51.8387 154.335 -52.1686 154.117 -52.3454 153.811ZM276.069 241.81C275.716 241.197 275.91 240.473 276.522 240.119C277.135 239.766 277.859 239.96 278.213 240.572C278.566 241.185 278.372 241.909 277.76 242.263C277.454 242.439 277.18 242.495 276.818 242.398C276.455 242.301 276.246 242.116 276.069 241.81ZM-57.9699 143.892C-58.3234 143.28 -58.1293 142.556 -57.5169 142.202C-56.9046 141.848 -56.1801 142.043 -55.8266 142.655C-55.473 143.267 -55.7879 143.959 -56.4002 144.313C-56.7064 144.49 -56.9803 144.546 -57.3425 144.449C-57.4632 144.416 -57.7931 144.199 -57.9699 143.892ZM285.9 236.032C285.546 235.42 285.74 234.695 286.353 234.342C286.965 233.988 287.689 234.182 288.043 234.795C288.397 235.407 288.202 236.131 287.59 236.485C287.284 236.662 286.889 236.685 286.648 236.621C286.286 236.524 286.077 236.338 285.9 236.032ZM-63.1027 133.588C-63.4563 132.975 -63.1091 132.163 -62.5291 131.93C-61.9167 131.576 -61.1039 131.923 -60.871 132.503C-60.5175 133.116 -60.8647 133.929 -61.4447 134.162C-61.7509 134.338 -61.9924 134.274 -62.2339 134.209C-62.6285 134.233 -62.926 133.894 -63.1027 133.588ZM295.465 229.795C295.111 229.183 295.185 228.426 295.797 228.072C296.409 227.719 297.166 227.792 297.52 228.405C297.873 229.017 297.8 229.774 297.188 230.127C296.881 230.304 296.454 230.449 296.092 230.351C295.883 230.166 295.642 230.101 295.465 229.795ZM-67.8087 123.139C-68.0415 122.559 -67.815 121.714 -67.1143 121.513C-66.5343 121.28 -65.6891 121.507 -65.4886 122.208C-65.2558 122.788 -65.4823 123.633 -66.183 123.833C-66.4569 123.889 -66.7307 123.945 -66.9722 123.881C-67.3344 123.784 -67.6319 123.445 -67.8087 123.139ZM304.644 223.067C304.258 222.575 304.364 221.697 304.856 221.312C305.347 220.926 306.225 221.031 306.611 221.523C306.997 222.015 306.891 222.892 306.399 223.278C306.061 223.576 305.666 223.599 305.304 223.502C305.183 223.47 304.821 223.373 304.644 223.067ZM-71.9346 112.457C-72.1674 111.877 -71.8202 111.064 -71.2402 110.831C-70.5394 110.631 -69.8473 110.946 -69.6145 111.526C-69.4141 112.226 -69.7289 112.919 -70.3089 113.151C-70.5828 113.207 -70.8566 113.263 -71.0981 113.199C-71.4603 113.102 -71.7902 112.884 -71.9346 112.457ZM313.647 216.032C313.14 215.508 313.246 214.63 313.858 214.277C314.382 213.77 315.139 213.844 315.613 214.488C316.12 215.012 316.014 215.89 315.402 216.243C315.063 216.541 314.669 216.565 314.306 216.468C314.065 216.403 313.856 216.217 313.647 216.032ZM-75.6336 101.631C-75.8341 100.93 -75.5192 100.238 -74.8185 100.037C-74.1177 99.8369 -73.4256 100.152 -73.2251 100.853C-73.0247 101.553 -73.3395 102.245 -74.0403 102.446C-74.3141 102.502 -74.588 102.558 -74.7087 102.526C-75.0386 102.308 -75.4892 102.058 -75.6336 101.631ZM322.263 208.506C321.756 207.982 321.83 207.225 322.354 206.718C322.878 206.212 323.635 206.285 324.141 206.809C324.648 207.333 324.575 208.09 324.051 208.596C323.712 208.894 323.285 209.038 322.802 208.909C322.681 208.876 322.472 208.691 322.263 208.506ZM-78.7526 90.5716C-78.953 89.8708 -78.5175 89.2111 -77.8167 89.0107C-77.1159 88.8102 -76.4562 89.2458 -76.2557 89.9465C-76.0553 90.6473 -76.4909 91.307 -77.1916 91.5075C-77.4655 91.5635 -77.5862 91.5312 -77.8277 91.4665C-78.3106 91.3371 -78.6082 90.9986 -78.7526 90.5716ZM330.461 200.608C329.955 200.084 329.907 199.295 330.431 198.789C330.955 198.282 331.745 198.235 332.251 198.759C332.758 199.283 332.805 200.072 332.281 200.578C331.943 200.876 331.516 201.02 331.033 200.891C330.912 200.859 330.671 200.794 330.461 200.608ZM-81.3239 79.4004C-81.5244 78.6997 -81.0888 78.04 -80.388 77.8395C-79.6872 77.639 -79.0275 78.0746 -78.8594 78.8961C-78.6589 79.5969 -79.0945 80.2566 -79.916 80.4247C-80.0691 80.5131 -80.3106 80.4484 -80.5521 80.3837C-80.9143 80.2866 -81.2118 79.9481 -81.3239 79.4004ZM338.362 192.373C337.823 191.969 337.808 191.06 338.211 190.521C338.735 190.014 339.525 189.966 340.031 190.49C340.538 191.014 340.585 191.804 340.061 192.31C339.723 192.608 339.296 192.752 338.813 192.623C338.692 192.59 338.451 192.526 338.362 192.373ZM-83.5006 68.2056C-83.5803 67.5372 -83.1447 66.8775 -82.4763 66.7977C-81.8079 66.718 -81.1482 67.1536 -81.0685 67.822C-80.9888 68.4904 -81.4243 69.1502 -82.0928 69.2299C-82.2459 69.3183 -82.4873 69.2536 -82.6081 69.2212C-82.9703 69.1242 -83.3886 68.7533 -83.5006 68.2056ZM345.845 183.766C345.306 183.363 345.258 182.574 345.662 182.035C346.065 181.496 346.854 181.448 347.393 181.851C347.932 182.255 347.979 183.044 347.576 183.583C347.205 184.001 346.778 184.146 346.295 184.016C346.175 183.984 345.965 183.798 345.845 183.766ZM-85.009 56.9311C-85.0887 56.2626 -84.5323 55.6353 -83.8639 55.5555C-83.1955 55.4758 -82.5358 55.9114 -82.4884 56.7006C-82.4087 57.369 -82.965 57.9964 -83.6334 58.0761C-83.7542 58.0437 -83.9073 58.1321 -84.1487 58.0674C-84.5994 57.8173 -85.0176 57.4464 -85.009 56.9311ZM352.909 174.788C352.37 174.385 352.202 173.564 352.605 173.025C353.008 172.486 353.83 172.318 354.369 172.721C354.908 173.124 355.076 173.946 354.673 174.485C354.302 174.903 353.875 175.047 353.392 174.918C353.151 174.853 353.03 174.821 352.909 174.788ZM-86.0903 45.5121C-86.1701 44.8437 -85.6137 44.2163 -84.9453 44.1366C-84.2769 44.0568 -83.6495 44.6132 -83.5698 45.2816C-83.4901 45.95 -84.0464 46.5774 -84.7148 46.6571C-84.8356 46.6247 -84.9887 46.7131 -85.1094 46.6808C-85.7131 46.519 -86.099 46.0274 -86.0903 45.5121ZM359.555 165.44C359.016 165.037 358.848 164.215 359.251 163.676C359.654 163.137 360.476 162.969 361.015 163.372C361.554 163.776 361.722 164.597 361.319 165.136C361.069 165.587 360.489 165.82 359.885 165.658C359.764 165.625 359.676 165.472 359.555 165.44ZM-86.6241 33.981C-86.7038 33.3126 -86.0267 32.7176 -85.3583 32.6379C-84.6899 32.5582 -84.0949 33.2352 -84.1359 33.8713C-84.0562 34.5397 -84.7333 35.1347 -85.4017 35.2145C-85.5224 35.1821 -85.6431 35.1498 -85.7639 35.1174C-86.1261 35.0204 -86.5444 34.6494 -86.6241 33.981ZM365.75 155.841C365.211 155.438 364.89 154.705 365.293 154.166C365.697 153.627 366.397 153.427 366.969 153.709C367.508 154.112 367.829 154.846 367.426 155.384C367.143 155.956 366.596 156.068 365.992 155.906C365.992 155.906 365.871 155.874 365.75 155.841ZM-86.5218 22.491C-86.4807 21.8549 -85.9244 21.2276 -85.1676 21.3009C-84.5315 21.3419 -83.9042 21.8983 -83.9775 22.6551C-84.0186 23.2912 -84.5749 23.9185 -85.3317 23.8452C-85.4524 23.8128 -85.5732 23.7804 -85.5732 23.7804C-86.1769 23.6187 -86.5628 23.1271 -86.5218 22.491ZM371.374 145.96C370.803 145.678 370.514 144.824 370.797 144.253C371.079 143.681 371.933 143.392 372.504 143.675C373.076 143.957 373.365 144.811 373.082 145.383C372.8 145.954 372.22 146.187 371.616 146.025C371.616 146.025 371.495 145.993 371.374 145.96ZM-85.9365 11.1304C-85.8631 10.3736 -85.2184 9.89928 -84.5823 9.94031C-83.8255 10.0137 -83.3512 10.6584 -83.3922 11.2945C-83.4333 11.9305 -84.1103 12.5256 -84.7464 12.4845C-84.8671 12.4522 -84.8671 12.4522 -84.9879 12.4198C-85.5916 12.2581 -85.9775 11.7665 -85.9365 11.1304ZM376.669 135.862C375.977 135.547 375.776 134.846 376.091 134.154C376.373 133.582 377.107 133.261 377.799 133.576C378.37 133.859 378.691 134.592 378.376 135.284C378.094 135.855 377.514 136.088 376.91 135.926C376.789 135.894 376.669 135.862 376.669 135.862ZM-84.8035 -0.342317C-84.7301 -1.09911 -84.0854 -1.57341 -83.361 -1.37929C-82.6042 -1.30592 -82.1299 -0.661195 -82.324 0.0632495C-82.3974 0.820046 -83.0421 1.29434 -83.7665 1.10023L-83.8873 1.06787C-84.491 0.906112 -84.8445 0.293739 -84.8035 -0.342317ZM381.391 125.48C380.82 125.198 380.499 124.465 380.661 123.861C380.976 123.169 381.676 122.968 382.28 123.13C382.851 123.413 383.173 124.146 383.011 124.749C382.728 125.321 382.116 125.674 381.512 125.512L381.391 125.48ZM-83.1876 -11.6856C-83.1142 -12.4424 -82.3811 -12.7636 -81.745 -12.7226C-80.9883 -12.6492 -80.5463 -11.8837 -80.7081 -11.28C-80.7491 -10.644 -81.5146 -10.202 -82.1506 -10.2431L-82.2714 -10.2754C-82.8751 -10.4372 -83.2286 -11.0495 -83.1876 -11.6856ZM385.664 114.849C384.972 114.534 384.65 113.801 384.933 113.229C385.248 112.537 385.981 112.216 386.552 112.498C387.244 112.813 387.598 113.426 387.283 114.118C387.121 114.721 386.388 115.043 385.664 114.849C385.784 114.881 385.664 114.849 385.664 114.849ZM-80.968 -22.8671C-80.7739 -23.5916 -80.1615 -23.9451 -79.4047 -23.8717C-78.6802 -23.6776 -78.3267 -23.0652 -78.4001 -22.3085C-78.5618 -21.7048 -79.2065 -21.2305 -79.931 -21.4246C-80.8085 -21.5303 -81.1297 -22.2634 -80.968 -22.8671ZM389.453 104.088C388.728 103.894 388.407 103.16 388.601 102.436C388.795 101.712 389.529 101.39 390.253 101.584C390.978 101.779 391.299 102.512 391.105 103.236C390.79 103.928 390.177 104.282 389.453 104.088ZM-78.3538 -34.0723C-78.1597 -34.7968 -77.4265 -35.118 -76.8228 -34.9562C-76.0984 -34.7621 -75.7772 -34.029 -75.939 -33.4253C-76.1331 -32.7008 -76.7454 -32.3473 -77.4699 -32.5414C-78.0736 -32.7032 -78.5479 -33.3479 -78.3538 -34.0723ZM391.755 91.634C391.787 91.5133 391.787 91.5133 391.819 91.3926C391.852 91.2718 391.852 91.2718 391.884 91.1511C392.078 90.4266 392.811 90.1054 393.415 90.2672C394.139 90.4613 394.461 91.1944 394.299 91.7981C394.266 91.9189 394.266 91.9189 394.234 92.0396C394.202 92.1603 394.202 92.1603 394.169 92.2811C393.975 93.0055 393.363 93.3591 392.638 93.165C392.035 93.0032 391.56 92.3585 391.755 91.634ZM-74.2843 -43.4641C-75.0088 -43.6582 -75.33 -44.3913 -75.1359 -45.1158C-74.9418 -45.8402 -74.2086 -46.1614 -73.6049 -45.9996C-72.8805 -45.8055 -72.5593 -45.0724 -72.7534 -44.348C-72.9475 -43.6235 -73.5599 -43.27 -74.2843 -43.4641ZM394.587 80.0989C394.781 79.3745 395.393 79.0209 396.15 79.0943C396.874 79.2884 397.228 79.9008 397.154 80.6576C396.96 81.382 396.348 81.7356 395.591 81.6622C394.867 81.4681 394.392 80.8234 394.587 80.0989ZM-70.6158 -54.2574C-71.3079 -54.5722 -71.6291 -55.3054 -71.3466 -55.8767C-71.0318 -56.5688 -70.4194 -56.9224 -69.7273 -56.6075C-69.0352 -56.2926 -68.6817 -55.6803 -68.9965 -54.9882C-69.279 -54.4168 -69.8914 -54.0633 -70.6158 -54.2574ZM396.806 68.9174C396.847 68.2814 397.645 67.7187 398.249 67.8805C399.006 67.9538 399.447 68.7193 399.286 69.323C399.212 70.0798 398.447 70.5217 397.843 70.36L397.722 70.3276C396.966 70.2542 396.612 69.6419 396.806 68.9174ZM-66.4644 -64.9213C-67.0357 -65.2038 -67.3569 -65.9369 -67.1951 -66.5406C-66.8803 -67.2327 -66.1795 -67.4331 -65.5758 -67.2714C-64.8837 -66.9565 -64.6833 -66.2558 -64.845 -65.6521C-65.1275 -65.0807 -65.7399 -64.7272 -66.3436 -64.8889L-66.4644 -64.9213ZM398.39 57.6949C398.431 57.0588 399.108 56.4638 399.832 56.6579C400.589 56.7313 401.063 57.376 400.869 58.1005C400.796 58.8572 400.151 59.3315 399.427 59.1374L399.306 59.1051C398.702 58.9433 398.316 58.4517 398.39 57.6949ZM-61.8623 -75.335C-62.5544 -75.6499 -62.7548 -76.3506 -62.44 -77.0427C-62.1575 -77.6141 -61.4244 -77.9353 -60.7323 -77.6204C-60.1609 -77.3379 -59.8397 -76.6048 -60.1546 -75.9127C-60.4371 -75.3413 -61.0171 -75.1085 -61.6208 -75.2703C-61.7415 -75.3026 -61.7415 -75.3026 -61.8623 -75.335ZM399.458 46.4637C399.499 45.8276 400.176 45.2326 400.812 45.2736C401.569 45.347 402.076 45.871 402.002 46.6278C401.961 47.2638 401.405 47.8912 400.648 47.8178C400.527 47.7855 400.527 47.7855 400.407 47.7531C399.803 47.5914 399.417 47.0997 399.458 46.4637ZM-56.8096 -85.4986C-57.3809 -85.7811 -57.6698 -86.6349 -57.3873 -87.2063C-57.1048 -87.7776 -56.2509 -88.0665 -55.6796 -87.784C-55.1082 -87.5015 -54.8194 -86.6476 -55.1019 -86.0763C-55.3844 -85.5049 -55.9644 -85.2721 -56.5681 -85.4339C-56.5681 -85.4339 -56.6888 -85.4662 -56.8096 -85.4986ZM400.043 35.1031C400.084 34.467 400.641 33.8396 401.397 33.913C402.034 33.954 402.661 34.5103 402.588 35.2671C402.547 35.9032 401.99 36.5306 401.233 36.4572C401.113 36.4248 400.992 36.3925 400.992 36.3925C400.388 36.2307 400.002 35.7391 400.043 35.1031ZM-51.1532 -95.5004C-51.7245 -95.7829 -52.0134 -96.6368 -51.6101 -97.1758C-51.2069 -97.7148 -50.5061 -97.9152 -49.9348 -97.6327C-49.3958 -97.2295 -49.0746 -96.4964 -49.4778 -95.9574C-49.728 -95.5067 -50.308 -95.2739 -50.9117 -95.4357C-50.9441 -95.3149 -51.0648 -95.3473 -51.1532 -95.5004ZM400.113 23.7338C400.034 23.0654 400.59 22.438 401.379 22.3906C402.047 22.3109 402.642 22.988 402.601 23.624C402.681 24.2924 402.125 24.9198 401.368 24.8464C401.247 24.8141 401.127 24.7817 401.006 24.7494C400.458 24.8614 400.072 24.3698 400.113 23.7338ZM-45.0785 -105.131C-45.6175 -105.535 -45.7856 -106.356 -45.3824 -106.895C-44.9791 -107.434 -44.1576 -107.602 -43.6186 -107.199C-43.0796 -106.796 -42.9115 -105.974 -43.3148 -105.435C-43.5649 -104.985 -44.1449 -104.752 -44.7487 -104.914C-44.8694 -104.946 -44.9901 -104.978 -45.0785 -105.131ZM399.515 12.4442C399.435 11.7758 399.991 11.1484 400.66 11.0687C401.328 10.989 401.956 11.5453 402.035 12.2137C402.115 12.8821 401.559 13.5095 400.89 13.5892C400.77 13.5569 400.617 13.6453 400.496 13.6129C400.013 13.4835 399.627 12.9919 399.515 12.4442ZM-38.5533 -114.512C-39.0923 -114.915 -39.2604 -115.737 -38.8571 -116.276C-38.4539 -116.815 -37.6324 -116.983 -37.0934 -116.58C-36.5544 -116.176 -36.3863 -115.355 -36.7895 -114.816C-37.1604 -114.398 -37.5873 -114.253 -38.0703 -114.383C-38.3441 -114.327 -38.4649 -114.359 -38.5533 -114.512ZM398.522 1.17831C398.442 0.509902 398.998 -0.1175 399.667 -0.197219C400.335 -0.276939 400.995 0.158664 401.042 0.947813C401.122 1.61623 400.566 2.24361 399.897 2.32333C399.777 2.29098 399.624 2.37936 399.382 2.31464C398.931 2.06449 398.513 1.69363 398.522 1.17831ZM-31.6097 -123.522C-32.1487 -123.925 -32.1961 -124.714 -31.7928 -125.253C-31.3896 -125.792 -30.6005 -125.84 -30.0615 -125.437C-29.5225 -125.033 -29.4751 -124.244 -29.8783 -123.705C-30.2492 -123.287 -30.6762 -123.142 -31.1591 -123.272C-31.2799 -123.304 -31.489 -123.49 -31.6097 -123.522ZM396.893 -10.1286C396.813 -10.797 397.249 -11.4568 397.917 -11.5365C398.585 -11.6162 399.245 -11.1806 399.325 -10.5122C399.405 -9.84378 398.969 -9.18404 398.301 -9.10432C398.148 -9.01593 397.906 -9.08065 397.785 -9.113C397.423 -9.21006 397.005 -9.58093 396.893 -10.1286ZM-24.2156 -132.282C-24.7546 -132.685 -24.7696 -133.595 -24.2456 -134.102C-23.7216 -134.608 -22.9325 -134.656 -22.4258 -134.132C-21.9192 -133.608 -21.8718 -132.818 -22.3958 -132.312C-22.7667 -131.894 -23.1936 -131.749 -23.6766 -131.878C-23.8857 -132.064 -24.1272 -132.129 -24.2156 -132.282ZM394.804 -21.1703C394.604 -21.8711 395.04 -22.5308 395.74 -22.7313C396.441 -22.9318 397.101 -22.4962 397.301 -21.7954C397.502 -21.0946 397.066 -20.4349 396.365 -20.2344C396.212 -20.1461 395.971 -20.2108 395.729 -20.2755C395.246 -20.4049 394.949 -20.7434 394.804 -21.1703ZM-16.4032 -140.671C-16.9098 -141.195 -16.9572 -141.984 -16.4332 -142.49C-15.9092 -142.997 -15.1201 -143.044 -14.6134 -142.52C-14.1068 -141.996 -14.0594 -141.207 -14.5834 -140.701C-14.922 -140.403 -15.3489 -140.259 -15.8319 -140.388C-16.1057 -140.332 -16.3148 -140.517 -16.4032 -140.671ZM392.201 -32.2208C392 -32.9215 392.436 -33.5812 393.137 -33.7817C393.837 -33.9822 394.497 -33.5466 394.698 -32.8458C394.898 -32.1451 394.463 -31.4853 393.762 -31.2848C393.488 -31.2288 393.367 -31.2612 393.126 -31.3259C392.643 -31.4553 392.345 -31.7938 392.201 -32.2208ZM-8.32564 -148.6C-8.83229 -149.124 -8.75891 -149.881 -8.23493 -150.388C-7.71094 -150.894 -6.95415 -150.821 -6.4475 -150.297C-5.94086 -149.773 -6.01423 -149.016 -6.53821 -148.509C-6.87675 -148.212 -7.30368 -148.067 -7.6659 -148.165C-7.87503 -148.35 -8.11651 -148.415 -8.32564 -148.6ZM389.049 -43.1591C388.849 -43.8598 389.164 -44.5519 389.865 -44.7524C390.565 -44.9529 391.257 -44.638 391.458 -43.9373C391.658 -43.2365 391.344 -42.5444 390.643 -42.3439C390.369 -42.2879 390.095 -42.2319 389.974 -42.2642C389.612 -42.3613 389.194 -42.7322 389.049 -43.1591ZM0.202525 -156.28C-0.304121 -156.804 -0.198392 -157.681 0.413981 -158.035C0.937965 -158.541 1.81551 -158.436 2.16906 -157.823C2.67571 -157.299 2.56998 -156.422 1.9576 -156.068C1.61907 -155.771 1.2245 -155.747 0.862274 -155.844C0.620793 -155.909 0.379302 -155.973 0.202525 -156.28ZM385.439 -53.8323C385.238 -54.533 385.553 -55.2251 386.133 -55.4579C386.834 -55.6584 387.526 -55.3435 387.759 -54.7635C387.959 -54.0628 387.645 -53.3707 387.064 -53.1379C386.791 -53.0818 386.517 -53.0258 386.275 -53.0905C385.913 -53.1875 385.583 -53.4053 385.439 -53.8323ZM9.1166 -163.467C8.7307 -163.959 8.83643 -164.837 9.32806 -165.222C9.81969 -165.608 10.6972 -165.503 11.0831 -165.011C11.469 -164.519 11.3633 -163.642 10.8717 -163.256C10.5331 -162.958 10.1386 -162.935 9.77634 -163.032C9.53486 -163.096 9.29338 -163.161 9.1166 -163.467ZM381.281 -64.3934C381.048 -64.9734 381.274 -65.8186 381.975 -66.019C382.555 -66.2519 383.4 -66.0254 383.601 -65.3246C383.833 -64.7446 383.607 -63.8994 382.906 -63.6989C382.632 -63.6429 382.359 -63.5869 382.117 -63.6516C381.755 -63.7486 381.457 -64.0872 381.281 -64.3934ZM18.2958 -170.196C17.9423 -170.808 18.0157 -171.565 18.628 -171.919C19.2404 -172.272 19.9972 -172.199 20.3508 -171.586C20.7043 -170.974 20.6309 -170.217 20.0186 -169.864C19.7124 -169.687 19.2855 -169.542 18.9232 -169.64C18.7141 -169.825 18.4726 -169.89 18.2958 -170.196ZM376.695 -74.81C376.342 -75.4224 376.689 -76.2352 377.269 -76.4681C377.881 -76.8216 378.694 -76.4744 378.927 -75.8944C379.281 -75.282 378.933 -74.4692 378.353 -74.2364C378.047 -74.0596 377.806 -74.1243 377.443 -74.2214C377.17 -74.1653 376.84 -74.3831 376.695 -74.81ZM27.7726 -176.586C27.4191 -177.198 27.6132 -177.923 28.1048 -178.309C28.7172 -178.662 29.4416 -178.468 29.7952 -177.856C30.1487 -177.243 29.9546 -176.519 29.3422 -176.165C29.036 -175.988 28.6415 -175.965 28.4 -176.029C28.1585 -176.094 27.9494 -176.28 27.7726 -176.586ZM371.619 -84.8408C371.265 -85.4532 371.459 -86.1776 372.071 -86.5312C372.684 -86.8847 373.408 -86.6906 373.729 -85.9575C374.083 -85.3451 373.889 -84.6207 373.277 -84.2671C372.97 -84.0904 372.697 -84.0343 372.334 -84.1314C372.004 -84.3492 371.795 -84.5346 371.619 -84.8408ZM37.4822 -182.396C37.1286 -183.008 37.3227 -183.733 37.9351 -184.086C38.5475 -184.44 39.2719 -184.246 39.6255 -183.633C39.979 -183.021 39.7849 -182.296 39.1725 -181.943C38.8664 -181.766 38.4718 -181.742 38.2303 -181.807C37.9888 -181.872 37.6589 -182.09 37.4822 -182.396ZM365.994 -94.7595C365.64 -95.3719 365.835 -96.0963 366.447 -96.4499C367.059 -96.8034 367.784 -96.6093 368.137 -95.997C368.491 -95.3846 368.297 -94.6601 367.684 -94.3066C367.378 -94.1298 366.984 -94.1061 366.742 -94.1708C366.501 -94.2355 366.171 -94.4533 365.994 -94.7595ZM47.61 -187.835C47.2564 -188.447 47.6037 -189.26 48.1837 -189.493C48.7961 -189.846 49.6089 -189.499 49.8417 -188.919C50.1952 -188.307 49.848 -187.494 49.268 -187.261C48.9618 -187.084 48.688 -187.028 48.3258 -187.125C48.0843 -187.19 47.7544 -187.408 47.61 -187.835ZM360.031 -104.381C359.677 -104.993 359.751 -105.75 360.363 -106.103C360.976 -106.457 361.732 -106.384 362.086 -105.771C362.439 -105.159 362.366 -104.402 361.754 -104.049C361.448 -103.872 361.053 -103.848 360.691 -103.945C360.417 -103.889 360.208 -104.075 360.031 -104.381ZM57.8499 -192.726C57.4963 -193.339 57.8436 -194.151 58.4236 -194.384C59.0036 -194.617 59.8488 -194.391 60.0816 -193.811C60.3144 -193.231 60.0879 -192.385 59.3872 -192.185C59.081 -192.008 58.8395 -192.073 58.598 -192.138C58.3242 -192.081 58.0267 -192.42 57.8499 -192.726ZM353.488 -113.769C353.102 -114.261 353.208 -115.138 353.699 -115.524C354.312 -115.878 355.069 -115.804 355.422 -115.192C355.808 -114.7 355.702 -113.823 355.211 -113.437C354.904 -113.26 354.478 -113.116 354.115 -113.213C353.874 -113.277 353.665 -113.463 353.488 -113.769ZM68.355 -197.158C68.1222 -197.738 68.4694 -198.551 69.0494 -198.784C69.6294 -199.017 70.4422 -198.67 70.675 -198.09C70.8755 -197.389 70.5607 -196.697 69.9806 -196.464C69.7068 -196.408 69.433 -196.352 69.1915 -196.417C68.8293 -196.514 68.5318 -196.852 68.355 -197.158ZM346.574 -122.739C346.067 -123.263 346.173 -124.141 346.785 -124.494C347.309 -125.001 348.187 -124.895 348.54 -124.283C348.926 -123.791 348.941 -122.881 348.329 -122.528C347.991 -122.23 347.596 -122.207 347.234 -122.304C346.992 -122.368 346.783 -122.554 346.574 -122.739ZM79.0045 -201.164C78.804 -201.864 79.1189 -202.556 79.8196 -202.757C80.5204 -202.957 81.2125 -202.642 81.4129 -201.942C81.6134 -201.241 81.2985 -200.549 80.5978 -200.348C80.3239 -200.292 80.0501 -200.236 79.8086 -200.301C79.4788 -200.519 79.1489 -200.737 79.0045 -201.164ZM339.321 -131.412C338.815 -131.936 338.888 -132.693 339.412 -133.199C339.936 -133.706 340.693 -133.632 341.2 -133.108C341.706 -132.585 341.633 -131.828 341.109 -131.321C340.77 -131.024 340.376 -131 340.014 -131.097C339.619 -131.073 339.531 -131.226 339.321 -131.412ZM89.8868 -204.589C89.6863 -205.289 90.1219 -205.949 90.8227 -206.15C91.5234 -206.35 92.1832 -205.914 92.3836 -205.214C92.5841 -204.513 92.1485 -203.853 91.4477 -203.653C91.1739 -203.597 91.0532 -203.629 90.8117 -203.694C90.3287 -203.823 90.0312 -204.162 89.8868 -204.589ZM331.577 -139.698C331.071 -140.222 331.144 -140.979 331.668 -141.486C332.192 -141.993 332.949 -141.919 333.488 -141.516C333.994 -140.992 333.921 -140.235 333.518 -139.696C333.179 -139.399 332.752 -139.254 332.269 -139.384C331.907 -139.481 331.787 -139.513 331.577 -139.698ZM100.913 -207.587C100.713 -208.288 101.149 -208.947 101.849 -209.148C102.55 -209.348 103.21 -208.913 103.41 -208.212C103.611 -207.511 103.175 -206.851 102.474 -206.651C102.201 -206.595 102.08 -206.627 101.838 -206.692C101.323 -206.701 101.026 -207.039 100.913 -207.587ZM323.495 -147.688C322.988 -148.212 322.941 -149.001 323.465 -149.507C323.989 -150.014 324.778 -150.061 325.284 -149.537C325.791 -149.013 325.838 -148.224 325.314 -147.718C324.976 -147.42 324.549 -147.276 324.066 -147.405C323.825 -147.47 323.583 -147.535 323.495 -147.688ZM112.02 -209.917C111.94 -210.585 112.376 -211.245 113.077 -211.445C113.745 -211.525 114.405 -211.089 114.484 -210.421C114.564 -209.753 114.129 -209.093 113.46 -209.013C113.307 -208.925 113.066 -208.99 112.945 -209.022C112.462 -209.151 112.044 -209.522 112.02 -209.917ZM315.041 -155.259C314.502 -155.662 314.455 -156.451 314.89 -157.111C315.294 -157.65 316.083 -157.697 316.743 -157.261C317.282 -156.858 317.329 -156.069 316.926 -155.53C316.555 -155.112 316.128 -154.967 315.645 -155.097C315.371 -155.041 315.13 -155.105 315.041 -155.259ZM123.271 -211.82C123.191 -212.488 123.627 -213.148 124.295 -213.227C124.963 -213.307 125.623 -212.872 125.703 -212.203C125.783 -211.535 125.347 -210.875 124.679 -210.795C124.526 -210.707 124.284 -210.772 124.163 -210.804C123.68 -210.933 123.294 -211.425 123.271 -211.82ZM306.217 -162.411C305.678 -162.814 305.51 -163.636 306.034 -164.143C306.437 -164.682 307.258 -164.85 307.765 -164.326C308.304 -163.922 308.472 -163.101 307.948 -162.594C307.577 -162.176 307.15 -162.032 306.667 -162.161C306.458 -162.346 306.337 -162.379 306.217 -162.411ZM134.513 -213.207C134.433 -213.876 134.99 -214.503 135.658 -214.583C136.326 -214.662 136.954 -214.106 137.034 -213.438C137.113 -212.769 136.557 -212.142 135.889 -212.062C135.768 -212.095 135.615 -212.006 135.373 -212.071C134.923 -212.321 134.504 -212.692 134.513 -213.207ZM297.054 -169.266C296.515 -169.67 296.347 -170.491 296.75 -171.03C297.153 -171.569 297.975 -171.737 298.514 -171.334C299.053 -170.931 299.221 -170.109 298.817 -169.57C298.567 -169.12 297.987 -168.887 297.384 -169.049C297.263 -169.081 297.142 -169.113 297.054 -169.266ZM145.867 -214.047C145.788 -214.716 146.344 -215.343 147.133 -215.39C147.801 -215.47 148.429 -214.914 148.476 -214.125C148.556 -213.456 148 -212.829 147.21 -212.781C147.09 -212.814 146.937 -212.725 146.816 -212.758C146.365 -213.008 145.979 -213.499 145.867 -214.047ZM287.608 -175.55C287.069 -175.953 286.869 -176.654 287.184 -177.346C287.587 -177.885 288.288 -178.086 288.98 -177.771C289.519 -177.368 289.719 -176.667 289.404 -175.975C289.154 -175.524 288.574 -175.291 287.97 -175.453C287.817 -175.365 287.697 -175.397 287.608 -175.55ZM157.334 -214.339C157.375 -214.975 157.931 -215.603 158.567 -215.562C159.203 -215.521 159.83 -214.964 159.789 -214.328C159.748 -213.692 159.192 -213.065 158.556 -213.106C158.435 -213.138 158.315 -213.171 158.194 -213.203C157.711 -213.332 157.325 -213.824 157.334 -214.339ZM277.913 -181.383C277.341 -181.666 277.052 -182.52 277.456 -183.059C277.738 -183.63 278.592 -183.919 279.131 -183.516C279.702 -183.233 279.991 -182.379 279.588 -181.84C279.338 -181.39 278.725 -181.036 278.122 -181.198C278.001 -181.23 277.88 -181.263 277.913 -181.383ZM168.671 -214.149C168.712 -214.785 169.268 -215.412 170.025 -215.339C170.661 -215.298 171.288 -214.741 171.215 -213.985C171.174 -213.349 170.617 -212.721 169.861 -212.795C169.74 -212.827 169.74 -212.827 169.619 -212.859C169.015 -213.021 168.63 -213.513 168.671 -214.149ZM267.846 -186.798C267.275 -187.081 266.954 -187.814 267.268 -188.506C267.551 -189.077 268.284 -189.398 268.976 -189.084C269.547 -188.801 269.836 -187.947 269.554 -187.376C269.271 -186.805 268.691 -186.572 268.088 -186.734C268.055 -186.613 267.934 -186.645 267.846 -186.798ZM180.087 -213.29C180.128 -213.926 180.805 -214.521 181.441 -214.48C182.198 -214.406 182.672 -213.762 182.631 -213.125C182.558 -212.369 181.913 -211.894 181.277 -211.935C181.157 -211.968 181.157 -211.968 181.036 -212C180.432 -212.162 180.046 -212.653 180.087 -213.29ZM257.618 -191.609C256.926 -191.924 256.725 -192.625 257.04 -193.317C257.355 -194.009 258.056 -194.21 258.748 -193.895C259.319 -193.612 259.64 -192.879 259.325 -192.187C259.043 -191.616 258.431 -191.262 257.827 -191.424C257.739 -191.577 257.738 -191.577 257.618 -191.609ZM191.407 -212.068C191.48 -212.825 192.125 -213.299 192.849 -213.105C193.606 -213.032 194.08 -212.387 193.886 -211.663C193.813 -210.906 193.168 -210.432 192.444 -210.626L192.323 -210.658C191.719 -210.82 191.366 -211.432 191.407 -212.068ZM247.172 -196.091C246.48 -196.406 246.158 -197.139 246.441 -197.71C246.723 -198.281 247.489 -198.723 248.06 -198.441C248.632 -198.158 249.074 -197.393 248.791 -196.822C248.509 -196.25 247.896 -195.897 247.292 -196.058L247.172 -196.091ZM202.685 -210.211C202.88 -210.935 203.492 -211.289 204.128 -211.248C204.852 -211.054 205.206 -210.441 205.165 -209.805C204.971 -209.081 204.358 -208.727 203.722 -208.768C203.722 -208.768 203.722 -208.768 203.602 -208.801C202.966 -208.842 202.491 -209.486 202.685 -210.211ZM236.564 -199.968C235.839 -200.163 235.518 -200.896 235.833 -201.588C236.027 -202.312 236.76 -202.633 237.452 -202.319C238.056 -202.157 238.498 -201.391 238.183 -200.699C237.901 -200.128 237.288 -199.774 236.564 -199.968ZM213.835 -207.87C214.029 -208.595 214.641 -208.948 215.365 -208.754C216.09 -208.56 216.443 -207.948 216.249 -207.223C216.055 -206.499 215.443 -206.145 214.718 -206.34C214.115 -206.501 213.64 -207.146 213.835 -207.87ZM225.706 -203.395C224.981 -203.59 224.66 -204.323 224.822 -204.926C225.016 -205.651 225.749 -205.972 226.353 -205.81C226.957 -205.648 227.399 -204.883 227.237 -204.279C227.043 -203.555 226.43 -203.201 225.706 -203.395Z" fill="#4E5150"/>
<path d="M281.961 -186.973L157.443 28.6563L158.526 29.2814L283.044 -186.347L281.961 -186.973Z" fill="#4E5150"/>
<path d="M373.3 -96.0009L157.662 28.4979L158.287 29.5804L373.925 -94.9184L373.3 -96.0009Z" fill="#4E5150"/>
<path d="M406.982 28.344L157.983 28.3651L157.984 29.6151L406.982 29.594L406.982 28.344Z" fill="#4E5150"/>
<path d="M158.315 28.4609L157.69 29.5434L373.326 154.037L373.951 152.955L158.315 28.4609Z" fill="#4E5150"/>
<path d="M158.498 28.6642L157.415 29.2892L281.914 244.927L282.996 244.302L158.498 28.6642Z" fill="#4E5150"/>
<path d="M158.644 28.9868L157.395 28.9868L157.392 277.979L158.642 277.979L158.644 28.9868Z" fill="#4E5150"/>
<path d="M157.441 28.6923L32.9473 244.328L34.0298 244.953L158.524 29.3173L157.441 28.6923Z" fill="#4E5150"/>
<path d="M157.706 28.4172L-57.9326 152.916L-57.3076 153.998L158.331 29.4997L157.706 28.4172Z" fill="#4E5150"/>
<path d="M157.99 28.4033L-91.0029 28.4004L-91.0029 29.6503L157.99 29.6533L157.99 28.4033Z" fill="#4E5150"/>
<path d="M-57.3506 -96.0414L-57.9756 -94.9589L157.66 29.5349L158.285 28.4523L-57.3506 -96.0414Z" fill="#4E5150"/>
<path d="M34.0786 -186.929L32.9961 -186.304L157.495 29.3344L158.577 28.7094L34.0786 -186.929Z" fill="#4E5150"/>
<path d="M158.586 -219.99L157.336 -219.99L157.333 29.0024L158.583 29.0024L158.586 -219.99Z" fill="#4E5150"/>
<path d="M366.44 74.1102C366.427 78.5065 367.621 83.2264 365.007 87.1849C363.08 90.033 359.824 92.5252 356.281 92.223C354.373 92.0999 352.941 90.6811 352.638 88.9173C352.366 87.0328 353.334 85.3511 354.777 84.3142C356.34 83.3095 358.175 84.1894 359.123 85.4788C359.686 86.2767 359.975 87.1305 359.958 88.1611C359.94 89.1918 359.472 89.9723 359.004 90.7527C358.383 91.6216 357.497 92.0312 356.579 92.5615C355.628 93.2126 355.964 94.8556 357.236 94.9376C359.506 95.1578 361.022 93.364 362.023 91.5616C363.33 89.5823 363.252 86.9734 362.256 84.8948C361.26 82.8162 359.346 81.2679 356.987 80.8947C354.87 80.5862 352.791 81.5822 351.461 83.1668C350.01 84.7191 349.363 87.1339 349.569 89.2599C349.865 91.5389 351.32 93.3524 353.243 94.3853C356.848 96.3865 361.367 94.4917 364.229 92.0232C366.719 89.9729 368.22 87.2692 368.94 84.0976C369.726 80.6845 369.336 76.8272 368.422 73.4764C368.277 73.0495 367.738 72.6463 367.191 72.7583C366.764 72.9028 366.481 73.4741 366.44 74.1102Z" fill="#4E5150"/>
<path d="M348.179 87.205C348.192 82.8086 346.998 78.0887 349.612 74.1303C351.539 71.2822 354.795 68.79 358.338 69.0922C360.246 69.2152 361.678 70.6341 361.981 72.3978C362.253 74.2823 361.285 75.964 359.842 77.001C358.279 78.0056 356.444 77.1258 355.496 75.8363C354.933 75.0385 354.644 74.1846 354.661 73.154C354.679 72.1234 355.147 71.3429 355.615 70.5624C356.236 69.6936 357.122 69.284 358.04 68.7536C358.991 68.1026 358.655 66.4596 357.383 66.3775C355.113 66.1574 353.597 67.9512 352.475 69.7213C351.169 71.7005 351.246 74.3094 352.242 76.388C353.238 78.4666 355.152 80.0149 357.511 80.3881C359.628 80.6966 361.707 79.7006 363.158 78.1483C364.609 76.5961 365.256 74.1812 365.05 72.0553C364.754 69.7762 363.299 67.9628 361.376 66.9298C357.771 64.9286 353.252 66.8235 350.39 69.292C347.9 71.3423 346.399 74.0459 345.679 77.2176C344.893 80.6306 345.283 84.488 346.197 87.8387C346.342 88.2656 346.881 88.6689 347.428 88.5568C347.855 88.4124 348.291 87.7527 348.179 87.205Z" fill="#4E5150"/>
<path d="M310.838 177.216C311.265 177.071 311.933 176.991 312.272 176.694C312.731 176.429 313.069 176.131 313.408 175.834C314.085 175.239 314.706 174.37 315.086 173.436C315.812 171.69 315.968 169.661 315.422 167.832C314.789 165.851 313.301 164.158 311.434 163.399C309.478 162.487 307.505 162.605 305.612 163.392C302.559 164.644 300.526 168.37 300.836 171.559C301.282 175.69 305.087 178.392 309.098 177.914C309.887 177.867 310.587 177.666 311.2 177.313C311.933 176.991 312.457 176.485 313.013 175.857C313.634 174.988 312.653 173.82 311.679 174.076C310.978 174.277 310.245 174.598 309.423 174.766C308.723 174.966 307.966 174.893 307.241 174.699C305.913 174.343 304.956 173.569 304.305 172.618C303.863 171.853 303.792 170.669 304.051 169.703C304.342 168.616 304.963 167.747 305.826 166.943C306.535 166.227 307.63 166.003 308.782 166.053C310.054 166.135 311.253 166.974 311.992 168.078C312.699 169.303 312.705 170.728 312.35 172.056C312.22 172.539 311.938 173.11 311.599 173.408C311.381 173.738 311.075 173.914 310.89 174.124C310.551 174.421 310.333 174.751 309.874 175.016C309.012 175.82 309.525 177.77 310.838 177.216Z" fill="#4E5150"/>
<path d="M308.703 177.938C310.458 178.149 312.222 177.845 313.977 178.057C314.339 178.154 314.975 178.195 315.579 178.356C315.7 178.389 316.392 178.704 316.062 178.486C316.303 178.551 316.513 178.736 316.754 178.801C316.875 178.833 316.963 178.986 316.963 178.986C317.052 179.139 317.172 179.172 317.261 179.325C316.875 178.833 317.261 179.325 317.349 179.478C317.437 179.631 317.494 179.905 317.381 179.357C317.349 179.478 317.47 179.51 317.437 179.631C317.461 180.025 317.414 179.236 317.405 179.752C317.373 179.872 317.332 180.508 317.373 179.872C317.34 179.993 317.276 180.235 317.243 180.355C317.211 180.476 317.211 180.476 317.179 180.597C317.114 180.838 316.961 180.927 316.896 181.168C316.864 181.289 316.711 181.377 316.711 181.377C316.372 181.675 316.001 182.093 315.663 182.391C315.51 182.479 315.477 182.6 315.357 182.567C315.203 182.656 314.897 182.832 314.744 182.921C314.591 183.009 314.285 183.186 314.011 183.242C313.858 183.33 313.737 183.298 313.705 183.419C314.132 183.274 313.552 183.507 313.431 183.475C311.023 184.253 308.72 184.154 306.217 183.354C304.076 182.65 301.976 181.311 300.553 179.377C298.712 177.072 297.821 174.116 297.14 171.345C296.347 168.027 295.869 164.016 293.215 161.364C292.081 160.284 290.697 159.654 289.215 159.387C287.219 159.11 285.679 160.51 284.446 161.732C282.842 163.373 285.407 165.872 286.891 164.199C287.479 163.451 288.068 162.703 289.219 162.752C289.976 162.826 290.692 163.535 291.199 164.059C292.686 165.752 293.061 168.699 293.663 170.802C294.801 175.248 296.18 179.758 299.461 182.967C303.788 187.103 311.009 188.649 316.456 185.709C319.332 184.15 321.719 181.037 320.411 177.71C319.801 176.123 317.998 175.122 316.429 174.702C313.893 174.022 310.681 173.938 308.207 174.958C307.627 175.191 307.433 175.915 307.545 176.463C307.649 177.526 308.067 177.897 308.703 177.938Z" fill="#4E5150"/>
<path d="M222.068 229.281C221.897 230.4 221.574 231.608 220.953 232.477C220.179 233.434 219.487 233.119 218.65 232.377C217.098 230.926 216.134 228.727 215.557 227.019C214.457 223.877 213.423 220.494 212.871 217.241C212.703 216.419 211.681 215.887 210.859 216.055C210.005 216.343 209.538 217.124 209.673 218.066C210.066 219.983 210.611 221.811 211.156 223.64C211.758 225.742 212.391 227.724 213.267 229.77C214.584 232.582 216.528 235.95 219.918 236.34C221.793 236.584 223.003 234.967 223.907 233.527C224.81 232.087 224.901 230.299 224.138 228.801C223.64 227.761 222.206 228.283 222.068 229.281Z" fill="#4E5150"/>
<path d="M213.886 230.842C213.771 232.234 213.351 233.804 212.544 234.882C212.173 235.3 211.77 235.839 211.166 235.678C210.563 235.516 210.121 234.75 209.856 234.291C208.939 232.881 208.482 231.206 208.025 229.53C207.448 227.823 207.023 226.026 206.445 224.319C205.9 222.49 204.566 220.709 203.222 219.443C201.163 217.468 198.604 216.394 195.786 216.286C193.604 216.219 193.608 219.585 195.79 219.652C198.367 219.695 200.346 221.002 202.01 223.001C202.099 223.154 202.187 223.307 202.276 223.46C202.485 223.646 202.541 223.919 202.629 224.073C202.806 224.379 203.071 224.838 203.248 225.144C202.983 224.685 203.248 225.144 203.215 225.265C203.392 225.571 203.416 225.966 203.44 226.36C203.784 227.488 204.162 228.495 204.507 229.623C205.052 231.451 205.718 233.312 206.537 235.084C207.356 236.857 208.603 238.485 210.534 239.002C212.708 239.585 214.553 238.009 215.642 236.359C216.699 234.831 216.855 232.802 216.704 230.95C216.4 229.186 214.097 229.087 213.886 230.842Z" fill="#4E5150"/>
<path d="M204.043 226.522C203.551 226.908 203.543 227.423 203.381 228.027C203.381 228.027 203.163 228.357 203.131 228.478C203.316 228.269 202.792 228.775 202.978 228.566C202.978 228.566 202.398 228.799 202.671 228.743C202.518 228.831 202.245 228.887 202.124 228.855C202.518 228.831 202.003 228.823 201.882 228.79C201.608 228.846 202.124 228.855 201.762 228.758C201.641 228.725 201.673 228.605 201.552 228.572C201.343 228.387 201.729 228.879 201.464 228.419C201.376 228.266 201.287 228.113 201.199 227.96C201.054 227.533 201.167 228.081 201.11 227.807C200.934 227.501 200.91 227.106 200.886 226.712C200.942 226.985 200.951 226.47 200.83 226.438C200.774 226.164 200.839 225.922 200.751 225.769C200.759 225.254 200.736 224.859 200.865 224.376C201.1 223.016 201.577 221.72 202.053 220.424C203.063 218.107 204.941 216.41 206.401 214.342C206.989 213.594 206.524 212.434 205.743 211.966C204.842 211.466 203.956 211.875 203.367 212.624C202.528 213.822 201.569 214.989 200.73 216.187C199.706 217.595 199.076 218.98 198.502 220.638C197.581 223.108 197.014 226.192 197.881 228.753C198.458 230.461 199.857 232 201.798 232.003C202.949 232.052 204.142 231.466 205.004 230.662C205.528 230.155 205.843 229.463 206.005 228.859C206.143 227.861 206.096 227.072 205.227 226.451C205.082 226.024 204.381 226.225 204.043 226.522Z" fill="#4E5150"/>
<path d="M228.114 230.384C227.735 231.317 227.467 232.798 226.525 232.934C226.92 232.91 227.129 233.096 227.338 233.281C227.129 233.096 226.952 232.79 226.896 232.516C226.751 232.089 226.454 231.75 226.309 231.324C226.253 231.05 226.044 230.864 225.988 230.59C225.988 230.59 225.723 230.131 226.021 230.47C225.932 230.317 225.965 230.196 225.876 230.043C225.411 228.883 224.945 227.723 224.512 226.442C223.091 222.567 221.824 218.604 220.677 214.673C219.67 215.051 218.784 215.46 217.777 215.837C217.954 216.144 218.163 216.329 218.372 216.515C219.152 216.982 220.159 216.605 220.474 215.913C220.942 215.133 220.653 214.279 219.873 213.811C219.873 213.811 219.873 213.811 219.752 213.779C220.05 214.117 220.226 214.423 220.524 214.762C219.737 212.869 216.966 213.55 217.479 215.499C218.561 219.671 219.885 223.908 221.394 227.936C222.116 230.07 222.926 232.358 224.075 234.348C224.55 234.993 225.112 235.791 225.958 236.017C228.043 236.447 229.8 234.718 230.438 232.818C230.786 232.005 230.771 231.095 230.635 230.153C230.411 229.058 228.405 229.297 228.114 230.384Z" fill="#4E5150"/>
<path d="M126.938 228.961C127.388 229.211 126.608 228.744 126.366 228.679C125.916 228.429 125.554 228.332 125.071 228.202C123.984 227.911 123.05 227.531 122.085 227.273C121.119 227.014 117.77 225.987 117.649 225.955C117.167 225.825 117.979 226.173 118.1 226.205C117.473 225.649 116.595 225.543 116.039 226.17C115.515 226.677 115.344 227.796 116.004 228.232C116.543 228.635 117.147 228.797 117.751 228.958C118.716 229.217 119.803 229.508 120.769 229.767C121.856 230.058 122.942 230.35 124.061 230.52C124.544 230.649 125.027 230.779 125.543 230.787C125.663 230.82 125.784 230.852 125.937 230.764C126.058 230.796 126.726 230.716 126.211 230.708C127.451 230.91 127.927 229.615 126.938 228.961Z" fill="#4E5150"/>
<path d="M115.756 226.742C115.409 227.555 115.424 228.464 115.076 229.277C114.697 230.211 113.987 230.927 113.31 231.522C111.803 232.8 109.854 233.313 107.857 233.037C106.98 232.931 106.126 233.22 105.9 234.065C105.705 234.79 106.203 235.829 107.049 236.055C110.132 236.623 112.814 235.789 115.272 233.859C116.256 233.087 117.215 231.921 117.78 230.778C118.345 229.635 118.798 227.945 118.091 226.72C117.528 225.923 116.135 225.808 115.756 226.742Z" fill="#4E5150"/>
<path d="M92.8223 222.02C92.3717 221.77 93.1522 222.238 93.3936 222.302C93.8443 222.553 94.3272 222.682 94.8102 222.811C95.8645 223.223 96.9512 223.514 98.0378 223.806C99.1245 224.097 100.09 224.356 101.177 224.647C101.781 224.809 102.473 225.123 103.174 224.923C103.995 224.755 104.375 223.821 104.174 223.121C103.885 222.267 103.193 221.952 102.372 222.12C102.372 222.12 103.402 222.137 103.008 222.161C102.887 222.129 102.766 222.096 102.646 222.064C102.283 221.967 96.5762 220.567 95.4896 220.276C95.0066 220.146 94.6444 220.049 94.1291 220.041C94.0083 220.008 93.8876 219.976 93.7668 219.944C93.6461 219.911 92.9777 219.991 93.493 220C92.1886 220.038 91.9534 221.399 92.8223 222.02Z" fill="#4E5150"/>
<path d="M102.153 222.45C100.929 223.157 100.596 224.88 100.394 226.119C100.312 227.392 100.592 228.761 101.025 230.041C102.068 232.909 104.095 235.005 107.049 236.055C107.894 236.282 108.812 235.752 109.039 234.906C109.265 234.061 108.703 233.263 107.857 233.037C105.958 232.399 104.68 230.891 103.893 228.998C103.604 228.144 103.436 227.323 103.421 226.413C103.438 225.382 104.027 224.634 104.044 223.603C104.303 222.638 102.919 222.008 102.153 222.45Z" fill="#4E5150"/>
<path d="M128.579 223.319C127.26 222.448 125.384 222.204 123.935 221.816C121.399 221.136 97.3633 215.213 95.9144 214.825C93.8618 214.275 92.9883 217.535 95.0409 218.085C98.3009 218.959 101.626 219.591 104.797 220.311C110.295 221.526 123.915 224.787 125.276 225.022C126.242 225.281 127.119 225.386 128.029 225.371C129.213 225.3 129.601 223.852 128.579 223.319Z" fill="#4E5150"/>
<path d="M20.6455 184.616C19.3734 184.534 18.1249 184.846 16.9412 184.917C16.1521 184.965 15.4513 185.165 14.6622 185.212C14.3883 185.269 13.5992 185.316 13.4224 185.01C12.9007 183.576 14.0134 182.321 14.9083 181.396C15.4646 180.769 16.0533 180.021 16.642 179.272C17.2307 178.524 18.0285 177.962 18.7379 177.246C20.1244 175.935 21.4226 174.471 22.8091 173.16C24.0425 171.938 25.2759 170.716 26.5417 169.372C26.9449 168.833 27.139 168.109 26.7531 167.617C26.3996 167.005 25.3452 166.593 24.7005 167.067C23.0725 168.313 21.589 169.986 20.1377 171.539C19.4283 172.255 18.7189 172.97 18.0095 173.686C16.776 174.909 15.4219 176.099 14.3092 177.353C13.5998 178.069 13.0995 178.97 12.3901 179.686C11.6483 180.523 11.0596 181.271 10.6477 182.325C10.074 183.983 10.1277 186.197 11.5032 187.342C12.9671 188.641 15.1578 188.192 16.9539 187.768C18.3231 187.488 20.5051 187.555 21.4647 186.388C21.9326 185.608 21.523 184.721 20.6455 184.616Z" fill="#4E5150"/>
<path d="M13.1563 179.244C11.5457 179.46 10.0148 180.344 8.4538 179.408C8.00319 179.158 7.64965 178.545 7.62596 178.151C7.51389 177.603 7.61093 177.241 7.77269 176.637C8.06386 175.55 8.90272 174.352 9.49141 173.603C10.6688 172.107 12.0229 170.917 13.2887 169.574C14.893 167.933 16.465 166.413 17.9485 164.74C19.2143 163.397 20.5448 161.813 20.9093 159.969C21.3386 157.884 20.2779 156.047 18.4754 155.046C16.673 154.046 14.7001 154.164 12.9601 154.863C11.2523 155.44 11.8451 158.058 13.6412 157.633C14.8896 157.321 16.7741 157.049 17.6019 158.306C18.4621 159.443 16.9462 161.237 16.2044 162.073C13.4227 165.21 10.0697 168.064 7.40877 171.234C5.64271 173.478 3.83563 176.358 4.72586 179.315C5.39195 181.175 6.85584 182.474 8.82004 182.87C10.7842 183.267 13.128 182.731 14.2494 180.961C14.5642 180.269 13.9778 179.076 13.1563 179.244Z" fill="#4E5150"/>
<path d="M16.0788 158.675C15.9754 157.612 15.1626 157.265 14.3821 156.797C14.0522 156.579 13.207 156.353 13.151 156.079C13.2394 156.232 13.2954 156.506 13.2631 156.626C13.2307 156.747 13.2307 156.747 13.1984 156.868C13.2307 156.747 13.3838 156.659 13.3838 156.659C13.5693 156.45 13.9078 156.152 14.0932 155.943C14.6172 155.436 15.1088 155.05 15.6328 154.544C16.6808 153.53 15.314 151.87 14.0892 152.577C13.1707 153.108 12.4612 153.823 11.8402 154.692C11.2515 155.44 10.5097 156.277 11.0077 157.316C11.3289 158.049 12.021 158.364 12.7131 158.679C13.4052 158.994 14.1856 159.462 14.9101 159.656C15.4254 159.665 16.1585 159.343 16.0788 158.675Z" fill="#4E5150"/>
<path d="M20.7979 191.774C20.1295 191.854 19.5495 192.087 18.9134 192.046C18.6396 192.102 18.3981 192.037 18.1567 191.972C17.8268 191.754 17.6824 191.328 17.7944 191.875C17.7621 191.996 17.6887 192.753 17.7857 192.391C17.9712 192.181 18.189 191.852 18.4068 191.522C18.5922 191.313 18.8424 190.862 18.9955 190.774C19.3664 190.355 19.7373 189.937 20.1405 189.398C20.9146 188.441 21.8419 187.395 22.7367 186.47C25.8246 183.157 28.8478 180.084 32.0564 176.803C32.0887 176.682 32.0887 176.682 32.0887 176.682C33.6607 175.162 31.3926 173.002 29.853 174.401C26.8299 177.473 23.9037 180.183 21.0013 183.288C19.3647 185.049 17.728 186.81 16.1797 188.725C15.6234 189.352 15.1878 190.012 14.8406 190.825C14.2109 192.209 14.6765 193.369 15.996 194.24C17.7337 195.482 20.319 195.01 21.947 193.764C23.051 193.025 21.8933 191.55 20.7979 191.774Z" fill="#4E5150"/>
<rect x="-0.183013" y="0.683013" width="246.5" height="246.5" transform="matrix(-0.866025 0.5 0.5 0.866025 202.612 -139.863)" stroke="#4E5150"/>
<rect x="112.887" y="-139.363" width="246.5" height="246.5" transform="rotate(30 112.887 -139.363)" stroke="#4E5150"/>
<rect x="34.75" y="-94.25" width="246.5" height="246.5" stroke="#4E5150"/>
<path d="M158 129L170.5 109H145.5L158 129Z" fill="#4E5150"/>
<path d="M15.5 29L28 36.5L28 21.5L15.5 29Z" fill="#4E5150"/>
<path d="M300.5 29L288 36.5L288 21.5L300.5 29Z" fill="#4E5150"/>
<circle cx="280.5" cy="29" r="3.75" fill="#4E5150"/>
<circle cx="35.5" cy="29" r="3.75" fill="#4E5150"/>
<circle cx="158" cy="170.25" r="7.5" fill="#4E5150"/>
</g>
</g>
<path d="M318.368 37.2C317.015 37.2 315.813 36.9783 314.763 36.535C313.736 36.0917 312.943 35.485 312.383 34.715C311.823 33.945 311.543 33.07 311.543 32.09C311.543 31.0633 311.881 30.1767 312.558 29.43C313.258 28.66 314.285 27.9833 315.638 27.4C314.518 26.7233 313.69 26.035 313.153 25.335C312.64 24.635 312.383 23.8417 312.383 22.955C312.383 22.045 312.686 21.205 313.293 20.435C313.9 19.665 314.705 19.0583 315.708 18.615C316.711 18.1717 317.785 17.95 318.928 17.95C320.095 17.95 321.133 18.16 322.043 18.58C322.953 19 323.665 19.5717 324.178 20.295C324.691 21.0183 324.948 21.835 324.948 22.745C324.948 23.585 324.656 24.3783 324.073 25.125C323.49 25.8483 322.615 26.5017 321.448 27.085C322.988 27.7383 324.073 28.4267 324.703 29.15C325.356 29.8733 325.683 30.795 325.683 31.915C325.683 32.8717 325.368 33.7583 324.738 34.575C324.131 35.3683 323.268 36.01 322.148 36.5C321.051 36.9667 319.791 37.2 318.368 37.2ZM320.258 26.455C320.888 26.0117 321.366 25.4633 321.693 24.81C322.043 24.1333 322.218 23.4333 322.218 22.71C322.218 21.7067 321.915 20.8667 321.308 20.19C320.701 19.49 319.85 19.14 318.753 19.14C317.703 19.14 316.863 19.4433 316.233 20.05C315.603 20.6567 315.288 21.4267 315.288 22.36C315.288 23.2233 315.708 23.9583 316.548 24.565C317.411 25.1483 318.648 25.7783 320.258 26.455ZM318.683 36.045C319.85 36.045 320.783 35.7183 321.483 35.065C322.183 34.4117 322.533 33.5717 322.533 32.545C322.533 31.8683 322.311 31.285 321.868 30.795C321.448 30.2817 320.888 29.85 320.188 29.5C319.511 29.1267 318.438 28.6133 316.968 27.96C316.245 28.45 315.685 29.0333 315.288 29.71C314.891 30.3867 314.693 31.1333 314.693 31.95C314.693 33.1633 315.055 34.155 315.778 34.925C316.525 35.6717 317.493 36.045 318.683 36.045Z" fill="#D77897"/>
<path d="M263.327 164.78C262.59 164.78 261.94 164.672 261.377 164.455C260.813 164.238 260.51 163.935 260.467 163.545V153.6H244.932C244.238 153.6 243.718 153.383 243.372 152.95C243.025 152.517 242.852 151.975 242.852 151.325C242.852 150.762 243.003 150.285 243.307 149.895L261.572 129.94C262.005 129.507 262.677 129.29 263.587 129.29C264.28 129.29 264.865 129.485 265.342 129.875C265.818 130.222 266.078 130.785 266.122 131.565V150.415H270.022C270.628 150.415 271.062 150.502 271.322 150.675C271.582 150.805 271.733 151.238 271.777 151.975C271.777 152.452 271.668 152.842 271.452 153.145C271.278 153.448 270.975 153.6 270.542 153.6H266.122V163.545C266.122 163.935 265.84 164.238 265.277 164.455C264.713 164.672 264.063 164.78 263.327 164.78ZM246.622 150.415H260.467V135.01L246.622 150.415Z" fill="#D77897"/>
<path d="M113.636 109.05C110.429 109.05 107.764 108.465 105.641 107.295C103.518 106.125 102.456 104.305 102.456 101.835C102.456 100.492 102.846 99.3216 103.626 98.325C104.449 97.285 105.533 96.765 106.876 96.765C107.699 96.765 108.393 96.9816 108.956 97.415C109.563 97.8483 109.866 98.2166 109.866 98.52C109.866 98.5633 109.671 98.7583 109.281 99.105C108.891 99.4516 108.523 99.885 108.176 100.405C107.873 100.882 107.721 101.445 107.721 102.095C107.721 103.568 108.241 104.695 109.281 105.475C110.364 106.255 111.859 106.645 113.766 106.645C116.149 106.645 117.926 105.8 119.096 104.11C120.309 102.42 120.916 100.21 120.916 97.48C120.916 94.9666 120.309 92.8866 119.096 91.24C117.883 89.55 115.998 88.705 113.441 88.705C112.271 88.705 111.253 88.9 110.386 89.29C109.563 89.6366 108.674 90.1566 107.721 90.85C107.158 91.24 106.681 91.5433 106.291 91.76C105.944 91.9333 105.598 92.02 105.251 92.02C104.558 92.02 104.211 91.4133 104.211 90.2L104.276 89.42L106.291 73.95H124.166C124.773 73.95 125.249 74.145 125.596 74.535C125.986 74.925 126.181 75.4666 126.181 76.16C126.181 77.7633 125.358 78.565 123.711 78.565H109.281L107.916 87.6C109.823 86.43 112.163 85.845 114.936 85.845C116.799 85.845 118.663 86.2566 120.526 87.08C122.433 87.9033 124.014 89.16 125.271 90.85C126.528 92.54 127.156 94.6416 127.156 97.155C127.156 99.6683 126.528 101.835 125.271 103.655C124.058 105.432 122.411 106.775 120.331 107.685C118.294 108.595 116.063 109.05 113.636 109.05Z" fill="#D77897"/>
<path d="M234.312 117.75C233.612 117.75 233.262 117.39 233.262 116.67C233.282 116.25 233.392 115.91 233.592 115.65C233.812 115.39 234.162 115.1 234.642 114.78C236.222 113.72 237.442 112.85 238.302 112.17C239.182 111.47 239.972 110.59 240.672 109.53C241.372 108.47 241.722 107.28 241.722 105.96C241.722 105 241.462 104.26 240.942 103.74C240.442 103.2 239.732 102.93 238.812 102.93C238.032 102.93 237.382 103.13 236.862 103.53C236.362 103.91 236.112 104.44 236.112 105.12C236.112 105.46 236.192 105.75 236.352 105.99C236.512 106.21 236.672 106.39 236.832 106.53C237.012 106.67 237.102 106.75 237.102 106.77C237.102 106.91 236.962 107.08 236.682 107.28C236.422 107.48 236.102 107.58 235.722 107.58C235.102 107.58 234.602 107.39 234.222 107.01C233.862 106.61 233.682 106.11 233.682 105.51C233.682 104.71 233.952 104.03 234.492 103.47C235.032 102.91 235.712 102.5 236.532 102.24C237.372 101.98 238.222 101.85 239.082 101.85C240.582 101.85 241.872 102.22 242.952 102.96C244.052 103.7 244.602 104.83 244.602 106.35C244.602 107.45 244.302 108.45 243.702 109.35C243.102 110.25 242.382 111.02 241.542 111.66C240.722 112.28 239.642 113.02 238.302 113.88C237.242 114.54 236.452 115.07 235.932 115.47V115.62H243.972C244.472 115.62 244.832 115.68 245.052 115.8C245.292 115.9 245.412 116.19 245.412 116.67C245.412 117.39 245.062 117.75 244.362 117.75H234.312Z" fill="#D77897"/>
<path d="M169.279 110.34C168.919 110.34 168.739 110.1 168.739 109.62C168.759 109.38 168.799 109.22 168.859 109.14C168.939 109.06 169.059 109.02 169.219 109.02C170.339 109.02 171.129 108.98 171.589 108.9C172.069 108.8 172.419 108.56 172.639 108.18C172.879 107.8 172.999 107.16 172.999 106.26V100.02C173.019 99.08 172.969 98.41 172.849 98.01C172.749 97.59 172.559 97.32 172.279 97.2C171.999 97.08 171.539 97.02 170.899 97.02H169.429C169.069 97.02 168.889 96.78 168.889 96.3C168.909 96 168.969 95.82 169.069 95.76C169.169 95.68 169.289 95.64 169.429 95.64C169.589 95.64 169.699 95.64 169.759 95.64C170.599 95.64 171.419 95.51 172.219 95.25C173.019 94.97 173.889 94.64 174.829 94.26C174.949 94.22 175.049 94.2 175.129 94.2C175.449 94.2 175.609 94.43 175.609 94.89V106.26C175.609 107.14 175.709 107.77 175.909 108.15C176.129 108.53 176.459 108.77 176.899 108.87C177.359 108.97 178.089 109.02 179.089 109.02H179.389C179.549 109.02 179.659 109.06 179.719 109.14C179.799 109.22 179.849 109.38 179.869 109.62C179.869 110.1 179.689 110.34 179.329 110.34C177.889 110.28 176.209 110.25 174.289 110.25C172.389 110.25 170.719 110.28 169.279 110.34Z" fill="#D77897"/>
<path d="M202.441 45.85C200.981 45.85 199.741 45.57 198.721 45.01C197.721 44.43 197.221 43.59 197.221 42.49C197.221 41.91 197.401 41.41 197.761 40.99C198.121 40.57 198.621 40.36 199.261 40.36C199.641 40.36 199.961 40.46 200.221 40.66C200.501 40.86 200.641 41.03 200.641 41.17C200.641 41.19 200.551 41.27 200.371 41.41C200.191 41.53 200.021 41.7 199.861 41.92C199.721 42.14 199.651 42.42 199.651 42.76C199.651 43.38 199.911 43.87 200.431 44.23C200.971 44.57 201.671 44.74 202.531 44.74C204.671 44.74 205.741 43.55 205.741 41.17C205.741 40.19 205.481 39.41 204.961 38.83C204.441 38.23 203.661 37.9 202.621 37.84H201.511C201.371 37.84 201.261 37.78 201.181 37.66C201.101 37.54 201.061 37.4 201.061 37.24C201.061 37.06 201.101 36.91 201.181 36.79C201.261 36.65 201.371 36.57 201.511 36.55H202.621C203.401 36.47 204.021 36.12 204.481 35.5C204.961 34.88 205.201 34.13 205.201 33.25C205.201 32.29 204.931 31.56 204.391 31.06C203.851 30.54 203.221 30.28 202.501 30.28C201.821 30.28 201.231 30.48 200.731 30.88C200.251 31.26 200.011 31.79 200.011 32.47C200.011 32.91 200.091 33.21 200.251 33.37C200.431 33.51 200.601 33.6 200.761 33.64C200.921 33.66 201.001 33.68 201.001 33.7C201.001 33.84 200.861 34.01 200.581 34.21C200.321 34.41 200.001 34.51 199.621 34.51C198.981 34.51 198.481 34.31 198.121 33.91C197.761 33.51 197.581 33 197.581 32.38C197.581 31.4 198.041 30.64 198.961 30.1C199.881 29.56 201.071 29.29 202.531 29.29C204.091 29.29 205.381 29.63 206.401 30.31C207.421 30.99 207.931 31.97 207.931 33.25C207.931 34.09 207.631 34.87 207.031 35.59C206.451 36.31 205.611 36.82 204.511 37.12V37.24C205.631 37.36 206.601 37.72 207.421 38.32C208.241 38.9 208.651 39.83 208.651 41.11C208.651 42.73 208.061 43.93 206.881 44.71C205.701 45.47 204.221 45.85 202.441 45.85Z" fill="#D77897"/>
<path d="M138.062 6.49997C137.362 6.49997 137.012 6.13997 137.012 5.41997C137.032 4.99997 137.142 4.65997 137.342 4.39997C137.562 4.13997 137.912 3.84997 138.392 3.52997C139.972 2.46997 141.192 1.59997 142.052 0.919971C142.932 0.219972 143.722 -0.660028 144.422 -1.72003C145.122 -2.78003 145.472 -3.97003 145.472 -5.29003C145.472 -6.25002 145.212 -6.99002 144.692 -7.51002C144.192 -8.05002 143.482 -8.32002 142.562 -8.32002C141.782 -8.32002 141.132 -8.12002 140.612 -7.72003C140.112 -7.34003 139.862 -6.81002 139.862 -6.13003C139.862 -5.79003 139.942 -5.50003 140.102 -5.26003C140.262 -5.04003 140.422 -4.86002 140.582 -4.72003C140.762 -4.58003 140.852 -4.50003 140.852 -4.48003C140.852 -4.34003 140.712 -4.17003 140.432 -3.97003C140.172 -3.77003 139.852 -3.67003 139.472 -3.67003C138.852 -3.67003 138.352 -3.86003 137.972 -4.24003C137.612 -4.64003 137.432 -5.14003 137.432 -5.74003C137.432 -6.54002 137.702 -7.22002 138.242 -7.78002C138.782 -8.34002 139.462 -8.75002 140.282 -9.01002C141.122 -9.27002 141.972 -9.40002 142.832 -9.40002C144.332 -9.40002 145.622 -9.03002 146.702 -8.29002C147.802 -7.55002 148.352 -6.42003 148.352 -4.90003C148.352 -3.80003 148.052 -2.80003 147.452 -1.90003C146.852 -1.00003 146.132 -0.230027 145.292 0.409973C144.472 1.02997 143.392 1.76997 142.052 2.62997C140.992 3.28997 140.202 3.81997 139.682 4.21997V4.36997H147.722C148.222 4.36997 148.582 4.42997 148.802 4.54997C149.042 4.64997 149.162 4.93997 149.162 5.41997C149.162 6.13997 148.812 6.49997 148.112 6.49997H138.062Z" fill="#D77897"/>
<path d="M240.073 28.35C238.173 28.35 236.653 27.76 235.513 26.58C234.393 25.4 233.833 23.79 233.833 21.75C233.833 20.13 234.213 18.62 234.973 17.22C235.753 15.82 236.843 14.65 238.243 13.71C239.643 12.75 241.243 12.11 243.043 11.79C243.143 11.77 243.293 11.76 243.493 11.76C243.893 11.76 244.093 11.94 244.093 12.3C244.093 12.62 243.913 12.83 243.553 12.93C239.893 14.07 237.713 16.12 237.013 19.08C237.673 18.64 238.323 18.33 238.963 18.15C239.623 17.97 240.303 17.88 241.003 17.88C241.963 17.88 242.843 18.1 243.643 18.54C244.443 18.96 245.073 19.55 245.533 20.31C245.993 21.05 246.223 21.9 246.223 22.86C246.223 23.94 245.933 24.9 245.353 25.74C244.773 26.56 244.013 27.2 243.073 27.66C242.133 28.12 241.133 28.35 240.073 28.35ZM240.073 27.39C241.013 27.39 241.793 27 242.413 26.22C243.033 25.42 243.343 24.39 243.343 23.13C243.343 21.95 243.033 21.01 242.413 20.31C241.793 19.59 240.983 19.23 239.983 19.23C239.483 19.23 238.963 19.36 238.423 19.62C237.883 19.86 237.373 20.19 236.893 20.61C236.773 21.09 236.713 21.48 236.713 21.78C236.713 22.58 236.813 23.41 237.013 24.27C237.233 25.13 237.593 25.87 238.093 26.49C238.613 27.09 239.273 27.39 240.073 27.39Z" fill="#D77897"/>
<path d="M83.6907 205.85C82.2307 205.85 80.9907 205.57 79.9707 205.01C78.9707 204.43 78.4707 203.59 78.4707 202.49C78.4707 201.91 78.6507 201.41 79.0107 200.99C79.3707 200.57 79.8707 200.36 80.5107 200.36C80.8907 200.36 81.2107 200.46 81.4707 200.66C81.7507 200.86 81.8907 201.03 81.8907 201.17C81.8907 201.19 81.8007 201.27 81.6207 201.41C81.4407 201.53 81.2707 201.7 81.1107 201.92C80.9707 202.14 80.9007 202.42 80.9007 202.76C80.9007 203.38 81.1607 203.87 81.6807 204.23C82.2207 204.57 82.9207 204.74 83.7807 204.74C85.9207 204.74 86.9907 203.55 86.9907 201.17C86.9907 200.19 86.7307 199.41 86.2107 198.83C85.6907 198.23 84.9107 197.9 83.8707 197.84H82.7607C82.6207 197.84 82.5107 197.78 82.4307 197.66C82.3507 197.54 82.3107 197.4 82.3107 197.24C82.3107 197.06 82.3507 196.91 82.4307 196.79C82.5107 196.65 82.6207 196.57 82.7607 196.55H83.8707C84.6507 196.47 85.2707 196.12 85.7307 195.5C86.2107 194.88 86.4507 194.13 86.4507 193.25C86.4507 192.29 86.1807 191.56 85.6407 191.06C85.1007 190.54 84.4707 190.28 83.7507 190.28C83.0707 190.28 82.4807 190.48 81.9807 190.88C81.5007 191.26 81.2607 191.79 81.2607 192.47C81.2607 192.91 81.3407 193.21 81.5007 193.37C81.6807 193.51 81.8507 193.6 82.0107 193.64C82.1707 193.66 82.2507 193.68 82.2507 193.7C82.2507 193.84 82.1107 194.01 81.8307 194.21C81.5707 194.41 81.2507 194.51 80.8707 194.51C80.2307 194.51 79.7307 194.31 79.3707 193.91C79.0107 193.51 78.8307 193 78.8307 192.38C78.8307 191.4 79.2907 190.64 80.2107 190.1C81.1307 189.56 82.3207 189.29 83.7807 189.29C85.3407 189.29 86.6307 189.63 87.6507 190.31C88.6707 190.99 89.1807 191.97 89.1807 193.25C89.1807 194.09 88.8807 194.87 88.2807 195.59C87.7007 196.31 86.8607 196.82 85.7607 197.12V197.24C86.8807 197.36 87.8507 197.72 88.6707 198.32C89.4907 198.9 89.9007 199.83 89.9007 201.11C89.9007 202.73 89.3107 203.93 88.1307 204.71C86.9507 205.47 85.4707 205.85 83.6907 205.85Z" fill="#D77897"/>
<path d="M23.64 232.1C22.08 232.1 20.76 231.72 19.68 230.96C18.62 230.2 17.82 229.19 17.28 227.93C16.76 226.67 16.5 225.3 16.5 223.82C16.5 222.32 16.76 220.95 17.28 219.71C17.82 218.47 18.62 217.48 19.68 216.74C20.76 215.98 22.08 215.6 23.64 215.6C25.12 215.6 26.4 215.98 27.48 216.74C28.56 217.5 29.38 218.51 29.94 219.77C30.5 221.03 30.78 222.38 30.78 223.82C30.78 225.26 30.5 226.61 29.94 227.87C29.38 229.13 28.56 230.15 27.48 230.93C26.4 231.71 25.12 232.1 23.64 232.1ZM23.67 230.99C25.01 230.99 26.05 230.37 26.79 229.13C27.53 227.89 27.9 226.12 27.9 223.82C27.9 221.52 27.53 219.76 26.79 218.54C26.05 217.32 25.01 216.71 23.67 216.71C22.29 216.71 21.23 217.32 20.49 218.54C19.75 219.74 19.38 221.5 19.38 223.82C19.38 226.14 19.75 227.92 20.49 229.16C21.23 230.38 22.29 230.99 23.67 230.99Z" fill="#D77897"/>
<path d="M272.068 228.35C271.808 228.35 271.578 228.23 271.378 227.99C271.178 227.77 271.078 227.46 271.078 227.06C271.078 226.18 271.568 224.75 272.548 222.77C273.548 220.77 274.848 218.33 276.448 215.45L277.138 214.22H271.888C271.348 214.22 270.938 214.26 270.658 214.34C270.398 214.42 270.178 214.61 269.998 214.91C269.838 215.21 269.718 215.68 269.638 216.32C269.598 216.48 269.528 216.6 269.428 216.68C269.348 216.74 269.188 216.77 268.948 216.77C268.608 216.77 268.438 216.6 268.438 216.26L268.558 212.75C268.558 212.31 268.848 212.09 269.428 212.09H278.578C279.158 212.09 279.448 212.28 279.448 212.66C279.448 212.96 279.228 213.48 278.788 214.22C278.048 215.46 277.358 216.85 276.718 218.39C276.098 219.91 275.408 221.72 274.648 223.82C274.028 225.52 273.578 226.71 273.298 227.39C272.998 228.03 272.588 228.35 272.068 228.35Z" fill="#D77897"/>
<path d="M344.655 153.35C343.495 153.35 342.465 153.16 341.565 152.78C340.685 152.4 340.005 151.88 339.525 151.22C339.045 150.56 338.805 149.81 338.805 148.97C338.805 148.09 339.095 147.33 339.675 146.69C340.275 146.03 341.155 145.45 342.315 144.95C341.355 144.37 340.645 143.78 340.185 143.18C339.745 142.58 339.525 141.9 339.525 141.14C339.525 140.36 339.785 139.64 340.305 138.98C340.825 138.32 341.515 137.8 342.375 137.42C343.235 137.04 344.155 136.85 345.135 136.85C346.135 136.85 347.025 137.03 347.805 137.39C348.585 137.75 349.195 138.24 349.635 138.86C350.075 139.48 350.295 140.18 350.295 140.96C350.295 141.68 350.045 142.36 349.545 143C349.045 143.62 348.295 144.18 347.295 144.68C348.615 145.24 349.545 145.83 350.085 146.45C350.645 147.07 350.925 147.86 350.925 148.82C350.925 149.64 350.655 150.4 350.115 151.1C349.595 151.78 348.855 152.33 347.895 152.75C346.955 153.15 345.875 153.35 344.655 153.35ZM346.275 144.14C346.815 143.76 347.225 143.29 347.505 142.73C347.805 142.15 347.955 141.55 347.955 140.93C347.955 140.07 347.695 139.35 347.175 138.77C346.655 138.17 345.925 137.87 344.985 137.87C344.085 137.87 343.365 138.13 342.825 138.65C342.285 139.17 342.015 139.83 342.015 140.63C342.015 141.37 342.375 142 343.095 142.52C343.835 143.02 344.895 143.56 346.275 144.14ZM344.925 152.36C345.925 152.36 346.725 152.08 347.325 151.52C347.925 150.96 348.225 150.24 348.225 149.36C348.225 148.78 348.035 148.28 347.655 147.86C347.295 147.42 346.815 147.05 346.215 146.75C345.635 146.43 344.715 145.99 343.455 145.43C342.835 145.85 342.355 146.35 342.015 146.93C341.675 147.51 341.505 148.15 341.505 148.85C341.505 149.89 341.815 150.74 342.435 151.4C343.075 152.04 343.905 152.36 344.925 152.36Z" fill="#D77897"/>
<path d="M298.029 91.59C297.669 91.59 297.489 91.35 297.489 90.87C297.509 90.63 297.549 90.47 297.609 90.39C297.689 90.31 297.809 90.27 297.969 90.27C299.089 90.27 299.879 90.23 300.339 90.15C300.819 90.05 301.169 89.81 301.389 89.43C301.629 89.05 301.749 88.41 301.749 87.51V81.27C301.769 80.33 301.719 79.66 301.599 79.26C301.499 78.84 301.309 78.57 301.029 78.45C300.749 78.33 300.289 78.27 299.649 78.27H298.179C297.819 78.27 297.639 78.03 297.639 77.55C297.659 77.25 297.719 77.07 297.819 77.01C297.919 76.93 298.039 76.89 298.179 76.89C298.339 76.89 298.449 76.89 298.509 76.89C299.349 76.89 300.169 76.76 300.969 76.5C301.769 76.22 302.639 75.89 303.579 75.51C303.699 75.47 303.799 75.45 303.879 75.45C304.199 75.45 304.359 75.68 304.359 76.14V87.51C304.359 88.39 304.459 89.02 304.659 89.4C304.879 89.78 305.209 90.02 305.649 90.12C306.109 90.22 306.839 90.27 307.839 90.27H308.139C308.299 90.27 308.409 90.31 308.469 90.39C308.549 90.47 308.599 90.63 308.619 90.87C308.619 91.35 308.439 91.59 308.079 91.59C306.639 91.53 304.959 91.5 303.039 91.5C301.139 91.5 299.469 91.53 298.029 91.59Z" fill="#D77897"/>
<path d="M182.155 188.35C180.995 188.35 179.965 188.16 179.065 187.78C178.185 187.4 177.505 186.88 177.025 186.22C176.545 185.56 176.305 184.81 176.305 183.97C176.305 183.09 176.595 182.33 177.175 181.69C177.775 181.03 178.655 180.45 179.815 179.95C178.855 179.37 178.145 178.78 177.685 178.18C177.245 177.58 177.025 176.9 177.025 176.14C177.025 175.36 177.285 174.64 177.805 173.98C178.325 173.32 179.015 172.8 179.875 172.42C180.735 172.04 181.655 171.85 182.635 171.85C183.635 171.85 184.525 172.03 185.305 172.39C186.085 172.75 186.695 173.24 187.135 173.86C187.575 174.48 187.795 175.18 187.795 175.96C187.795 176.68 187.545 177.36 187.045 178C186.545 178.62 185.795 179.18 184.795 179.68C186.115 180.24 187.045 180.83 187.585 181.45C188.145 182.07 188.425 182.86 188.425 183.82C188.425 184.64 188.155 185.4 187.615 186.1C187.095 186.78 186.355 187.33 185.395 187.75C184.455 188.15 183.375 188.35 182.155 188.35ZM183.775 179.14C184.315 178.76 184.725 178.29 185.005 177.73C185.305 177.15 185.455 176.55 185.455 175.93C185.455 175.07 185.195 174.35 184.675 173.77C184.155 173.17 183.425 172.87 182.485 172.87C181.585 172.87 180.865 173.13 180.325 173.65C179.785 174.17 179.515 174.83 179.515 175.63C179.515 176.37 179.875 177 180.595 177.52C181.335 178.02 182.395 178.56 183.775 179.14ZM182.425 187.36C183.425 187.36 184.225 187.08 184.825 186.52C185.425 185.96 185.725 185.24 185.725 184.36C185.725 183.78 185.535 183.28 185.155 182.86C184.795 182.42 184.315 182.05 183.715 181.75C183.135 181.43 182.215 180.99 180.955 180.43C180.335 180.85 179.855 181.35 179.515 181.93C179.175 182.51 179.005 183.15 179.005 183.85C179.005 184.89 179.315 185.74 179.935 186.4C180.575 187.04 181.405 187.36 182.425 187.36Z" fill="#D77897"/>
<path d="M126.812 167.75C126.112 167.75 125.762 167.39 125.762 166.67C125.782 166.25 125.892 165.91 126.092 165.65C126.312 165.39 126.662 165.1 127.142 164.78C128.722 163.72 129.942 162.85 130.802 162.17C131.682 161.47 132.472 160.59 133.172 159.53C133.872 158.47 134.222 157.28 134.222 155.96C134.222 155 133.962 154.26 133.442 153.74C132.942 153.2 132.232 152.93 131.312 152.93C130.532 152.93 129.882 153.13 129.362 153.53C128.862 153.91 128.612 154.44 128.612 155.12C128.612 155.46 128.692 155.75 128.852 155.99C129.012 156.21 129.172 156.39 129.332 156.53C129.512 156.67 129.602 156.75 129.602 156.77C129.602 156.91 129.462 157.08 129.182 157.28C128.922 157.48 128.602 157.58 128.222 157.58C127.602 157.58 127.102 157.39 126.722 157.01C126.362 156.61 126.182 156.11 126.182 155.51C126.182 154.71 126.452 154.03 126.992 153.47C127.532 152.91 128.212 152.5 129.032 152.24C129.872 151.98 130.722 151.85 131.582 151.85C133.082 151.85 134.372 152.22 135.452 152.96C136.552 153.7 137.102 154.83 137.102 156.35C137.102 157.45 136.802 158.45 136.202 159.35C135.602 160.25 134.882 161.02 134.042 161.66C133.222 162.28 132.142 163.02 130.802 163.88C129.742 164.54 128.952 165.07 128.432 165.47V165.62H136.472C136.972 165.62 137.332 165.68 137.552 165.8C137.792 165.9 137.912 166.19 137.912 166.67C137.912 167.39 137.562 167.75 136.862 167.75H126.812Z" fill="#D77897"/>
<path d="M47.9476 117.16C47.8476 117.18 47.6976 117.19 47.4976 117.19C47.0976 117.19 46.8976 117.01 46.8976 116.65C46.8976 116.33 47.0776 116.12 47.4376 116.02C51.0976 114.88 53.2776 112.83 53.9776 109.87C53.3176 110.31 52.6576 110.62 51.9976 110.8C51.3576 110.98 50.6876 111.07 49.9876 111.07C49.0276 111.07 48.1476 110.86 47.3476 110.44C46.5476 110 45.9176 109.41 45.4576 108.67C44.9976 107.91 44.7676 107.05 44.7676 106.09C44.7676 105.01 45.0576 104.06 45.6376 103.24C46.2176 102.4 46.9776 101.75 47.9176 101.29C48.8576 100.83 49.8576 100.6 50.9176 100.6C52.8176 100.6 54.3276 101.19 55.4476 102.37C56.5876 103.55 57.1576 105.16 57.1576 107.2C57.1576 108.82 56.7676 110.33 55.9876 111.73C55.2276 113.13 54.1476 114.31 52.7476 115.27C51.3476 116.21 49.7476 116.84 47.9476 117.16ZM51.0076 109.72C51.5076 109.72 52.0276 109.6 52.5676 109.36C53.1076 109.1 53.6176 108.76 54.0976 108.34C54.2176 107.86 54.2776 107.47 54.2776 107.17C54.2776 106.37 54.1676 105.54 53.9476 104.68C53.7476 103.82 53.3876 103.09 52.8676 102.49C52.3676 101.87 51.7176 101.56 50.9176 101.56C49.9776 101.56 49.1976 101.96 48.5776 102.76C47.9576 103.54 47.6476 104.56 47.6476 105.82C47.6476 107 47.9576 107.95 48.5776 108.67C49.1976 109.37 50.0076 109.72 51.0076 109.72Z" fill="#D77897"/>
<path d="M34.2793 77.84C33.9193 77.84 33.7393 77.6 33.7393 77.12C33.7593 76.88 33.7993 76.72 33.8593 76.64C33.9393 76.56 34.0593 76.52 34.2193 76.52C35.3393 76.52 36.1293 76.48 36.5893 76.4C37.0693 76.3 37.4193 76.06 37.6393 75.68C37.8793 75.3 37.9993 74.66 37.9993 73.76V67.52C38.0193 66.58 37.9693 65.91 37.8493 65.51C37.7493 65.09 37.5593 64.82 37.2793 64.7C36.9993 64.58 36.5393 64.52 35.8993 64.52H34.4293C34.0693 64.52 33.8893 64.28 33.8893 63.8C33.9093 63.5 33.9693 63.32 34.0693 63.26C34.1693 63.18 34.2893 63.14 34.4293 63.14C34.5893 63.14 34.6993 63.14 34.7593 63.14C35.5993 63.14 36.4193 63.01 37.2193 62.75C38.0193 62.47 38.8893 62.14 39.8293 61.76C39.9493 61.72 40.0493 61.7 40.1293 61.7C40.4493 61.7 40.6093 61.93 40.6093 62.39V73.76C40.6093 74.64 40.7093 75.27 40.9093 75.65C41.1293 76.03 41.4593 76.27 41.8993 76.37C42.3593 76.47 43.0893 76.52 44.0893 76.52H44.3893C44.5493 76.52 44.6593 76.56 44.7193 76.64C44.7993 76.72 44.8493 76.88 44.8693 77.12C44.8693 77.6 44.6893 77.84 44.3293 77.84C42.8893 77.78 41.2093 77.75 39.2893 77.75C37.3893 77.75 35.7193 77.78 34.2793 77.84Z" fill="#D77897"/>
<path d="M77.1547 53.35C75.9947 53.35 74.9647 53.16 74.0647 52.78C73.1847 52.4 72.5047 51.88 72.0247 51.22C71.5447 50.56 71.3047 49.81 71.3047 48.97C71.3047 48.09 71.5947 47.33 72.1747 46.69C72.7747 46.03 73.6547 45.45 74.8147 44.95C73.8547 44.37 73.1447 43.78 72.6847 43.18C72.2447 42.58 72.0247 41.9 72.0247 41.14C72.0247 40.36 72.2847 39.64 72.8047 38.98C73.3247 38.32 74.0147 37.8 74.8747 37.42C75.7347 37.04 76.6547 36.85 77.6347 36.85C78.6347 36.85 79.5247 37.03 80.3047 37.39C81.0847 37.75 81.6947 38.24 82.1347 38.86C82.5747 39.48 82.7947 40.18 82.7947 40.96C82.7947 41.68 82.5447 42.36 82.0447 43C81.5447 43.62 80.7947 44.18 79.7947 44.68C81.1147 45.24 82.0447 45.83 82.5847 46.45C83.1447 47.07 83.4247 47.86 83.4247 48.82C83.4247 49.64 83.1547 50.4 82.6147 51.1C82.0947 51.78 81.3547 52.33 80.3947 52.75C79.4547 53.15 78.3747 53.35 77.1547 53.35ZM78.7747 44.14C79.3147 43.76 79.7247 43.29 80.0047 42.73C80.3047 42.15 80.4547 41.55 80.4547 40.93C80.4547 40.07 80.1947 39.35 79.6747 38.77C79.1547 38.17 78.4247 37.87 77.4847 37.87C76.5847 37.87 75.8647 38.13 75.3247 38.65C74.7847 39.17 74.5147 39.83 74.5147 40.63C74.5147 41.37 74.8747 42 75.5947 42.52C76.3347 43.02 77.3947 43.56 78.7747 44.14ZM77.4247 52.36C78.4247 52.36 79.2247 52.08 79.8247 51.52C80.4247 50.96 80.7247 50.24 80.7247 49.36C80.7247 48.78 80.5347 48.28 80.1547 47.86C79.7947 47.42 79.3147 47.05 78.7147 46.75C78.1347 46.43 77.2147 45.99 75.9547 45.43C75.3347 45.85 74.8547 46.35 74.5147 46.93C74.1747 47.51 74.0047 48.15 74.0047 48.85C74.0047 49.89 74.3147 50.74 74.9347 51.4C75.5747 52.04 76.4047 52.36 77.4247 52.36Z" fill="#D77897"/>
<path d="M71.8117 0.249985C71.1117 0.249985 70.7617 -0.110016 70.7617 -0.830016C70.7817 -1.25002 70.8917 -1.59002 71.0917 -1.85002C71.3117 -2.11002 71.6617 -2.40002 72.1417 -2.72002C73.7217 -3.78002 74.9417 -4.65002 75.8017 -5.33002C76.6817 -6.03002 77.4717 -6.91002 78.1717 -7.97002C78.8717 -9.03002 79.2217 -10.22 79.2217 -11.54C79.2217 -12.5 78.9617 -13.24 78.4417 -13.76C77.9417 -14.3 77.2317 -14.57 76.3117 -14.57C75.5317 -14.57 74.8817 -14.37 74.3617 -13.97C73.8617 -13.59 73.6117 -13.06 73.6117 -12.38C73.6117 -12.04 73.6917 -11.75 73.8517 -11.51C74.0117 -11.29 74.1717 -11.11 74.3317 -10.97C74.5117 -10.83 74.6017 -10.75 74.6017 -10.73C74.6017 -10.59 74.4617 -10.42 74.1817 -10.22C73.9217 -10.02 73.6017 -9.92002 73.2217 -9.92002C72.6017 -9.92002 72.1017 -10.11 71.7217 -10.49C71.3617 -10.89 71.1817 -11.39 71.1817 -11.99C71.1817 -12.79 71.4517 -13.47 71.9917 -14.03C72.5317 -14.59 73.2117 -15 74.0317 -15.26C74.8717 -15.52 75.7217 -15.65 76.5817 -15.65C78.0817 -15.65 79.3717 -15.28 80.4517 -14.54C81.5517 -13.8 82.1017 -12.67 82.1017 -11.15C82.1017 -10.05 81.8017 -9.05002 81.2017 -8.15002C80.6017 -7.25002 79.8817 -6.48002 79.0417 -5.84002C78.2217 -5.22002 77.1417 -4.48002 75.8017 -3.62002C74.7417 -2.96002 73.9517 -2.43002 73.4317 -2.03002V-1.88002H81.4717C81.9717 -1.88002 82.3317 -1.82002 82.5517 -1.70002C82.7917 -1.60002 82.9117 -1.31002 82.9117 -0.830016C82.9117 -0.110016 82.5617 0.249985 81.8617 0.249985H71.8117Z" fill="#D77897"/>
</g>
<defs>
<linearGradient id="paint0_linear_0_1938" x1="194" y1="-83.9999" x2="194" y2="314" gradientUnits="userSpaceOnUse">
<stop stop-color="#C4C4C4" stop-opacity="0"/>
<stop offset="0.598327" stop-color="#C4C4C4"/>
</linearGradient>
</defs>
</svg>
