<svg width="16" height="16" viewBox="0 0 16 16" fill="none" xmlns="http://www.w3.org/2000/svg">
<path fill-rule="evenodd" clip-rule="evenodd" d="M8.43527 3.26441C8.32999 3.29329 8.21815 3.28691 8.11683 3.24626L5.45571 2.17857C5.17643 2.06651 4.86217 2.22474 4.78587 2.51582L4.06829 5.25325C4.04024 5.36026 3.97749 5.45495 3.88987 5.52248L1.63779 7.25832C1.39662 7.44421 1.37619 7.80069 1.59456 8.0129L3.63043 9.99144C3.71006 10.0688 3.76166 10.1705 3.7771 10.2805L4.17049 13.0816C4.21242 13.3801 4.50712 13.574 4.7979 13.4942L7.5645 12.7353C7.66977 12.7064 7.78161 12.7128 7.88293 12.7534L10.5445 13.8212C10.8238 13.9332 11.138 13.775 11.2143 13.4839L11.9319 10.7465C11.96 10.6395 12.0227 10.5448 12.1103 10.4772L14.3624 8.74142C14.6036 8.55552 14.624 8.19902 14.4056 7.98681L12.3694 6.0083C12.2897 5.93089 12.2381 5.82917 12.2227 5.71917L11.8297 2.91822C11.7878 2.6196 11.4931 2.42574 11.2023 2.5055L8.43527 3.26441Z" fill="#FFCB7C" stroke="#27272A"/>
</svg>
