<svg width="16" height="16" viewBox="0 0 16 16" fill="none" xmlns="http://www.w3.org/2000/svg">
<g clip-path="url(#clip0_0_450)">
<path d="M7.46694 4.8L7.30921 4.32667C7.19225 3.97585 7.15697 3.60295 7.20605 3.23643C7.25513 2.8699 7.38728 2.51942 7.59241 2.21173C7.85833 1.81283 8.00025 1.34415 8.00027 0.864733V0L8.77527 1.54993C8.86581 1.73106 8.91294 1.93077 8.91294 2.13327C8.91294 2.33576 8.86581 2.53547 8.77527 2.7166C8.69866 2.86981 8.65297 3.03662 8.64083 3.20749C8.62868 3.37836 8.65031 3.54995 8.70447 3.71247L9.06694 4.8H7.46694Z" fill="#27272A" stroke="#27272A" stroke-width="0.5"/>
<path d="M8.53359 11.2L8.69133 11.6733C8.80828 12.0242 8.84356 12.3971 8.79448 12.7636C8.7454 13.1301 8.61326 13.4806 8.40813 13.7883C8.1422 14.1872 8.00029 14.6559 8.00026 15.1353V16L7.22526 14.4501C7.13473 14.269 7.0876 14.0692 7.0876 13.8667C7.0876 13.6643 7.13473 13.4645 7.22526 13.2834C7.30188 13.1302 7.34756 12.9634 7.35971 12.7925C7.37186 12.6216 7.35023 12.4501 7.29606 12.2875L6.93359 11.2H8.53359Z" fill="#27272A" stroke="#27272A" stroke-width="0.5"/>
<path d="M6.11404 10.64L5.89091 11.0862C5.72554 11.417 5.48681 11.7056 5.19293 11.9301C4.89905 12.1545 4.55779 12.3089 4.19517 12.3814C3.72505 12.4755 3.29327 12.7066 2.95424 13.0456L2.34277 13.657L2.89077 12.013C2.95481 11.8209 3.0627 11.6463 3.2059 11.5031C3.34909 11.3599 3.52366 11.2521 3.71577 11.188C3.87829 11.1339 4.02855 11.0482 4.15797 10.936C4.28738 10.8237 4.39343 10.6871 4.47004 10.5339L4.98264 9.50862L6.11404 10.64Z" fill="#27272A" stroke="#27272A" stroke-width="0.5"/>
<path d="M9.88574 5.36008L10.1089 4.91388C10.2742 4.58312 10.513 4.2945 10.8069 4.07004C11.1007 3.84558 11.442 3.6912 11.8046 3.61868C12.2747 3.52463 12.7065 3.29355 13.0455 2.95455L13.657 2.34308L13.109 3.98708C13.045 4.17919 12.9371 4.35376 12.7939 4.49695C12.6507 4.64015 12.4761 4.74804 12.284 4.81208C12.1215 4.86624 11.9712 4.95189 11.8418 5.06413C11.7124 5.17636 11.6064 5.31299 11.5297 5.46621L11.0171 6.49148L9.88574 5.36008Z" fill="#27272A" stroke="#27272A" stroke-width="0.5"/>
<path d="M10.6402 9.88543L11.0864 10.1086C11.4171 10.2739 11.7058 10.5127 11.9302 10.8065C12.1547 11.1004 12.3091 11.4417 12.3816 11.8043C12.4756 12.2744 12.7067 12.7062 13.0457 13.0452L13.6572 13.6567L12.0132 13.1087C11.8211 13.0447 11.6465 12.9368 11.5033 12.7936C11.3601 12.6504 11.2522 12.4758 11.1882 12.2837C11.134 12.1212 11.0484 11.9709 10.9361 11.8415C10.8239 11.7121 10.6873 11.606 10.5341 11.5294L9.50879 11.0168L10.6402 9.88543Z" fill="#27272A" stroke="#27272A" stroke-width="0.5"/>
<path d="M5.35977 6.11413L4.91357 5.891C4.58282 5.72563 4.2942 5.4869 4.06973 5.19302C3.84527 4.89914 3.69089 4.55788 3.61837 4.19526C3.52432 3.72514 3.29324 3.29336 2.95424 2.95433L2.34277 2.34286L3.98677 2.89087C4.17889 2.95491 4.35345 3.06279 4.49665 3.20599C4.63984 3.34918 4.74773 3.52375 4.81177 3.71587C4.86594 3.87838 4.95159 4.02864 5.06382 4.15806C5.17606 4.28747 5.31269 4.39352 5.46591 4.47013L6.49117 4.98273L5.35977 6.11413Z" fill="#27272A" stroke="#27272A" stroke-width="0.5"/>
<path d="M4.8 8.53332L4.32667 8.69106C3.97585 8.80801 3.60295 8.84329 3.23643 8.79421C2.8699 8.74513 2.51942 8.61299 2.21173 8.40786C1.81283 8.14194 1.34415 8.00002 0.864733 7.99999H0L1.54993 7.22499C1.73106 7.13446 1.93077 7.08733 2.13327 7.08733C2.33576 7.08733 2.53547 7.13446 2.7166 7.22499C2.86981 7.30161 3.03662 7.34729 3.20749 7.35944C3.37836 7.37159 3.54995 7.34996 3.71247 7.29579L4.8 6.93332V8.53332Z" fill="#27272A" stroke="#27272A" stroke-width="0.5"/>
<path d="M11.2002 7.46647L11.6735 7.30874C12.0243 7.19179 12.3972 7.15651 12.7638 7.20559C13.1303 7.25467 13.4808 7.38681 13.7885 7.59194C14.1874 7.85787 14.656 7.99978 15.1355 7.99981H16.0002L14.4503 8.77481C14.2691 8.86534 14.0694 8.91247 13.8669 8.91247C13.6644 8.91247 13.4647 8.86534 13.2836 8.77481C13.1304 8.69819 12.9636 8.65251 12.7927 8.64036C12.6218 8.62821 12.4502 8.64984 12.2877 8.70401L11.2002 9.06648V7.46647Z" fill="#27272A" stroke="#27272A" stroke-width="0.5"/>
<path d="M8.00019 12.8C10.6512 12.8 12.8002 10.651 12.8002 8C12.8002 5.34903 10.6512 3.2 8.00019 3.2C5.34923 3.2 3.2002 5.34903 3.2002 8C3.2002 10.651 5.34923 12.8 8.00019 12.8Z" fill="#FFC15A" stroke="#27272A"/>
</g>
<defs>
<clipPath id="clip0_0_450">
<rect width="16" height="16" fill="white"/>
</clipPath>
</defs>
</svg>
