<svg width="16" height="16" viewBox="0 0 16 16" fill="none" xmlns="http://www.w3.org/2000/svg">
<path fill-rule="evenodd" clip-rule="evenodd" d="M14.5513 11.7992C10.7401 11.7992 7.64927 8.7605 7.64927 5.01342C7.64927 3.60788 8.08548 2.2993 8.82874 1.21478C5.11658 1.32655 2.13574 4.32034 2.13574 8.00006C2.13574 11.7466 5.23017 14.7853 9.0414 14.7853C11.4226 14.7853 13.5233 13.5998 14.7634 11.7992C14.6913 11.7992 14.6234 11.7992 14.5513 11.7992V11.7992Z" fill="#FFC15A"/>
<path fill-rule="evenodd" clip-rule="evenodd" d="M-nan -nanL14.5513 11.7992C10.7401 11.7992 7.64927 8.7605 7.64927 5.01342C7.64927 3.9577 7.89537 2.95669 8.33283 2.06423C8.51291 1.69686 8.25296 1.2436 7.84971 1.31273C4.60612 1.8688 2.13574 4.6502 2.13574 8.00006C2.13574 11.7466 5.23017 14.7853 9.0414 14.7853C11.3721 14.7853 13.4341 13.6495 14.6834 11.9129C14.7178 11.8651 14.6832 11.7992 14.6244 11.7992C14.6003 11.7992 14.576 11.7992 14.5513 11.7992L-nan -nanL-nan -nanZ" stroke="#27272A"/>
</svg>
