<svg width="208" height="128" viewBox="0 0 208 128" fill="none" xmlns="http://www.w3.org/2000/svg">
<path d="M68.8486 58.3211C68.8486 43.0613 68.8486 27.8013 68.8486 12.5519C68.8486 10.369 68.9326 10.285 71.1051 10.285C88.0547 10.285 105.004 10.285 121.954 10.285C123.864 10.285 123.948 10.369 123.948 12.2266C123.948 13.612 124.011 14.9973 123.927 16.3722C123.864 17.4112 124.231 17.81 125.249 18.0829C134.663 20.6122 144.067 23.215 153.471 25.7968C155.118 26.2481 155.265 26.5105 154.814 28.1582C146.67 57.8384 138.515 87.508 130.371 117.188C129.93 118.804 129.731 118.92 128.125 118.479C113.873 114.575 99.6098 110.66 85.3469 106.767C84.4549 106.525 83.5103 106.41 82.5867 106.399C78.6616 106.357 74.7364 106.389 70.8112 106.378C69.0165 106.378 68.8486 106.2 68.8486 104.363C68.8486 89.0088 68.8486 73.665 68.8486 58.3211ZM71.4514 13.2027C71.4514 43.3761 71.4514 73.4131 71.4514 103.461C88.1491 103.461 104.752 103.461 121.356 103.461C121.356 73.3292 121.356 43.2922 121.356 13.2027C104.7 13.2027 88.1281 13.2027 71.4514 13.2027ZM124.053 24.6318C124 25.0516 123.958 25.2615 123.958 25.4819C123.958 33.5107 123.937 41.5395 124 49.5682C124 50.072 124.536 50.7332 125.008 51.0375C135.545 57.7439 135.577 72.9408 125.018 79.5947C124.263 80.0775 123.927 80.5498 123.937 81.4839C123.979 88.3477 123.958 95.222 123.958 102.086C123.958 102.516 123.958 102.946 123.958 103.461C125.228 103.398 126.32 103.345 127.485 103.282C133.415 81.6518 139.334 60.0738 145.264 38.4749C141.275 36.4073 139.743 33.1644 140.299 28.8404C134.863 27.434 129.542 26.0487 124.053 24.6318ZM128.429 116.412C136.553 86.7839 144.634 57.3136 152.736 27.7594C143.06 25.1041 133.582 22.5013 124.105 19.8985C123.696 22.3544 123.696 22.3544 125.869 22.9211C130.948 24.2435 136.038 25.5659 141.118 26.8883C142.745 27.3081 142.839 27.476 142.461 29.1028C141.716 32.2828 143.196 35.3369 146.24 36.4913C147.53 36.9846 147.656 37.6668 147.331 38.8422C141.359 60.5671 135.398 82.2815 129.468 104.017C129.122 105.297 128.555 105.812 127.212 105.507C124.578 104.93 121.24 106.809 120.432 109.506C120.096 110.639 119.435 110.839 118.407 110.545C116.056 109.873 113.652 109.359 111.333 108.561C105.351 106.504 99.232 105.875 92.5571 106.546C104.689 109.894 116.465 113.127 128.429 116.412ZM124.063 52.9686C124.063 61.3122 124.063 69.4145 124.063 77.7686C128.629 74.5571 130.906 70.338 130.801 65.059C130.696 60.0108 128.45 55.9807 124.063 52.9686ZM119.53 106.452C117.032 106.452 114.576 106.452 112.109 106.452C113.652 107.06 115.216 107.501 116.78 107.942C118.679 108.467 118.679 108.456 119.53 106.452Z" fill="white"/>
<path d="M119.603 58.3631C119.603 69.5194 119.603 80.6652 119.603 91.8215C119.603 93.8051 119.603 93.8051 117.704 94.078C114.849 94.4873 112.613 96.7542 112.404 99.6194C112.309 100.889 111.795 101.288 110.567 101.288C101.247 101.257 91.9276 101.257 82.5974 101.288C81.359 101.288 80.8972 100.879 80.7922 99.6089C80.5404 96.6493 78.2419 94.4138 75.3348 94.057C73.5926 93.8471 73.5506 93.8051 73.5506 91.979C73.5506 72.7519 73.5506 53.5249 73.5506 34.2978C73.5506 31.1703 73.5821 28.0532 73.5296 24.9257C73.5086 23.8237 73.8865 23.3514 75.0304 23.215C78.7877 22.7637 80.8867 20.3183 80.8027 16.4981C80.7818 15.4696 81.1281 15.0183 82.1566 15.0078C91.7491 14.8714 101.331 14.7245 110.924 14.5775C111.931 14.5565 112.351 15.0078 112.372 16.0259C112.487 19.9405 114.45 22.1025 118.344 22.5643C119.446 22.6902 119.603 23.3409 119.593 24.233C119.582 29.0503 119.593 33.8675 119.593 38.6848C119.603 45.2442 119.603 51.8037 119.603 58.3631ZM110.242 99.1786C111.018 95.6312 112.949 93.2279 116.371 92.2728C117.315 92.0105 117.536 91.6536 117.536 90.751C117.504 83.2575 117.515 75.764 117.515 68.2705C117.515 54.1756 117.515 40.0806 117.525 25.9857C117.525 25.1881 117.557 24.6003 116.465 24.3904C114.566 24.0231 112.939 22.9631 111.931 21.3154C111.092 19.951 110.567 18.3872 109.958 17.0019C101.079 17.0019 92.0535 17.0019 83.0487 17.0019C82.5344 21.7142 80.1101 24.4219 75.7126 25.377C75.6811 25.7233 75.6391 26.0277 75.6391 26.332C75.6391 47.8365 75.6391 69.3305 75.6182 90.835C75.6182 91.7061 75.891 92.0314 76.7516 92.2623C79.7322 93.06 81.7578 94.991 82.5764 97.9612C82.8808 99.0631 83.3635 99.1996 84.3186 99.1891C91.7177 99.1576 99.1272 99.1681 106.526 99.1681C107.733 99.1786 108.93 99.1786 110.242 99.1786Z" fill="white"/>
<path d="M113.264 58.4261C113.254 67.7038 105.655 75.2498 96.3564 75.2183C87.0892 75.1868 79.5222 67.5779 79.5327 58.3002C79.5432 49.033 87.2151 41.3715 96.4089 41.445C105.833 41.5185 113.285 49.0225 113.264 58.4261ZM111.186 58.3106C111.175 50.1979 104.595 43.565 96.5033 43.523C88.3801 43.4811 81.6527 50.156 81.6317 58.2687C81.6108 66.3919 88.2647 73.0878 96.3984 73.1297C104.511 73.1717 111.196 66.4654 111.186 58.3106Z" fill="white"/>
<path d="M94.9078 67.3784C94.0368 67.221 93.1237 67.158 92.3051 66.8642C91.8013 66.6857 91.2451 66.1925 91.0876 65.7202C91.0037 65.4578 91.6439 64.8071 92.0952 64.5762C94.5825 63.2853 96.1358 61.3122 96.3247 58.4995C96.5346 55.2985 95.0653 52.9581 92.2631 51.3944C91.7593 51.111 91.4235 50.5128 91.0142 50.051C91.5074 49.6732 91.9587 49.096 92.515 48.949C96.2722 48.0045 99.5362 48.97 102.034 51.9191C104.532 54.8683 104.973 58.2582 103.419 61.795C101.95 65.185 98.5916 67.2945 94.9078 67.3784ZM95.3486 65.1115C99.1584 64.9436 102.181 61.7425 102.212 57.9748C102.233 54.1651 99.2318 50.9851 95.4116 50.7857C99.5362 57.4711 99.5362 59.5911 95.3486 65.1115Z" fill="white"/>
<path d="M180.076 27.6858C179.908 22.5327 178.271 18.1878 173.369 15.6689C172.824 15.3856 172.215 15.2282 172.204 14.441C172.194 13.8428 172.488 13.4335 173.033 13.339C179.383 12.1531 181.031 6.83205 183.13 1.89935C183.245 1.61598 183.256 1.28015 183.403 1.02827C183.697 0.514008 184.011 -0.199651 184.725 0.0522312C185.365 0.272629 185.407 0.95479 185.302 1.60549C185.082 3.00134 184.746 4.40769 184.683 5.81404C184.505 9.93861 186.635 12.6988 190.193 14.4725C190.928 14.8398 191.946 15.0497 191.998 15.8998C192.051 16.8024 190.938 17.0228 190.287 17.4006C186.1 19.804 183.424 23.3199 182.133 27.9482C181.87 28.8928 182.217 30.635 180.621 30.3516C179.31 30.1102 180.044 28.6514 180.076 27.6858ZM181.66 22.9001C182.993 21.2628 183.917 19.6256 185.281 18.5551C187.401 16.8969 188.703 15.7739 185.659 13.6224C184.2 12.5939 183.434 10.5788 182.343 9.00456C180.758 10.3689 179.845 12.363 178.019 13.5174C176.56 14.4305 176.707 15.3331 177.903 16.5086C179.593 18.1458 180.663 20.2238 181.66 22.9001Z" fill="white"/>
<path d="M39.8716 84.3174C39.7037 79.1643 38.0664 74.8194 33.1652 72.3006C32.6195 72.0172 32.0108 71.8597 32.0003 71.0726C31.9898 70.4744 32.2836 70.0651 32.8294 69.9706C39.1789 68.7847 40.8267 63.4637 42.9257 58.531C43.0411 58.2476 43.0516 57.9117 43.1986 57.6599C43.4924 57.1456 43.8073 56.4319 44.5209 56.6838C45.1611 56.9042 45.2031 57.5864 45.0982 58.2371C44.8778 59.6329 44.5419 61.0393 44.479 62.4456C44.3005 66.5702 46.4311 69.3304 49.9889 71.1041C50.7236 71.4714 51.7416 71.6813 51.7941 72.5314C51.8465 73.434 50.734 73.6544 50.0833 74.0322C45.8958 76.4356 43.2195 79.9515 41.9286 84.5798C41.6663 85.5244 42.0126 87.2666 40.4174 86.9832C39.1055 86.7418 39.8401 85.283 39.8716 84.3174ZM41.4564 79.5212C42.7892 77.884 43.7128 76.2467 45.0772 75.1762C47.1972 73.518 48.4986 72.395 45.455 70.2435C43.9962 69.215 43.23 67.1999 42.1385 65.6256C40.5538 66.99 39.6407 68.9841 37.8146 70.1386C36.3557 71.0516 36.5027 71.9542 37.6991 73.1296C39.3888 74.7669 40.4593 76.8449 41.4564 79.5212Z" fill="white"/>
</svg>
