<svg width="208" height="128" viewBox="0 0 208 128" fill="none" xmlns="http://www.w3.org/2000/svg">
<path d="M113.41 86.9228C117.83 82.8428 122.38 78.8928 126.62 74.6328C129.84 71.4028 133.92 72.1528 137.72 71.6328C139.17 71.4328 138.87 72.8228 138.72 73.6628C137.82 78.5928 137.4 83.5628 137.31 88.5628C137.28 90.1328 136.11 90.6928 135.12 91.4628C131.63 94.1728 128.16 96.9028 124.66 99.5928C123.32 100.623 122.88 101.603 124.3 102.953C125.76 104.343 125.69 105.923 124.9 107.733C123.21 111.583 122.85 116.173 118.25 118.263C116.74 118.953 115.34 119.693 113.64 119.523C107.77 118.923 101.76 118.963 96.4604 115.753C94.7904 114.743 93.0204 114.513 91.1204 115.223C83.6304 118.003 75.9004 115.793 68.2904 116.263C66.8904 116.353 66.0104 115.193 65.0504 114.393C61.9104 111.763 59.5304 108.423 56.7304 105.483C55.4704 104.163 55.6904 103.513 57.2904 102.753C62.1204 100.463 66.9404 98.1428 71.6604 95.6328C73.3404 94.7428 74.7504 95.5228 75.8204 95.6928C75.8204 89.1228 75.8404 82.6328 75.8104 76.1428C75.7904 71.9228 79.9604 69.1528 83.7804 71.1628C86.3604 72.5228 87.3304 72.8828 87.9904 69.2428C90.4604 55.7728 92.9004 42.2828 96.0204 28.9428C96.5204 26.8128 97.3704 25.1228 98.9204 23.5828C104.12 18.4028 109.75 13.7328 115.4 9.07279C117.41 7.41279 118.54 7.58279 119.25 10.2628C121.39 18.3428 123.79 26.3528 126.79 34.1728C127.53 36.1128 127.33 37.9228 126.72 39.9028C122.15 54.6528 117.7 69.4228 113.22 84.2028C112.99 84.9628 112.9 85.7528 112.74 86.5328C112.97 86.6628 113.19 86.7928 113.41 86.9228ZM95.7504 72.1828C96.8704 68.5528 99.8804 68.7828 102.6 68.4028C104.29 68.1628 105.09 68.6128 104.62 70.4628C103.82 73.6028 103.22 76.7828 101.15 79.4828C99.3504 81.8428 97.8104 84.4128 96.2304 86.7828C96.5404 87.1828 96.5904 87.3228 96.6704 87.3328C97.2404 87.4128 97.8204 87.5028 98.3904 87.5328C102.86 87.8128 103.29 88.3828 102.34 92.9028C101.95 94.7428 101.53 96.5628 101.08 98.5628C103.26 96.5528 105.13 94.6528 107.17 92.9628C109.39 91.1328 110.19 88.9428 110.39 86.0628C111.24 73.9028 112.37 61.7528 113.39 49.6028C113.49 48.3528 113.74 47.1228 112.35 46.2028C109.96 44.6228 107.68 42.8528 105.11 40.9928C101.06 51.1628 98.9804 61.7428 95.7504 72.1828ZM97.5904 28.1528C97.2704 29.4728 97.0004 30.5728 96.7304 31.6828C93.9204 43.0528 92.0504 54.6028 89.7804 66.0728C89.1004 69.4928 87.2304 73.1428 91.3304 75.8628C91.7004 76.1128 91.5704 76.9728 92.2904 77.1528C94.3204 71.6128 96.2904 66.0828 96.9504 60.1328C97.9004 51.5028 98.4704 42.7928 100.36 34.3028C101.02 31.3228 99.9504 29.7828 97.5904 28.1528ZM117.04 11.9928C116.13 11.6828 115.89 12.3128 115.59 12.7428C111.58 18.4328 107.59 24.1228 103.59 29.8228C103.13 30.4828 102.57 31.1028 102.82 32.0228C104.36 37.6528 106.84 42.5328 113.15 44.7428C114.46 33.7328 115.76 22.8528 117.04 11.9928ZM112.27 82.0928C117.06 67.5628 121.84 53.5828 125.49 38.5828C122.61 40.7428 120.37 42.5828 117.98 44.1928C115.58 45.8128 114.48 47.8728 114.33 50.8028C113.98 57.6228 113.31 64.4228 112.86 71.2428C112.64 74.6628 111.75 78.0528 112.27 82.0928ZM114.29 45.5328C118.34 42.4328 121.8 39.7828 125.27 37.1528C126.05 36.5628 126.09 35.8428 125.77 34.9928C123.18 27.9428 120.86 20.7928 118.09 13.6128C116.86 23.9928 115.62 34.3728 114.29 45.5328ZM83.7604 99.4828C84.2504 93.0128 84.7304 86.8028 85.2004 80.5928C85.2904 79.4028 85.2204 78.2928 83.9404 77.6228C81.8204 76.5228 79.7304 75.3528 77.5904 74.1828C77.5904 80.5928 77.7404 86.6828 77.5404 92.7528C77.3904 97.1128 80.2204 98.2728 83.7604 99.4828ZM100.83 102.513C102.46 101.553 104.07 100.563 105.72 99.6428C108.86 97.8928 112.62 96.7728 115.03 94.3228C119.8 89.4728 123.86 83.9128 128.15 78.5928C128.97 77.5828 128.92 76.3628 128.21 74.9928C118.64 83.9428 108.73 92.0828 100.83 102.513ZM82.7404 115.183C82.8504 115.003 82.9604 114.823 83.0704 114.643C79.3904 112.323 75.4504 110.323 72.1104 107.603C67.9404 104.203 63.4204 104.793 58.1304 105.063C60.9104 108.373 63.2004 111.353 66.1504 113.753C67.1404 114.563 68.1504 115.223 69.5704 115.203C73.9504 115.143 78.3404 115.183 82.7404 115.183ZM116.07 113.093C117.02 110.303 115.24 109.343 112.35 108.523C108.27 107.373 106.38 110.763 103.5 112.063C102.41 112.553 101.16 113.243 101.78 114.963C102.3 116.413 103.16 117.243 104.77 117.373C106.84 117.543 108.89 117.943 110.96 118.113C115.93 118.523 115.93 118.493 116.07 113.093ZM75.5104 97.9428C78.1704 102.013 80.8104 106.083 83.4804 110.133C85.2104 112.763 89.4104 113.193 91.6404 111.023C92.0004 110.673 92.2404 110.303 91.9804 109.823C90.9504 107.923 90.8004 105.463 88.8004 104.173C84.7404 101.533 80.4504 99.3328 75.5104 97.9428ZM128.49 80.0928C124.7 84.7428 121.16 89.1328 117.57 93.4728C116.33 94.9628 117.5 95.6728 118.35 96.6228C119.43 97.8428 120.23 97.4028 121.24 96.5028C123.58 94.4228 125.98 92.4128 128.4 90.4228C129.15 89.8028 129.74 89.2128 129.61 88.1128C129.32 85.6228 129.55 83.0628 128.49 80.0928ZM92.9404 83.6628C92.9404 84.4728 92.8504 85.2928 92.9604 86.0828C93.1304 87.2428 93.9404 88.0328 94.6904 86.7428C97.3404 82.2028 101.57 78.5728 102.64 73.1328C102.86 72.0028 104.11 70.3128 102.78 69.7928C101.5 69.2828 99.2004 69.4628 98.3304 70.8028C95.8004 74.7428 93.2104 78.7528 92.9404 83.6628ZM83.4804 113.413C83.6404 113.303 83.7904 113.193 83.9504 113.073C80.5004 107.793 77.0504 102.513 73.4404 96.9828C72.0604 98.7328 70.9104 100.293 69.6304 101.763C68.3604 103.233 68.4704 104.153 70.2504 105.203C74.7204 107.833 79.0704 110.663 83.4804 113.413ZM114.58 12.1428C108.93 15.9128 103.86 20.2028 99.2404 25.0128C97.1004 27.2428 99.8704 27.8628 100.58 29.1228C101.19 30.2028 101.95 30.1028 102.68 29.0528C106.63 23.4028 110.61 17.7728 114.58 12.1428ZM91.3904 84.5828C89.1504 88.5828 87.0204 91.8428 85.4404 95.3428C83.9404 98.6528 85.5004 101.513 88.8104 102.663C89.5704 102.923 90.2204 103.093 90.3304 102.093C90.9504 96.5428 92.5904 91.0628 91.3904 84.5828ZM108.47 107.313C106.18 106.273 104.29 105.623 102.63 104.613C100.11 103.083 98.1004 103.363 96.4704 105.803C95.7904 106.823 93.5104 107.653 94.9504 109.023C96.5704 110.573 98.5204 113.003 101.05 112.063C103.61 111.093 105.78 109.083 108.47 107.313ZM94.5304 105.473C98.9604 103.223 99.7504 99.1528 100.54 95.1028C100.72 94.1728 101.88 92.6228 99.9204 92.4728C98.5304 92.3728 96.4704 91.9428 96.0304 94.2528C95.3304 97.9328 94.5504 101.593 94.5304 105.473ZM90.0904 76.7228C88.6804 77.3928 86.6704 77.5828 86.4604 79.4428C86.0404 83.2228 86.0004 87.0528 85.8104 90.8528C88.1704 86.3828 93.1804 82.7628 90.0904 76.7228ZM114.64 96.1628C111.1 98.1128 107.67 100.003 104.24 101.893C104.29 102.173 104.35 102.463 104.4 102.743C106.17 102.743 107.95 102.723 109.72 102.743C115.97 102.823 115.97 102.833 114.64 96.1628ZM101.76 33.6628C100.08 40.7928 99.6704 47.5728 99.2604 54.3428C99.6904 47.5728 106.87 41.6828 101.76 33.6628ZM117.5 116.883C122.41 115.463 122.04 110.913 123.62 107.273C117.1 109.043 116.46 110.063 117.5 116.883ZM134.9 89.8328C133.92 89.7728 133.37 89.6228 132.88 89.7328C127.85 90.9128 125.02 95.1728 121.27 98.1428C120.71 98.5928 121.02 99.1928 121.5 99.6228C122.06 100.123 122.56 99.8428 123.03 99.4628C126.86 96.3528 130.69 93.2428 134.9 89.8328ZM130.16 79.9928C130.39 82.6628 130.49 84.6128 130.76 86.5328C130.87 87.3128 130.57 88.7728 132.01 88.5128C133.39 88.2728 135.21 89.1928 136.1 87.4828C136.67 86.4028 136.4 85.2128 135.36 84.3428C133.86 83.0928 132.36 81.8328 130.16 79.9928ZM137.35 73.6428C134.8 75.8128 131.36 76.1828 131.28 78.5728C131.22 80.3728 133.95 81.9528 136.23 83.1628C136.6 80.0628 136.92 77.3428 137.35 73.6428ZM93.6104 90.5128C91.5004 96.5028 91.0104 104.693 92.6304 106.803C94.9304 97.6428 95.2104 93.0128 93.6104 90.5128ZM89.4304 75.1128C85.5704 74.2828 83.0504 69.8928 78.0504 73.4328C82.1504 73.9228 84.4304 79.3728 89.4304 75.1128ZM122.65 105.583C118.64 103.963 115.27 103.953 112.19 106.933C116 109.513 119.16 107.953 122.65 105.583ZM59.5904 102.913C65.2904 104.893 67.2604 103.973 71.0304 97.3228C66.9204 99.3328 63.3404 101.083 59.5904 102.913ZM123.72 103.763C120.99 101.233 118.84 99.2328 116.69 97.2428C115.96 103.123 116.29 103.473 123.72 103.763ZM113.31 104.033C110.31 104.033 107.89 104.033 104.75 104.033C107.87 105.703 110.25 107.513 113.31 104.033ZM94.8404 88.9128C95.2804 92.7228 97.8404 91.2428 99.8004 91.0728C100.54 91.0128 101.88 90.9228 101.33 89.8328C100.41 88.0228 98.4204 89.1028 96.9304 88.8228C96.2804 88.7028 95.5804 88.8728 94.8404 88.9128ZM94.3704 110.023C94.4204 115.273 98.2704 114.613 101.02 116.693C99.9304 112.743 96.7604 112.513 94.3704 110.023ZM135.31 73.5528C135.21 73.3428 135.12 73.1428 135.02 72.9328C133.55 73.1728 132.06 73.3628 130.6 73.6828C129.23 73.9728 129.56 75.1628 129.8 75.9428C130.24 77.3828 131.05 76.3328 131.63 75.9828C132.89 75.2228 134.09 74.3728 135.31 73.5528Z" fill="white" stroke="white" stroke-width="0.7908" stroke-miterlimit="10"/>
<path d="M171.31 94.0728C168.96 89.7528 165.71 86.7528 160.46 86.7028C159.88 86.6928 159.29 86.8228 158.95 86.1628C158.69 85.6528 158.76 85.1828 159.18 84.8628C164.08 81.1428 163.21 75.9028 162.89 70.8028C162.87 70.5128 162.73 70.2228 162.75 69.9428C162.79 69.3828 162.75 68.6428 163.46 68.5428C164.1 68.4628 164.43 69.0228 164.62 69.6128C165.03 70.9028 165.34 72.2328 165.9 73.4628C167.52 77.0528 170.51 78.4928 174.29 78.4828C175.07 78.4828 176.03 78.2228 176.44 78.9228C176.88 79.6728 176.02 80.3328 175.62 80.9328C173.08 84.7628 172.31 88.9028 173.19 93.4028C173.37 94.3228 174.41 95.6528 172.93 96.0928C171.7 96.4628 171.7 94.9128 171.31 94.0728ZM170.62 89.3128C171.05 87.3528 171.14 85.5528 171.85 84.0628C172.95 81.7428 173.58 80.2328 170.06 79.7028C168.37 79.4528 166.86 78.0628 165.27 77.1928C164.5 79.0328 164.58 81.1228 163.51 82.8828C162.66 84.2828 163.17 84.9928 164.69 85.4828C166.82 86.1528 168.62 87.4628 170.62 89.3128Z" fill="white"/>
<path d="M38.5003 53.4828C38.3403 48.5728 36.7803 44.4328 32.1103 42.0328C31.5903 41.7628 31.0103 41.6128 31.0003 40.8628C30.9903 40.2928 31.2703 39.9028 31.7903 39.8128C37.8403 38.6828 39.4103 33.6128 41.4103 28.9128C41.5203 28.6428 41.5303 28.3228 41.6703 28.0828C41.9503 27.5928 42.2503 26.9128 42.9303 27.1528C43.5403 27.3628 43.5803 28.0128 43.4803 28.6328C43.2703 29.9628 42.9503 31.3028 42.8903 32.6428C42.7203 36.5728 44.7503 39.2028 48.1403 40.8928C48.8403 41.2428 49.8103 41.4428 49.8603 42.2528C49.9103 43.1128 48.8503 43.3228 48.2303 43.6828C44.2403 45.9728 41.6903 49.3228 40.4603 53.7328C40.2103 54.6328 40.5403 56.2928 39.0203 56.0228C37.7703 55.7928 38.4703 54.4128 38.5003 53.4828ZM40.0103 48.9228C41.2803 47.3628 42.1603 45.8028 43.4603 44.7828C45.4803 43.2028 46.7203 42.1328 43.8203 40.0828C42.4303 39.1028 41.7003 37.1828 40.6603 35.6828C39.1503 36.9828 38.2803 38.8828 36.5403 39.9828C35.1503 40.8528 35.2903 41.7128 36.4303 42.8328C38.0403 44.3928 39.0603 46.3728 40.0103 48.9228Z" fill="white"/>
</svg>
