<svg width="208" height="128" viewBox="0 0 208 128" fill="none" xmlns="http://www.w3.org/2000/svg">
<path d="M100.842 75.8104C100.842 77.101 100.899 78.3915 100.832 79.6724C100.756 81.1446 101.148 82.1866 102.448 83.1521C104.933 84.997 105.201 87.5685 103.059 89.7958C101.769 91.1341 102.247 91.9371 103.107 93.046C108.183 99.5082 109.923 106.974 109.522 115.023C109.177 121.829 105.057 126.924 99.3313 127.861C96.4348 128.33 95.737 127.67 96.5878 124.984C98.1459 120.061 97.2951 115.128 96.8363 110.186C96.2914 104.202 95.8708 98.2081 97.2187 92.2717C97.4863 91.1055 97.0562 90.3503 96.4635 89.4517C94.8766 87.0619 95.1538 84.9014 97.4672 83.1425C98.643 82.2535 99.0828 81.3071 99.0541 79.9019C98.9872 76.9862 98.9967 74.0706 99.0445 71.155C99.0732 69.6924 98.5857 68.9946 97.0179 68.8703C92.525 68.5166 88.2329 67.3408 84.237 65.2473C82.8222 64.5017 82.2104 64.712 82.2487 66.4136C82.306 69.1571 82.2869 71.9007 82.2582 74.6538C82.2487 75.7818 82.698 76.5083 83.587 77.2348C86.3305 79.4717 86.5695 81.699 84.0936 84.2036C82.5641 85.7522 83.9024 86.4883 84.5716 87.3964C89.8388 94.6233 91.7794 102.672 90.4697 111.467C89.552 117.633 85.0974 121.877 79.6485 122.116C78.2433 122.173 77.0388 121.954 77.6124 120.185C79.7728 113.465 78.2051 106.745 77.6984 100.034C77.3734 95.7322 77.4307 91.4592 78.3102 87.2339C78.6065 85.8287 78.6257 84.7102 77.6697 83.4102C76.1402 81.3167 76.6086 78.7643 78.7499 77.3017C80.0882 76.3936 80.4897 75.3803 80.4515 73.889C80.375 71.1455 80.3272 68.3924 80.4611 65.6584C80.5567 63.7178 79.7154 62.5325 78.3006 61.3184C67.2404 51.8737 62.8431 39.9341 66.5808 25.834C70.2421 12.0302 79.5625 3.47457 93.653 0.654548C108.002 -2.21327 122.13 4.51654 129.721 17.4313C136.842 29.543 135.552 45.2682 126.499 56.2233C125.629 57.2748 124.817 58.4984 123.717 59.2249C120.888 61.0985 119.874 63.584 120.276 66.8915C120.486 68.5836 120.343 70.3234 120.305 72.0345C120.257 74.3574 120.219 76.4605 122.561 78.1143C124.386 79.4048 124.386 82.0432 122.675 83.5822C120.926 85.1595 121.576 86.125 122.675 87.5876C127.923 94.5946 129.749 102.548 128.545 111.142C127.637 117.585 123.325 121.762 117.724 122.087C116.385 122.164 114.99 122.059 115.573 120.271C117.628 113.991 116.395 107.691 115.85 101.391C115.42 96.4109 115.276 91.4592 116.471 86.5647C116.739 85.4845 116.605 84.6815 115.926 83.7256C114.101 81.135 114.397 79.3187 116.796 77.2252C117.312 76.7759 118.039 76.4414 118.049 75.6862C118.115 72.1683 118.154 68.66 118.135 65.1422C118.125 64.1002 117.399 64.1193 116.682 64.5113C112.189 67.0062 107.399 68.4975 102.276 68.9181C101.176 69.0042 100.832 69.6733 100.832 70.6579C100.832 72.3691 100.832 74.0898 100.832 75.8009C100.851 75.8105 100.851 75.8104 100.842 75.8104ZM118.794 85.6088C117.427 90.0061 117.246 94.0975 117.456 98.3132C117.781 104.785 119.463 111.209 118.24 117.747C117.79 120.128 118.249 120.462 120.572 119.602C121.127 119.392 121.672 119.105 122.159 118.78C122.981 118.225 123.287 117.681 122.016 117.241C121.327 117.002 120.276 116.801 120.763 115.75C121.194 114.822 122.121 115.434 122.847 115.501C123.736 115.577 124.635 116.065 125.371 114.966C126.69 112.987 126.203 111.945 123.708 111.668C123.048 111.591 122.121 111.744 122.092 110.826C122.064 109.928 122.972 109.976 123.65 109.89C124.492 109.785 125.419 110.071 126.155 109.316C124.606 109.068 123.077 109.115 121.547 109.058C120.725 109.029 119.559 109.077 119.645 107.892C119.721 106.831 120.783 107.156 121.519 107.194C127.445 107.452 127.608 107.251 126.442 101.258C126.346 100.751 126.279 100.244 126.145 99.7471C125.897 98.8294 125.323 98.3515 124.329 98.2081C123.172 98.036 121.165 98.7625 121.127 97.1183C121.088 95.4741 123.278 96.5352 124.664 95.6079C122.857 95.6079 121.433 95.6557 120.008 95.5888C119.196 95.5506 118.039 95.6749 118.077 94.4704C118.106 93.4571 119.167 93.5813 119.913 93.5335C120.763 93.4762 121.624 93.4953 122.484 93.4953C123.727 93.4953 124.014 92.9886 123.383 91.9084C122.15 89.748 120.773 87.7214 118.794 85.6088ZM81.092 85.8956C80.2125 86.3736 80.3081 87.1383 80.1456 87.7692C78.7308 93.2085 79.5434 98.6669 79.9449 104.125C80.2603 108.465 81.1589 112.796 80.289 117.183C80.1169 118.034 79.3235 119.2 80.2508 119.812C81.2354 120.453 82.4303 119.745 83.3862 119.229C84.3517 118.713 86.1011 118.015 83.5583 117.078C83.0039 116.868 82.3634 116.533 82.6884 115.769C82.9943 115.033 83.6635 115.281 84.2561 115.367C84.8488 115.453 85.4606 115.597 86.0438 115.53C87.6115 115.367 87.8505 114.01 87.9939 112.882C88.1851 111.333 86.8372 111.802 85.996 111.668C85.279 111.553 84.1414 111.916 84.0745 110.913C83.9885 109.651 85.2312 110.004 86.0055 109.871C86.6938 109.756 87.4777 110.081 88.6057 109.048C86.4548 109.048 84.8584 109.087 83.262 109.029C82.5163 109.001 81.4839 108.943 81.57 107.911C81.656 106.812 82.6788 107.137 83.4149 107.165C89.2844 107.395 89.5807 107.051 88.4432 101.238C88.3762 100.904 88.2902 100.569 88.252 100.225C88.0895 98.7625 87.2482 98.1985 85.8239 98.1507C84.801 98.1125 83.0899 98.5618 83.0421 97.147C82.9943 95.6366 84.7246 96.2484 85.7187 96.019C85.8812 95.9808 86.2158 96.0668 86.0533 95.5793C84.8679 95.5793 83.673 95.6366 82.4781 95.5601C81.5317 95.5028 80.0405 95.8565 80.05 94.4321C80.0596 93.1799 81.4744 93.5622 82.3443 93.4762C83.023 93.4093 83.7113 93.4475 84.3995 93.4475C85.6327 93.4475 85.9482 92.9409 85.3077 91.8511C84.065 89.7576 82.6884 87.731 81.092 85.8956ZM104.656 101.64C104.665 101.525 104.675 101.41 104.685 101.286C103.232 101.286 101.778 101.315 100.335 101.277C99.6659 101.258 98.8055 101.219 98.8055 100.292C98.8055 99.3743 99.7137 99.4795 100.325 99.2501C101.587 98.7817 103.643 100.206 104.073 98.3132C104.369 97.0227 102.83 95.7896 102.027 94.5851C101.74 94.1549 101.453 93.7247 101.109 93.3423C100.67 92.8644 100.459 91.9084 99.6754 92.0614C98.9107 92.2048 98.9107 93.1129 98.7769 93.763C97.7253 98.6956 98.0695 103.666 98.4996 108.618C98.9202 113.398 99.685 118.159 99.0158 122.976C98.8916 123.865 98.1173 124.974 99.0063 125.615C99.9144 126.265 100.985 125.529 101.893 125.07C102.553 124.735 103.375 124.544 103.652 123.684C103.222 122.642 100.937 123.139 101.501 121.686C101.998 120.395 103.461 121.437 104.493 121.514C106.262 121.638 106.291 120.166 106.549 119.086C106.845 117.843 105.803 117.805 104.933 117.671C104.082 117.547 102.687 117.958 102.706 116.619C102.725 115.339 104.092 115.721 104.971 115.568C105.392 115.501 105.899 115.769 106.271 115.262C104.933 115.119 103.662 115.033 102.4 114.832C101.616 114.717 100.325 114.908 100.469 113.723C100.603 112.624 101.855 113.006 102.648 112.996C107.992 112.92 108.002 112.939 107.227 107.557C107.17 107.137 107.007 106.726 106.979 106.295C106.845 104.489 105.908 103.772 104.101 103.848C103.184 103.886 101.626 104.25 101.664 102.797C101.702 101.42 103.251 101.936 104.187 101.755C104.331 101.736 104.493 101.678 104.656 101.64ZM107.313 34.5713C107.027 33.1087 107.963 31.2733 106.568 30.1835C104.618 28.6731 102.476 26.7804 100.106 26.723C97.8305 26.6752 95.7943 28.654 93.8538 30.021C92.3912 31.0438 93.089 32.8984 93.1081 34.3801C93.1273 35.9287 92.3243 37.8501 93.9111 38.959C95.8517 40.3164 97.8209 42.3239 100.173 42.2092C102.591 42.0945 104.675 40.2208 106.635 38.7296C107.935 37.7641 107.046 35.986 107.313 34.5713ZM98.0312 61.5574C95.5649 57.7719 93.5192 54.6268 91.4639 51.4818C91.1293 50.9656 90.6992 50.545 90.0491 50.4494C86.321 49.9045 82.5928 49.3214 78.8551 48.8339C77.3829 48.6427 77.1726 49.3309 78.0139 50.459C82.8222 56.9593 89.2844 60.4868 98.0312 61.5574ZM90.8043 41.6261C90.8712 40.8804 90.8999 39.8002 89.5903 39.2076C87.4107 38.2229 85.2503 37.181 83.0995 36.139C82.2009 35.7088 81.4839 35.6897 81.006 36.7412C79.7823 39.4657 78.5205 42.1805 77.2873 44.905C76.8285 45.9087 77.077 46.53 78.2528 46.6926C80.2794 46.9698 82.306 47.3426 84.3326 47.5911C90.4889 48.3463 90.4984 48.3272 90.8043 41.6261ZM109.483 25.7002C110.038 26.7708 108.346 28.6827 110.439 29.7533C112.495 30.8144 114.579 31.8086 116.634 32.8792C117.609 33.3859 118.211 33.1947 118.651 32.1623C119.808 29.3996 120.993 26.6465 122.197 23.903C122.761 22.622 122.341 21.9338 121.002 21.7712C118.794 21.5036 116.586 21.1977 114.378 21.016C109.646 20.6241 109.646 20.6528 109.483 25.7002ZM122.656 19.9167C117.704 12.6898 111.414 8.93299 103.547 7.69983C102.19 7.48952 102.065 8.15866 102.734 9.18152C104.512 11.8964 106.252 14.6399 108.069 17.3357C108.384 17.8041 108.938 18.3394 109.436 18.4063C113.613 18.9512 117.81 19.3814 122.656 19.9167ZM106.644 19.085C106.587 18.8939 106.558 18.6262 106.424 18.4159C104.436 15.3282 102.476 12.2214 100.431 9.17196C99.6468 7.99616 99.1592 9.02858 98.7482 9.6117C97.3047 11.6287 95.8995 13.6649 94.4847 15.701C92.1235 19.0851 92.1235 19.0851 95.6414 21.1594C100.851 24.2376 100.851 24.2376 105.554 20.4903C106.013 20.1175 106.558 19.8307 106.644 19.085ZM77.3638 20.3851C81.3979 19.7733 85.432 19.1806 89.466 18.5402C90.1734 18.4255 90.6323 17.8423 91.0338 17.2783C92.8692 14.6973 94.695 12.1067 96.5017 9.50655C96.8172 9.0477 97.4672 8.52192 96.9319 7.95792C96.6738 7.6807 95.9664 7.69026 95.4884 7.76673C87.6593 9.11461 81.6082 13.206 77.3638 20.3851ZM122.36 49.5221C117.771 49.8567 113.862 50.1531 109.961 50.4303C109.12 50.4876 108.499 50.9178 108.059 51.587C106.224 54.3687 104.398 57.1696 102.591 59.9705C102.056 60.7926 101.989 61.5478 103.298 61.3566C111.089 60.1713 117.379 56.5387 122.36 49.5221ZM90.8234 27.7936C90.6036 25.8435 90.3933 24.2376 90.2594 22.6316C90.1256 20.9587 89.3322 20.4425 87.6975 20.7962C85.9482 21.1786 84.1606 21.3315 82.3921 21.5992C76.752 22.4691 76.7329 22.4786 79.0845 27.6694C79.7919 29.218 80.289 31.627 81.4552 32.038C84.2561 33.0322 86.6078 30.5468 89.227 29.7533C90.3359 29.4187 90.9477 28.6827 90.8234 27.7936ZM99.8093 45.3447C97.84 46.5396 95.4789 47.9162 93.2037 49.4074C92.5537 49.8376 93.1081 50.5067 93.4236 50.9943C95.1825 53.7283 96.9701 56.4527 98.7291 59.1962C99.4078 60.2573 100.048 60.4581 100.813 59.2631C102.562 56.5196 104.36 53.7952 106.118 51.0612C106.434 50.5641 106.768 50.0479 106.443 49.3883C106.09 48.6905 101.014 45.316 99.8093 45.3447ZM109.483 43.2799C109.646 48.3846 109.646 48.375 114.301 48.1456C114.98 48.1073 115.668 48.1073 116.347 48.0596C122.714 47.5816 122.704 47.5816 120.314 41.7504C120.247 41.5878 120.18 41.4349 120.113 41.2819C117.953 36.0434 118.029 36.2346 112.8 38.2612C110.019 39.3318 108.68 40.7179 109.483 43.2799ZM124.224 24.0368C123.278 26.1972 122.389 28.3863 121.356 30.499C120.104 33.0513 119.301 35.4507 120.897 38.2707C122.197 40.565 122.972 43.146 124.243 46.2433C127.646 38.3281 127.665 31.2542 124.224 24.0368ZM97.3621 2.6429C95.5936 2.9488 93.7964 3.14 92.0566 3.58929C83.8929 5.66367 77.5072 10.2713 72.9378 17.3548C72.5841 17.8997 71.9341 18.5115 72.5077 19.1806C72.8614 19.6013 73.5018 19.9263 74.0467 19.9932C75.0122 20.1175 75.2225 19.1424 75.6431 18.5402C80.7383 11.2942 87.5159 6.82036 96.4157 5.76883C96.9223 5.71147 97.429 5.57763 97.9165 5.43424C98.8533 5.17614 99.0158 4.44963 98.9107 3.61796C98.7864 2.68114 98.1268 2.62378 97.3621 2.6429ZM95.8804 66.1459C98.3276 66.1937 98.9011 65.8878 98.9011 64.8554C98.9107 63.3737 97.8209 63.3546 96.7598 63.259C91.397 62.8097 86.6747 60.7735 82.3729 57.5902C79.4382 55.4107 77.077 52.7245 75.1747 49.6368C74.4387 48.4515 73.5496 48.528 72.5555 49.025C71.4179 49.5891 72.154 50.3538 72.5268 50.9465C78.1381 59.8367 86.1585 64.9319 95.8804 66.1459ZM102.725 2.7385C101.817 2.63335 100.928 2.52819 100.851 3.82827C100.765 5.43425 101.998 5.57763 103.088 5.72103C111.931 6.84903 118.871 11.0934 123.918 18.4255C124.673 19.5248 125.457 20.0697 126.642 19.238C127.904 18.3681 126.872 17.5364 126.403 16.8577C120.668 8.54105 112.772 3.81871 102.725 2.7385ZM103.614 66.1746C112.982 64.9797 120.725 60.3625 126.365 52.2466C126.757 51.6826 127.245 51.0516 126.327 50.5259C125.667 50.1435 124.941 49.6846 124.214 50.3729C123.784 50.7744 123.45 51.2906 123.086 51.759C117.905 58.4219 111.223 62.456 102.734 63.2685C101.721 63.3641 100.794 63.498 100.88 64.8267C100.985 66.3562 102.161 66.1364 103.614 66.1746ZM75.3277 24.2376C72.2496 31.1012 72.1348 37.7832 75.0409 44.4557C76.7807 41.3967 78.1668 38.2898 79.5816 35.2022C79.9353 34.4279 79.8397 33.7109 79.4956 32.9844C78.1095 30.0783 76.7138 27.1532 75.3277 24.2376ZM131.594 34.4374C131.795 30.3078 130.925 26.398 129.443 22.6029C129.023 21.5323 128.459 20.7388 127.149 21.255C125.82 21.7808 126.346 22.775 126.681 23.6258C129.644 31.1777 129.501 38.6913 126.394 46.1572C125.973 47.1705 125.572 48.0691 127.006 48.6618C128.554 49.3023 128.755 48.0595 129.137 47.1801C130.868 43.0982 131.814 38.8539 131.594 34.4374ZM67.8714 34.3036C67.9861 38.1751 68.5692 41.9702 69.9457 45.6123C70.3281 46.6065 70.6627 47.6007 72.1157 47.094C73.4636 46.6256 73.129 45.7175 72.7753 44.8094C70.0796 37.7736 70.1656 30.7475 72.9283 23.75C73.3393 22.7081 73.2533 21.9146 72.1444 21.4271C70.7774 20.8249 70.5098 21.9337 70.1752 22.775C68.703 26.4744 67.9861 30.3269 67.8714 34.3036ZM83.6635 34.2654C86.1298 35.4603 87.9461 36.3493 89.7719 37.2096C90.4793 37.5442 91.2058 37.5633 91.1963 36.5214C91.1771 34.9345 91.9228 32.9653 90.7948 31.8564C89.791 30.8622 88.3476 32.363 87.1048 32.7454C86.1585 33.0322 85.2694 33.5484 83.6635 34.2654ZM116.098 34.7433C114.751 34.0264 113.967 33.5102 113.116 33.166C111.892 32.6785 110.554 31.1108 109.493 31.9615C108.441 32.8028 109.187 34.6955 109.111 36.1199C109.044 37.2861 109.569 37.6972 110.678 37.2001C112.294 36.4831 113.9 35.7375 116.098 34.7433Z" fill="white"/>
<path d="M161.754 35.6706C161.601 30.9769 160.11 27.0193 155.645 24.7251C155.148 24.467 154.594 24.3236 154.584 23.6066C154.575 23.0617 154.842 22.6889 155.339 22.6029C161.123 21.5227 162.624 16.6761 164.536 12.1831C164.641 11.925 164.65 11.6192 164.784 11.3897C165.052 10.9213 165.339 10.2713 165.989 10.5007C166.572 10.7014 166.61 11.3228 166.514 11.9155C166.314 13.1869 166.008 14.4678 165.95 15.7488C165.788 19.5056 167.728 22.0198 170.969 23.6353C171.638 23.9699 172.565 24.1611 172.613 24.9354C172.661 25.7575 171.648 25.9582 171.055 26.3024C167.241 28.4915 164.803 31.6939 163.627 35.9095C163.388 36.7699 163.704 38.3567 162.251 38.0986C161.056 37.8788 161.725 36.55 161.754 35.6706ZM163.197 31.3019C164.411 29.8107 165.253 28.3194 166.495 27.3443C168.426 25.8339 169.612 24.8111 166.839 22.8514C165.511 21.9146 164.813 20.0792 163.819 18.6453C162.375 19.888 161.543 21.7043 159.88 22.7558C158.551 23.5875 158.685 24.4096 159.775 25.4803C161.314 26.9715 162.289 28.8643 163.197 31.3019Z" fill="white"/>
<path d="M43.1698 84.8345C43.0168 80.1408 41.5256 76.1832 37.0613 73.889C36.5643 73.6309 36.0098 73.4875 36.0002 72.7705C35.9907 72.2257 36.2584 71.8528 36.7554 71.7668C42.5389 70.6866 44.0397 65.84 45.9516 61.3471C46.0567 61.089 46.0663 60.7831 46.2001 60.5537C46.4678 60.0852 46.7546 59.4352 47.4046 59.6646C47.9877 59.8654 48.026 60.4867 47.9304 61.0794C47.7296 62.3508 47.4237 63.6318 47.3664 64.9127C47.2038 68.6696 49.1444 71.1837 52.385 72.7992C53.0542 73.1338 53.9815 73.325 54.0292 74.0993C54.077 74.9214 53.0638 75.1222 52.4711 75.4663C48.6569 77.6554 46.2192 80.8578 45.0434 85.0735C44.8044 85.9338 45.1199 87.5207 43.6669 87.2626C42.4815 87.0427 43.1411 85.714 43.1698 84.8345ZM44.6228 80.4754C45.8369 78.9841 46.6781 77.4929 47.9208 76.5178C49.8518 75.0074 51.0372 73.9846 48.2649 72.0249C46.9362 71.0881 46.2384 69.2527 45.2442 67.8188C43.8007 69.0615 42.969 70.8778 41.3057 71.9293C39.977 72.761 40.1108 73.5831 41.2006 74.6538C42.7301 76.145 43.7051 78.0282 44.6228 80.4754Z" fill="white"/>
</svg>
