<svg width="208" height="128" viewBox="0 0 208 128" fill="none" xmlns="http://www.w3.org/2000/svg">
<path d="M120.27 57.1436C126.05 68.7336 123.41 77.5736 111.91 83.5336C111.97 83.7336 112.04 83.9336 112.1 84.1436C116.69 82.5836 121.37 81.2436 125.84 79.4036C130.04 77.6736 133.68 74.9836 136.9 71.6936C137.5 71.0836 139.59 71.2236 140.5 71.7936C141.89 72.6636 140.76 73.7736 139.93 74.5936C132.99 81.4436 124.68 85.5736 115.12 87.3836C107.14 88.8936 99.2 88.4236 91.66 85.8636C84.85 83.5536 78.4 80.1136 73.24 74.8036C72.27 73.8036 70.91 72.7336 72.29 71.3536C73.58 70.0536 75.08 70.6436 76.43 71.7136C79.25 73.9436 81.9 76.5436 85.04 78.1736C89.01 80.2336 93.39 81.5236 97.62 83.0536C98.92 83.5236 100.32 83.7236 101.86 83.7036C96.71 81.3136 92.44 78.3136 90.62 72.6136C88.83 66.9836 89.48 61.8936 93.07 56.8736C92.4 57.0436 91.69 57.1036 91.07 57.3836C85.89 59.7736 80.85 62.3936 76.71 66.4336C76.55 66.5936 76.33 66.7036 76.17 66.8636C74.88 68.1436 73.54 68.1236 72.38 66.7936C71.02 65.2336 72.66 64.3736 73.48 63.6336C77.42 60.0536 81.74 57.0836 86.66 54.8836C99.23 49.2636 111.84 49.3536 124.55 54.0936C130.15 56.1836 135.14 59.3636 139.54 63.3836C140.2 63.9936 140.06 65.4836 140.29 66.5636C139.24 66.6436 137.92 67.1636 137.2 66.7236C134.61 65.0936 132.33 62.9436 129.73 61.3436C126.88 59.5936 123.8 58.2236 120.82 56.6836C120.64 56.8436 120.46 56.9936 120.27 57.1436ZM106.55 79.6436C113.31 79.6236 118.85 74.1636 118.81 67.5836C118.76 60.3636 113.48 55.1136 106.24 55.1036C99.75 55.0936 94.06 60.8836 94.15 67.4036C94.25 74.2136 99.77 79.6636 106.55 79.6436Z" fill="white"/>
<path d="M146.59 62.0935C146.19 61.8535 145.41 61.3935 144.65 60.9035C139.69 57.7035 134.98 54.0135 129.73 51.3835C121.19 47.1135 111.89 45.6735 102.37 46.5135C90.9204 47.5235 80.5504 51.5035 71.4204 58.5635C70.3904 59.3635 69.5504 60.5435 68.4004 61.0135C67.2704 61.4735 65.3704 61.8235 64.7004 61.2235C63.4604 60.1135 64.7804 58.9135 65.7404 58.0235C76.9204 47.7235 90.1404 42.7735 105.31 42.4235C120.52 42.0835 133.86 46.8535 145.66 56.2435C146.84 57.1735 147.86 58.4235 148.62 59.7235C149.43 61.1035 148.58 62.2235 146.59 62.0935Z" fill="white"/>
<path d="M98.0306 67.4135C97.9906 62.6335 101.591 58.9735 106.431 58.8835C110.991 58.8035 114.841 62.5335 114.911 67.1135C114.991 72.0835 111.451 75.7435 106.481 75.8335C101.701 75.9135 98.0706 72.3035 98.0306 67.4135ZM106.411 70.6635C108.131 70.7135 109.641 69.2735 109.721 67.5035C109.801 65.7235 108.441 64.1935 106.691 64.0935C104.861 63.9935 103.241 65.5135 103.241 67.3435C103.241 69.0935 104.701 70.6135 106.411 70.6635Z" fill="white"/>
<path d="M104.12 7.01337C103.48 7.11337 103.61 7.85337 103.6 8.38337C103.57 13.2634 103.54 18.1534 103.52 23.0334C103.52 23.4234 103.43 23.8534 103.99 24.2334C104.47 24.0234 104.59 23.6534 104.6 23.2334C104.68 18.2134 104.78 13.2034 104.83 8.18337C104.83 7.73337 104.93 6.88337 104.12 7.01337Z" fill="white"/>
<path d="M141.54 47.8133C141.8 47.8433 142.08 47.9533 142.29 47.8733C147 45.9833 151.71 44.0733 156.41 42.1533C156.77 42.0033 157.2 41.7633 157.02 41.2533C156.77 40.5533 156.32 40.8833 155.87 41.0733C151.49 42.8933 147.11 44.6833 142.74 46.5233C142.22 46.7433 141.55 46.9233 141.54 47.8133Z" fill="white"/>
<path d="M88.8101 102.143C86.3101 106.573 84.9101 111.493 82.7801 116.083C82.6201 116.423 82.5701 116.983 83.0401 117.133C83.7101 117.353 83.7701 116.683 83.9401 116.283C85.4701 112.603 87.0101 108.913 88.4901 105.203C88.9001 104.173 89.7101 103.223 89.3601 101.823C89.0301 102.013 88.8601 102.043 88.8101 102.143Z" fill="white"/>
<path d="M133.11 35.2833C137.09 32.0133 140.58 28.2433 144.26 24.6633C144.55 24.3833 144.84 23.9633 144.46 23.6033C143.92 23.0933 143.62 23.7133 143.32 24.0033C140.16 27.0733 137.01 30.1533 133.88 33.2433C133.32 33.7933 132.63 34.2833 132.51 35.3233C132.85 35.3133 133.03 35.3533 133.11 35.2833Z" fill="white"/>
<path d="M121.8 102.823C121.64 102.433 121.46 102.093 120.75 101.903C120.72 102.393 120.57 102.843 120.7 103.173C122.44 107.433 124.22 111.673 126.01 115.913C126.18 116.323 126.4 116.893 127.03 116.573C127.7 116.233 127.23 115.743 127.07 115.363C125.32 111.173 123.55 107.003 121.8 102.823Z" fill="white"/>
<path d="M152.14 93.7633C148.41 91.3133 144.68 88.8533 140.93 86.4233C140.44 86.1033 139.91 85.6933 139.11 86.1133C139.89 87.0333 150.69 94.3933 151.7 94.7633C152.03 94.8833 152.42 95.0333 152.62 94.7133C152.9 94.2433 152.48 93.9933 152.14 93.7633Z" fill="white"/>
<path d="M144.4 54.6535C144.45 55.1535 144.85 55.2735 145.29 55.1535C149.34 54.3635 153.39 53.5735 157.44 52.7835C158.1 52.6535 158.77 52.5135 159.42 52.3435C159.8 52.2435 160.3 52.1135 160.22 51.6035C160.13 51.0635 159.61 51.1535 159.23 51.2235C154.52 52.1735 149.81 53.1435 145.1 54.1135C144.79 54.1735 144.35 54.1835 144.4 54.6535Z" fill="white"/>
<path d="M145.37 63.5034C145.39 63.7034 145.41 63.9134 145.43 64.1134C150.82 64.1134 156.21 64.1134 161.61 64.1134C161.61 63.9134 161.61 63.7034 161.61 63.5034C156.2 63.5034 150.78 63.5034 145.37 63.5034Z" fill="white"/>
<path d="M156.76 84.1433C152.45 82.3733 148.14 80.6433 143.82 78.9033C143.5 78.7733 143.19 78.6633 142.75 79.0933C142.91 79.3333 142.98 79.5733 143.13 79.6333C147.59 81.5433 152.06 83.4433 156.53 85.3333C156.91 85.4933 157.38 85.5733 157.56 85.0733C157.81 84.3833 157.14 84.2933 156.76 84.1433Z" fill="white"/>
<path d="M114.07 105.303C113.99 104.923 113.88 104.373 113.39 104.473C112.76 104.603 112.93 105.203 113 105.663C113.09 106.193 113.25 106.713 113.36 107.243C114.17 111.083 114.96 114.923 115.78 118.763C115.89 119.273 115.97 119.923 116.69 119.843C117.05 119.803 117.06 119.333 116.99 118.673C116.07 114.423 115.08 109.863 114.07 105.303Z" fill="white"/>
<path d="M91.6797 7.80347C92.7297 13.7335 93.7597 19.6735 95.8397 25.3635C94.9797 19.3735 93.6297 13.5235 91.6797 7.80347Z" fill="white"/>
<path d="M141.19 99.9134C138.73 97.6234 136.71 94.8534 133.72 92.7434C133.72 93.3134 133.64 93.5834 133.73 93.6934C136.8 97.3034 140.18 100.603 143.55 103.923C143.79 104.153 144.13 104.353 144.43 104.023C144.73 103.693 144.5 103.383 144.28 103.133C143.26 102.043 142.28 100.923 141.19 99.9134Z" fill="white"/>
<path d="M64.2902 24.7033C66.2802 26.7233 68.2602 28.7533 70.3002 30.7233C72.2202 32.5833 74.0302 34.5733 76.5102 35.8633C76.4102 35.6333 76.3702 35.3433 76.2002 35.1733C72.4102 31.4133 68.6202 27.6733 64.8202 23.9233C64.5702 23.6733 64.2502 23.4133 63.9602 23.7233C63.5202 24.1833 64.0502 24.4533 64.2902 24.7033Z" fill="white"/>
<path d="M125.46 10.6533C124.91 10.4433 124.81 10.9533 124.66 11.3133C123.7 13.7633 122.7 16.2033 121.8 18.6733C120.81 21.3733 119.37 23.9133 119.2 26.9633C119.37 26.7733 119.6 26.6133 119.69 26.3933C121.67 21.4333 123.63 16.4633 125.6 11.5033C125.74 11.1633 125.85 10.8033 125.46 10.6533Z" fill="white"/>
<path d="M63.7702 73.2734C64.2702 73.1634 65.0802 73.1834 64.9002 72.4934C64.7002 71.7534 63.9902 72.2834 63.5202 72.3834C61.8102 72.7434 60.1002 73.1334 58.3902 73.5234C54.9902 74.2934 51.6002 75.0734 48.2002 75.8434C48.2302 76.0634 48.2702 76.2834 48.3002 76.5034C50.3002 76.6134 52.1702 75.8334 54.0902 75.4034C57.3102 74.6734 60.5402 73.9734 63.7702 73.2734Z" fill="white"/>
<path d="M50.9697 42.8135C56.3397 45.2335 61.6597 47.7635 67.4097 49.1035C62.0397 46.6335 56.6797 44.2435 50.9697 42.8135Z" fill="white"/>
<path d="M70.3897 86.2334C65.8997 89.3234 61.4097 92.4034 56.9297 95.4934C58.7397 95.6434 69.7197 88.1334 70.3897 86.2334Z" fill="white"/>
<path d="M139.87 39.2434C140.53 39.2834 140.85 39.4134 141.02 39.3034C144.38 37.1634 147.73 34.9934 151.09 32.8434C151.42 32.6334 151.63 32.2834 151.42 32.0034C151.05 31.4834 150.57 31.8034 150.17 32.0634C148.24 33.3134 146.27 34.5034 144.42 35.8634C142.99 36.8934 141.28 37.5934 139.87 39.2434Z" fill="white"/>
<path d="M93.7495 119.603C95.1295 114.673 96.0495 109.673 96.5695 104.603C95.5595 105.853 93.2795 117.703 93.7495 119.603Z" fill="white"/>
<path d="M64.3203 103.653C67.8903 100.203 71.7403 96.4734 75.6003 92.7434C73.2603 93.5834 64.4903 102.653 64.3203 103.653Z" fill="white"/>
<path d="M85.3301 21.0334C85.7601 21.9634 85.7601 23.1634 86.9901 23.6834C85.8101 19.5234 83.9301 15.6434 82.1701 11.7334C82.0101 11.3834 81.7001 11.1834 81.3601 11.4234C80.9701 11.7034 81.3001 12.0234 81.4301 12.3034C82.7201 15.2134 83.9901 18.1334 85.3301 21.0334Z" fill="white"/>
<path d="M47.9102 53.2434C52.1702 54.3634 56.4302 55.4034 60.8402 55.5034C56.6002 54.3034 52.3202 53.3434 47.9102 53.2434Z" fill="white"/>
<path d="M113.59 17.2333C114.17 14.5433 114.74 11.8533 115.28 9.33331C115.32 8.68331 115.5 8.11331 114.98 7.89331C114.47 7.67331 114.28 8.26331 114.21 8.58331C113.61 11.4033 113.04 14.2333 112.51 17.0733C112.45 17.4133 112.35 17.9833 112.9 18.0533C113.39 18.1133 113.51 17.6333 113.59 17.2333Z" fill="white"/>
<path d="M66.5904 39.3234C63.0904 37.1334 59.6004 34.9434 56.1004 32.7634C55.9504 33.0134 55.8004 33.2534 55.6504 33.5034C59.1604 35.6734 62.4604 38.1734 66.2304 39.9134C66.3504 39.7134 66.4704 39.5234 66.5904 39.3234Z" fill="white"/>
<path d="M131.09 102.523C130.94 102.943 130.78 103.153 130.83 103.283C131.93 106.073 133.91 108.333 135.49 110.843C135.59 110.993 136.03 111.083 136.2 110.993C136.54 110.803 136.54 110.383 136.33 110.103C134.52 107.693 133.27 104.883 131.09 102.523Z" fill="white"/>
<path d="M82.4897 31.0834C80.5697 28.0534 78.5696 25.0634 76.3496 22.2434C76.1096 22.4034 75.8796 22.5734 75.6396 22.7334C77.6896 25.6834 79.7296 28.6334 81.7796 31.5734C82.0196 31.4134 82.2497 31.2534 82.4897 31.0834Z" fill="white"/>
<path d="M61.5796 81.7534C58.1996 83.3234 54.6296 84.4334 51.3896 86.3334C51.4796 86.5534 51.5696 86.7734 51.6696 86.9834C55.0796 85.5134 58.4896 84.0434 61.8996 82.5634C61.7896 82.2934 61.6896 82.0234 61.5796 81.7534Z" fill="white"/>
<path d="M77.8597 105.263C77.7197 105.173 77.2797 105.273 77.1697 105.433C75.8097 107.433 74.4797 109.463 73.1497 111.483C72.8097 111.993 73.1797 112.193 73.6497 112.343C73.7997 112.263 74.0297 112.203 74.1297 112.053C75.4597 110.033 76.7797 108.003 78.0597 105.953C78.1497 105.813 78.0197 105.373 77.8597 105.263Z" fill="white"/>
<path d="M152.6 73.2733C150.66 71.8033 146.54 71.0333 144.48 71.6833C147.15 72.7233 149.56 73.1433 152.6 73.2733Z" fill="white"/>
<path d="M82.8496 97.9134C82.6296 97.6634 82.2996 97.7634 82.1496 97.9734C80.7196 99.7934 79.3696 101.663 78.8096 103.993C80.7296 102.543 81.6496 100.363 82.9296 98.4634C82.9996 98.3334 82.9496 98.0334 82.8496 97.9134Z" fill="white"/>
<path d="M160.01 73.9333C157.97 73.5533 155.93 73.2033 153.89 72.8433C153.82 73.0933 153.76 73.3433 153.69 73.5833C155.68 74.4233 157.86 74.6133 159.97 75.0533C160.25 75.1133 160.48 74.9133 160.56 74.6133C160.68 74.1633 160.32 73.9933 160.01 73.9333Z" fill="white"/>
<path d="M54.7402 64.0234C57.9002 64.0234 61.0602 64.0234 64.2202 64.0234C64.2202 63.8834 64.2102 63.7334 64.2102 63.5934C61.0502 63.5934 57.9002 63.5934 54.7402 63.5934C54.7502 63.7334 54.7502 63.8834 54.7402 64.0234Z" fill="white"/>
<path d="M128.04 26.9133C129.52 24.9233 131.3 23.0933 131.79 20.5533C130.18 22.4633 128.51 24.3433 128.04 26.9133Z" fill="white"/>
<path d="M104.5 112.973C104.5 110.433 104.5 107.903 104.5 105.363C104.27 105.363 104.05 105.363 103.82 105.363C103.67 107.903 103.58 110.453 103.97 112.983C104.15 112.983 104.32 112.973 104.5 112.973Z" fill="white"/>
<path d="M111.46 25.3735C112.59 23.4835 112.71 21.8035 112.48 20.0435C111.63 21.5635 111.02 23.1435 111.46 25.3735Z" fill="white"/>
<path d="M104 120.783C104.17 120.773 104.35 120.763 104.52 120.763C104.52 118.793 104.52 116.813 104.52 114.843C104.32 114.843 104.12 114.843 103.91 114.843C103.8 116.823 103.73 118.813 104 120.783Z" fill="white"/>
<path d="M74.6105 21.0434C74.7705 20.9834 74.9405 20.9135 75.1005 20.8535C74.9105 19.2135 73.5705 18.2034 72.7605 16.9034C72.6905 16.7934 72.3505 16.7235 72.2505 16.7935C71.9305 17.0235 71.9505 17.3834 72.1605 17.6734C72.9705 18.8134 73.8005 19.9234 74.6105 21.0434Z" fill="white"/>
<path d="M52.73 63.8333C50.82 63.5033 48.9 63.3233 47 63.9833C48.91 64.3033 50.82 64.4533 52.73 63.8333Z" fill="white"/>
<path d="M67.7304 79.3933C66.0504 79.5233 64.6004 80.2133 63.3604 81.3833C65.0604 81.2833 66.6004 80.7833 67.7304 79.3933Z" fill="white"/>
<path d="M127.59 97.9534C127.77 99.6934 128.65 100.683 129.97 102.093C129.95 99.8834 129.1 98.8734 127.59 97.9534Z" fill="white"/>
<path d="M134.8 15.3733C133.75 16.4233 133.16 17.6133 132.82 18.9633C134.71 17.4133 135.06 16.7433 134.8 15.3733Z" fill="white"/>
</svg>
