<svg width="208" height="128" viewBox="0 0 208 128" fill="none" xmlns="http://www.w3.org/2000/svg">
<path d="M149.373 100.718C146.43 86.6913 143.196 72.705 139.732 58.7888C137.87 51.2801 136.058 43.6012 132.864 36.6131C127.698 25.2999 117.687 16.9102 103.17 19.4932C89.8943 21.8659 82.5558 31.9576 85.4291 45.4433C69.03 42.0494 59.4088 52.5115 56.0149 63.2941C54.5031 68.1497 54.4931 73.6762 54.7134 78.8522C55.1639 89.7949 60.8105 97.654 70.6419 102.329C75.7779 104.762 81.054 107.005 86.4503 108.747C103.851 114.333 121.881 116.826 139.983 118.819C143.957 119.249 147.942 119.6 151.876 120C151.035 113.302 150.675 106.905 149.373 100.718ZM60.9907 79.0824C57.2563 75.9388 56.5455 71.4335 57.807 66.8883C61.8216 52.4715 74.7867 43.0605 89.9543 51.8608C90.6351 52.2512 91.346 52.5816 92.6275 53.2424C91.6263 50.4391 90.7052 48.1465 89.9644 45.7737C84.8584 29.5749 96.2817 21.9861 108.846 21.7458C115.144 21.6256 120.25 24.509 124.374 29.0943C129.831 35.1413 133.044 42.2696 134.776 50.2189C137.369 62.2128 140.243 74.1567 142.976 86.1306C144.257 91.6571 145.519 97.1835 146.941 103.351C131.002 100.527 115.604 97.7742 100.216 95.071C91.1758 93.4892 81.905 92.5181 73.6854 88.1029C69.1402 85.6601 64.9453 82.4263 60.9907 79.0824Z" fill="white"/>
<path d="M97.8521 70.4541C95.9398 65.9989 96.1501 61.754 99.4239 58.0196C102.127 54.9461 105.711 53.8848 109.656 54.7358C114.151 55.707 117.154 58.5102 118.216 63.0455C119.247 67.4506 117.945 71.225 114.311 73.9381C110.607 76.7114 106.532 76.8615 102.387 74.8592C101.576 74.4687 100.825 73.9281 100.055 73.4576C99.9144 73.3875 99.7843 73.3074 99.6642 73.2173C99.2437 72.126 98.653 71.1549 97.7619 70.374L97.8521 70.4541ZM113.06 63.0054C111.638 64.1968 112.129 65.5784 113.15 66.4594C114.031 67.2203 114.862 65.9889 115.693 65.5484C117.275 64.7074 116.644 63.496 116.243 62.3547C115.593 60.5125 114.662 62.2746 113.861 62.2045C113.751 61.2234 116.003 60.913 114.602 59.5414C113.7 58.6604 113.04 57.2187 111.438 58.4902C111.708 56.8583 110.577 56.4678 109.385 56.4978C107.904 56.5279 107.583 58.0697 106.792 58.9807C106.372 59.4613 106.692 59.9218 107.283 60.3123C108.755 61.2934 109.265 59.9819 110.096 59.3211C110.347 59.1209 110.717 59.0809 111.027 58.9607C110.917 60.062 108.725 60.4725 109.976 61.9842C110.757 62.9253 111.638 63.8564 113.06 63.0054ZM106.973 74.1584C109.876 73.838 111.718 71.4252 111.438 68.3116C111.077 64.317 107.103 60.8729 103.449 61.3835C100.715 61.774 98.7731 64.4872 99.0935 67.4406C99.504 71.1649 103.479 74.5489 106.973 74.1584ZM107.744 56.3277C104.73 55.8972 104.009 57.7894 102.898 59.4813C105.881 60.3423 106.472 58.1498 107.744 56.3277Z" fill="white"/>
<path d="M99.674 73.2175C99.7941 73.3076 99.9243 73.3877 100.064 73.4578C99.1834 76.9018 95.8095 78.2133 93.8272 80.7162C93.5168 81.1167 93.0263 81.1067 92.6458 80.7162C92.1052 80.1656 92.3955 79.675 92.8461 79.2846C95.1487 77.2923 96.8907 74.6592 99.674 73.2175Z" fill="white"/>
<path d="M115.753 55.5465C116.094 55.2762 116.474 55.0259 116.805 54.7155C118.517 53.0736 120.219 51.4217 121.921 49.7598C122.431 49.2592 123.002 48.7887 123.613 49.5195C124.093 50.1102 123.542 50.5407 123.152 50.9311C121.39 52.6832 119.608 54.4152 117.836 56.1672C117.515 56.4876 117.175 56.848 116.694 56.5777C116.414 56.4375 116.244 56.1172 115.753 55.5465Z" fill="white"/>
<path d="M117.726 47.7579C117.816 48.3285 114.302 53.945 113.781 54.0251C112.93 54.1553 112.34 53.7148 112.79 52.9038C113.841 51.0317 115.013 49.2096 116.244 47.4575C116.815 46.6366 117.385 47.047 117.726 47.7579Z" fill="white"/>
<path d="M103.579 77.0336C102.268 79.056 100.986 81.0483 99.6545 83.0106C99.5844 83.1207 99.0238 82.9605 98.7334 82.8304C98.1828 82.5801 98.2529 82.1596 98.5332 81.7291C99.6345 80.0171 100.736 78.2951 101.847 76.5831C102.117 76.1626 102.528 75.9424 102.978 76.2127C103.229 76.3628 103.349 76.7133 103.579 77.0336Z" fill="white"/>
<path d="M125.515 56.3395C125.284 57.6711 124.253 57.8513 123.452 58.0715C121.84 58.502 119.568 60.7747 118.877 59.1528C118.196 57.561 121.45 57.4508 122.862 56.5097C123.622 55.9991 124.614 55.4285 125.515 56.3395Z" fill="white"/>
<path d="M97.7722 70.3752C96.771 73.3687 93.6474 72.9482 91.565 74.1997C91.4349 74.2798 90.9342 73.9794 90.7841 73.7391C90.4937 73.2786 90.724 72.8181 91.2046 72.6679C93.4372 71.9771 95.2793 70.0849 97.8623 70.4553C97.8523 70.4553 97.7722 70.3752 97.7722 70.3752Z" fill="white"/>
<path d="M92.5661 66.2202C93.7975 66.4405 95.4995 65.3392 95.7498 66.7408C96.0401 68.3727 94.1178 67.8721 93.1768 67.9322C92.0955 68.0023 90.2433 69.1236 90.0131 67.3815C89.8128 65.8397 91.8953 66.931 92.5661 66.2202Z" fill="white"/>
<path d="M105.871 83.2196C105.361 83.1595 104.99 82.8692 104.99 82.3686C104.98 81.9281 105.11 81.4676 105.271 81.0471C105.741 79.7456 105.11 78.0136 106.722 77.1626C106.862 77.0925 107.473 77.4729 107.483 77.6431C107.493 79.4652 107.053 81.2073 106.442 82.8992C106.372 83.0694 106.062 83.1195 105.871 83.2196Z" fill="white"/>
<path d="M110.397 46.5979C110.728 47.0284 111.258 47.4389 111.188 47.6691C110.657 49.3811 110.958 51.3334 109.716 52.8151C109.626 52.9152 108.925 52.7551 108.885 52.6049C108.375 50.7627 109.296 49.0808 109.586 47.3287C109.626 47.1085 110.007 46.9383 110.397 46.5979Z" fill="white"/>
<path d="M121.77 67.4314C122.831 67.942 124.573 67.1911 125.224 68.6929C125.534 69.4237 124.583 69.8742 123.892 69.5639C122.651 68.9932 120.698 69.9043 120.148 68.1322C119.877 67.2512 121.029 67.4714 121.77 67.4314Z" fill="white"/>
<path d="M110.287 79.4754C110.417 78.6244 109.626 77.2628 110.798 77.1126C112.229 76.9224 111.879 78.5043 112.009 79.3653C112.129 80.1462 112.84 81.4877 111.639 81.688C110.147 81.9283 110.748 80.2263 110.287 79.4754Z" fill="white"/>
<path d="M119.467 63.3675C120.388 62.7968 120.649 62.4865 120.939 62.4665C122.691 62.3263 124.433 61.5153 126.205 62.3063C126.285 62.3463 126.235 63.0972 126.115 63.1272C124.163 63.7679 122.191 64.3086 119.467 63.3675Z" fill="white"/>
<path d="M185.923 80.0035C183.47 75.7386 180.136 72.8152 174.88 72.8953C174.3 72.9053 173.709 73.0454 173.349 72.3847C173.068 71.8841 173.138 71.4135 173.549 71.0832C178.364 67.2387 177.353 62.0126 176.913 56.9267C176.883 56.6363 176.742 56.356 176.752 56.0757C176.773 55.5151 176.712 54.7742 177.433 54.6641C178.064 54.564 178.414 55.1146 178.615 55.7053C179.055 56.9867 179.406 58.3083 179.986 59.5197C181.698 63.0738 184.722 64.4354 188.506 64.3353C189.287 64.3153 190.238 64.035 190.669 64.7258C191.119 65.4566 190.278 66.1474 189.898 66.7581C187.455 70.6627 186.784 74.8175 187.775 79.3027C187.976 80.2138 189.047 81.5253 187.585 81.9958C186.364 82.3863 186.324 80.8345 185.923 80.0035ZM185.102 75.258C185.483 73.2857 185.523 71.4836 186.203 69.9718C187.245 67.6291 187.835 66.0973 184.311 65.6568C182.619 65.4466 181.067 64.095 179.456 63.2641C178.735 65.1262 178.865 67.2186 177.844 69.0007C177.023 70.4224 177.553 71.1232 179.085 71.5737C181.228 72.1844 183.06 73.4559 185.102 75.258Z" fill="white"/>
<path d="M25.509 34.4105C25.3488 29.4947 23.787 25.3499 19.1116 22.9471C18.5909 22.6768 18.0103 22.5266 18.0003 21.7758C17.9902 21.2051 18.2706 20.8146 18.7912 20.7245C24.8482 19.5932 26.4201 14.5173 28.4224 9.81185C28.5325 9.54154 28.5425 9.22118 28.6827 8.9809C28.963 8.49033 29.2634 7.80955 29.9442 8.04983C30.5549 8.26007 30.5949 8.91081 30.4948 9.53153C30.2845 10.8631 29.9642 12.2046 29.9041 13.5462C29.7339 17.4808 31.7663 20.1138 35.1602 21.8058C35.861 22.1562 36.8322 22.3564 36.8822 23.1674C36.9323 24.0284 35.871 24.2386 35.2503 24.5991C31.2557 26.8917 28.7027 30.2456 27.4713 34.6607C27.221 35.5618 27.5514 37.2237 26.0296 36.9534C24.7781 36.7232 25.479 35.3315 25.509 34.4105ZM27.0207 29.8451C28.2922 28.2833 29.1733 26.7215 30.4748 25.7003C32.4971 24.1185 33.7386 23.0473 30.8352 20.9949C29.4436 20.0137 28.7127 18.0915 27.6715 16.5898C26.1597 17.8913 25.2887 19.7935 23.5467 20.8947C22.1551 21.7658 22.2953 22.6268 23.4366 23.7481C25.0485 25.3099 26.0696 27.2922 27.0207 29.8451Z" fill="white"/>
</svg>
