<svg width="208" height="128" viewBox="0 0 208 128" fill="none" xmlns="http://www.w3.org/2000/svg">
<path d="M157.846 97.0804C158.04 97.3466 158.307 97.5924 158.419 97.8894C159.331 100.337 161.317 101.678 163.55 102.59C168.312 104.525 172.725 107.034 176.74 110.219C179.085 112.083 181.276 114.131 183.539 116.097C183.652 116.189 183.785 116.281 183.846 116.404C183.928 116.578 183.949 116.793 184 116.988C183.785 116.988 183.519 117.08 183.365 116.988C182.566 116.466 181.809 115.892 181.03 115.36C177.61 113.025 174.22 110.629 170.749 108.365C166.642 105.682 162.137 103.808 157.498 102.242C156.392 101.873 155.275 101.484 154.139 101.228C152.695 100.91 151.302 101.351 149.889 101.637C145.567 102.528 141.236 103.337 136.904 104.167C135.45 104.443 133.996 104.658 132.521 104.832C138.133 102.201 144.339 101.627 150.196 99.5995C149.111 99.1489 148.056 98.6267 146.94 98.299C145.946 98.002 144.871 97.9508 143.847 97.7357C141.43 97.2237 139.249 98.0634 137.109 98.9339C134.805 99.8658 132.562 100.951 130.586 102.518C129.377 103.47 128.435 104.628 127.667 105.949C127.606 106.051 127.534 106.143 127.462 106.235C127.452 106.246 127.421 106.235 127.391 106.235C127.462 104.331 129.224 101.504 134.364 98.6062C134.231 98.6267 134.088 98.6267 133.955 98.6676C130.33 99.6302 126.715 100.695 122.956 100.982C121.523 101.095 120.079 101.177 118.645 101.115C115.501 100.982 112.368 100.726 109.224 100.583C108.353 100.542 107.483 100.746 106.602 100.787C106.09 100.808 105.578 100.716 104.882 100.665C109.142 99.8555 112.839 98.1351 116.587 96.5581C117.775 96.0563 118.952 95.5443 120.12 94.9606C118.932 95.1859 117.744 95.4112 116.556 95.6569C112.87 96.3942 109.203 96.5376 105.548 95.4931C105.21 95.3907 104.79 95.5033 104.411 95.575C102.65 95.9539 100.909 96.425 99.137 96.7219C97.6727 96.9677 96.2083 96.7834 94.918 95.9334C94.7132 95.8003 94.5391 95.6262 94.3752 95.3702C97.2323 96.978 99.8129 95.7696 102.445 94.6124C101.451 94.2745 100.458 93.9468 99.4545 93.6088C94.7439 92.0523 90.1357 90.2499 85.7015 88.038C78.8506 84.6177 72.7063 80.2143 67.5246 74.582C65.3741 72.2472 63.6435 69.5232 61.6978 66.9938C60.6738 65.6625 59.5985 64.3722 58.5949 63.041C57.8371 62.0374 57.1408 60.9724 56.4137 59.9381C56.4649 59.8971 56.5059 59.8562 56.5571 59.805C57.0896 60.2658 57.6528 60.7061 58.1648 61.1977C59.025 62.0169 59.8955 62.8464 60.7045 63.7168C63.3977 66.6149 66.7464 67.9052 70.6582 67.8438C71.6106 67.8233 72.5527 67.7311 73.546 67.5161C73.3719 67.4341 73.1979 67.3522 73.0238 67.2805C70.5763 66.2565 68.0879 65.3041 65.6813 64.1777C60.5611 61.7814 57.3763 57.7569 56.0041 52.2987C55.6252 50.7728 55.4716 49.1753 55.062 47.6597C54.724 46.4206 54.1403 45.2635 53.6897 44.0551C52.8603 41.8124 52.1639 39.5288 51.2218 37.3373C50.4742 35.5964 49.4911 33.958 48.5285 32.3297C48.1803 31.746 47.5864 31.3159 47.1051 30.8141C47.1358 30.7629 47.1665 30.7015 47.1973 30.6503C47.8424 31.0599 48.5592 31.3978 49.1122 31.9099C50.4742 33.149 51.273 34.7874 52.0308 36.4259C52.7988 38.0746 53.5361 39.7541 54.3861 41.4233C54.3554 40.8498 54.3349 40.2661 54.2837 39.6926C54.0686 37.0199 53.8024 34.3573 53.6283 31.6743C53.5054 29.831 52.2868 28.5817 51.3651 27.1685C50.0339 25.1307 47.9755 24.0759 45.8148 23.1645C44.9341 22.7958 44.0842 22.3452 43.2649 21.8435C46.1835 21.9561 48.8972 22.5808 51.2218 24.5572C50.8429 23.7584 50.4742 22.9597 50.0953 22.1609C49.2965 20.4507 48.293 18.8737 46.9515 17.522C44.3606 14.9004 40.7253 14.8185 38.073 17.3581C35.7381 19.5905 34.9189 22.3964 35.1954 25.5505C35.349 27.2607 35.6562 28.9401 36.5062 30.466C37.4995 32.2683 38.9844 32.5857 40.5307 31.2442C41.309 30.5684 41.9234 29.6979 42.6095 28.9196C43.2035 29.0732 43.7872 29.2166 44.3811 29.3702C44.0944 29.9642 43.8896 30.6298 43.5004 31.1521C42.1692 32.9134 39.8139 34.4085 37.3971 33.6405C35.5641 33.0568 34.54 31.6538 33.9768 29.9846C32.5533 25.7553 32.8094 21.6284 35.0725 17.7063C37.735 13.0878 43.6028 12.0331 47.7298 15.4227C47.8731 15.5455 48.0267 15.6582 48.293 15.863C47.8834 14.1221 46.9617 12.9752 45.5178 12.2276C43.91 11.3981 42.1794 10.9988 40.3873 10.8349C40.1313 10.8144 39.8958 10.5789 39.65 10.4458C39.8958 10.3024 40.1313 10.0464 40.3771 10.0362C42.9679 9.86208 45.4154 10.3024 47.6786 11.6644C49.061 12.4939 50.5254 13.1698 51.9284 13.9583C54.7035 15.5046 56.7414 17.8087 58.4823 20.4098C58.6461 20.6556 58.81 20.9013 58.9738 21.1471C59.0967 19.9182 57.4173 15.9552 55.9017 13.9583C57.1715 14.7161 58.001 15.6787 58.5232 16.8256C59.4961 18.9761 60.3358 21.1881 61.2165 23.3898C62.5887 26.8203 64.1965 30.1178 66.4801 33.0568C68.7944 36.0368 71.1088 39.027 73.4334 42.007C73.5051 42.0991 73.5972 42.1708 73.6792 42.2528C73.7406 42.2323 73.8123 42.2016 73.8737 42.1811C73.4744 40.8089 73.1262 39.4264 72.6756 38.0746C72.2148 36.6922 71.7027 35.3097 71.119 33.9784C70.5353 32.6369 69.8492 31.3364 69.1529 30.0563C68.4668 28.7967 67.709 27.5781 66.8692 26.1649C67.1662 26.3698 67.3301 26.4517 67.453 26.5643C70.607 29.4624 72.8087 32.9954 74.2424 37.0096C74.8978 38.8632 75.3894 40.7781 75.9116 42.6829C76.7718 45.8267 78.5639 48.3151 81.0114 50.4144C84.9437 53.804 89.1833 56.7328 93.6379 59.3851C96.2083 60.9212 98.881 62.3958 100.796 64.7614C102.168 66.4613 103.315 68.3455 104.431 70.2298C105.732 72.4417 107.053 74.623 108.855 76.497C108.118 74.6742 107.442 72.8206 106.633 71.0285C105.23 67.895 103.448 64.9457 101.103 62.4572C99.6695 60.9314 97.8467 59.764 96.1878 58.443C95.9113 58.2177 95.6246 58.0026 95.3583 57.7466C98.1642 58.955 100.694 60.5935 103.008 62.5904C103.715 63.2048 104.544 63.6861 105.333 64.2084C105.947 64.6078 106.674 64.8638 107.196 65.3451C109.132 67.1269 111.467 67.9564 113.976 68.5606C117.13 69.3184 120.253 70.2195 123.09 71.8785C125.875 73.5067 128.22 75.6368 129.992 78.3095C132.296 81.7913 134.395 85.396 136.597 88.9392C137.232 89.953 137.928 90.9258 138.573 91.9294C139.495 93.3631 140.98 93.9263 142.454 94.5305C145.465 95.7491 148.476 96.9472 151.486 98.1454C151.753 98.2478 152.029 98.3297 152.306 98.4219C152.336 98.3399 152.367 98.2887 152.357 98.2683C150.657 96.5479 150.165 94.2437 149.326 92.0932C148.517 90.0349 147.585 88.0175 146.53 86.0718C146.1 85.2731 145.209 84.7201 144.564 84.0954C144.697 84.1364 144.984 84.1773 145.24 84.3002C146.295 84.802 147.144 85.5496 147.81 86.5122C149.111 88.4067 149.961 90.506 150.657 92.6667C151.835 96.3226 154.241 98.7803 157.825 100.183C157.426 99.2411 157.016 98.3297 156.648 97.3978C156.576 97.2135 156.596 96.9882 156.576 96.7732C157.016 96.8653 157.436 96.9677 157.846 97.0804ZM90.4633 88.2121C91.5591 88.6217 92.4398 89.1747 93.3716 89.2566C95.8908 89.4717 98.4305 89.6253 100.96 89.5638C104.288 89.4922 107.493 88.5295 110.74 87.8946C112.972 87.4543 115.245 87.2085 117.508 86.9218C118.338 86.8194 119.178 86.8399 120.222 86.7887C118.676 86.0514 117.334 85.3345 115.931 84.761C113.32 83.6858 110.606 83.9008 107.944 84.4231C103.909 85.2219 99.9051 86.1742 95.8806 87.0549C94.1602 87.4236 92.4295 87.7922 90.4633 88.2121ZM66.5108 71.2538C66.4903 71.2948 66.4596 71.346 66.4392 71.387C66.7771 71.7556 67.1253 72.1243 67.4632 72.4929C68.6306 73.7832 69.839 75.0019 71.7335 75.1145C72.4298 75.1555 73.1262 75.3296 73.8225 75.2988C75.6146 75.2169 77.4682 75.2886 79.1988 74.8892C83.1619 73.9778 87.0737 72.8309 91.0061 71.7761C90.4326 71.3255 89.8387 70.9978 89.214 70.8033C87.3707 70.2298 85.4762 70.0455 83.5715 70.3117C81.165 70.6497 78.7789 71.1309 76.3724 71.5303C73.4744 72.0014 70.5763 72.3496 67.668 71.5918C67.2891 71.4996 66.9 71.3665 66.5108 71.2538ZM71.2522 76.0771C71.7437 76.4765 72.2353 76.8042 72.6244 77.224C73.3003 77.9614 74.181 78.1969 75.1026 78.2993C76.3827 78.4427 77.673 78.6065 78.9633 78.6475C81.8716 78.7396 84.7491 78.627 87.5448 77.6337C90.9242 76.4458 94.4059 75.7904 98.0106 75.8109C98.0925 75.8109 98.1642 75.7494 98.369 75.6777C97.3245 75.0633 96.3619 74.5513 95.4505 73.9573C94.6722 73.4453 93.8632 73.1074 92.9211 73.1586C92.0506 73.2098 91.1495 73.1995 90.3097 73.3941C88.7942 73.7525 87.2888 74.1621 85.8244 74.6844C82.271 75.9542 78.6253 76.5891 74.8671 76.497C73.6894 76.4765 72.522 76.2307 71.2522 76.0771ZM111.077 82.5696C111.108 82.5081 111.139 82.4467 111.17 82.3853C110.135 81.9756 109.132 81.4636 108.067 81.1769C104.677 80.2552 101.39 81.1564 98.1539 82.0371C95.8601 82.6617 93.6481 83.5834 91.4055 84.4026C89.5314 85.0888 87.637 85.652 85.6093 85.8363C86.4183 86.2664 87.2376 86.8501 88.0875 86.8911C89.4086 86.9628 90.7603 86.7682 92.0711 86.4917C97.048 85.4676 102.015 84.3514 106.991 83.2967C108.343 83.0304 109.715 82.8154 111.077 82.5696ZM68.4156 38.5559C69.5113 41.8431 70.4739 45.1201 71.1907 48.4892C71.5799 50.312 72.3786 52.0427 72.9111 53.8348C73.5563 56.0365 74.6418 57.89 76.5772 59.211C77.6525 59.9381 78.6663 60.7573 79.7108 61.5254C79.7723 61.3513 79.762 61.2796 79.721 61.2182C79.6391 61.0953 79.5674 60.9724 79.465 60.8597C77.5091 58.7297 76.4236 56.1798 75.9218 53.3637C75.5429 51.2542 75.2255 49.1344 74.8466 47.0248C74.7852 46.6869 74.6111 46.3387 74.396 46.0725C73.0852 44.4033 71.7437 42.7648 70.4227 41.1161C69.7468 40.2661 69.0812 39.4161 68.4156 38.5559ZM111.825 68.9804C112.009 69.2467 112.061 69.3593 112.142 69.4413C114.18 71.387 115.86 73.6296 117.457 75.9235C119.577 78.9649 121.779 81.9347 124.882 84.0954C126.1 84.9454 127.268 85.8875 128.568 86.8604C128.527 86.6146 128.537 86.5327 128.507 86.4815C125.885 82.0166 123.479 77.4288 119.772 73.6501C117.549 71.387 114.897 70.1171 111.825 68.9804ZM101.257 77.562C100.919 77.5005 100.632 77.4391 100.356 77.3879C96.9865 76.8144 93.6993 77.3981 90.4326 78.1355C88.999 78.4632 87.6267 79.0981 86.1828 79.4053C82.9366 80.0914 79.6596 80.2655 76.3622 79.7739C76.2905 79.7637 76.2086 79.7944 75.9833 79.8354C76.3417 80.0914 76.5567 80.3167 76.8128 80.4088C80.7144 81.8323 84.6979 82.5491 88.7839 81.4329C91.2211 80.7673 93.5969 79.8661 96.0137 79.1083C97.7341 78.5758 99.4545 78.0945 101.257 77.562ZM82.8751 67.1884C82.7215 67.086 82.6396 67.0143 82.527 66.9631C81.0011 66.2462 79.4958 65.5089 77.9597 64.833C74.9695 63.5223 71.9793 62.2217 68.8252 61.3103C66.7771 60.7164 64.8007 59.8357 62.8345 58.9857C61.9948 58.6273 61.2472 58.0436 60.4587 57.5623C60.3972 57.634 60.3358 57.6954 60.2846 57.7671C61.3496 58.7502 62.302 59.8971 63.4899 60.6856C65.3127 61.894 67.2584 62.9283 69.2143 63.9012C73.4641 66.0209 77.929 67.4137 82.8751 67.1884ZM78.7277 63.553C78.7482 63.5325 78.7687 63.512 78.7892 63.5018C78.697 63.4301 78.6151 63.3584 78.5229 63.2867C76.4851 61.7507 74.4574 60.1941 72.3991 58.6785C71.9895 58.3815 71.4877 58.1767 70.9962 58.0538C70.1974 57.8388 69.3474 57.8081 68.5692 57.5521C64.6573 56.313 61.155 54.357 58.1853 51.4794C58.0317 51.3361 57.8781 51.2029 57.6425 50.9879C57.9293 52.5957 58.4311 53.9269 59.4859 55.0841C61.1448 56.8967 63.2339 57.9207 65.4868 58.7092C67.9957 59.5797 70.5456 60.3375 73.0443 61.2489C74.9695 61.935 76.8435 62.7747 78.7277 63.553ZM59.4859 37.5729C58.2672 29.3907 56.0758 21.6386 50.1158 15.5148C52.635 23.1235 56.3625 30.2202 59.4859 37.5729ZM106.49 66.8914C107.688 69.5744 108.896 72.2574 110.094 74.9507C111.006 76.9988 111.938 79.0161 113.443 80.7365C114.846 82.3443 116.659 83.1328 118.563 83.8701C118.533 83.7165 118.471 83.6244 118.399 83.5322C115.297 79.948 113.003 75.8416 110.729 71.7249C109.634 69.7485 108.21 68.1817 106.49 66.8914ZM108.988 94.2233C109.265 94.3052 109.357 94.3462 109.449 94.3564C109.644 94.3769 109.838 94.3871 110.033 94.3974C112.614 94.5407 115.133 94.1106 117.642 93.5986C121.134 92.8818 124.626 92.2264 128.2 92.1957C129.623 92.1854 131.046 92.2673 132.47 92.3083C131.21 91.6529 129.92 90.8746 128.558 90.7108C126.602 90.465 124.564 90.4548 122.598 90.7005C117.99 91.2638 113.597 92.7794 108.988 94.2233ZM91.6512 69.2467C90.2688 66.2565 88.9478 63.3072 87.5243 60.3887C86.828 58.9652 86.1009 57.5316 85.1281 56.3027C84.3293 55.2991 83.1516 54.6028 82.1276 53.7733C81.8101 53.5173 81.4722 53.292 81.1445 53.0565C81.4722 53.8757 81.8511 54.613 82.2505 55.3401C83.5817 57.7466 84.913 60.1634 86.275 62.5597C86.9611 63.768 87.852 64.874 88.4152 66.1336C89.1014 67.6287 90.1254 68.6323 91.6512 69.2467ZM86.787 66.2565C83.6227 60.8905 80.5301 55.6371 77.4374 50.3939C77.3658 50.4247 77.2941 50.4452 77.2224 50.4759C77.376 51.4794 77.4989 52.483 77.6935 53.4763C78.1133 55.6166 78.7277 57.6954 80.0488 59.4875C80.8475 60.5628 81.6975 61.5971 82.5167 62.6621C82.9059 63.1638 83.1721 63.7885 83.6534 64.1674C84.5956 64.915 85.6606 65.5294 86.787 66.2565ZM56.5571 44.5261C56.6083 45.7345 56.6287 46.8917 57.3558 47.9465C60.0081 51.7764 63.6025 54.3263 67.9547 55.8624C68.4565 56.0365 68.9583 56.231 69.4703 56.4154C69.5011 56.3232 69.5318 56.231 69.5625 56.1286C67.965 54.5925 66.5723 52.8414 64.5549 51.7355C62.1996 50.4451 60.0491 48.8272 58.3184 46.7278C57.7142 45.9905 57.1408 45.2532 56.5571 44.5261ZM121.093 72.9026C122.26 74.3772 123.499 75.7085 124.472 77.2036C126.244 79.9173 127.862 82.7334 129.551 85.4984C130.309 86.7477 131.057 88.0073 131.876 89.2157C132.142 89.6048 132.644 89.8403 133.033 90.1476C133.084 90.0964 133.146 90.0349 133.197 89.9837C133.094 89.7687 132.992 89.5639 132.9 89.3488C132.429 88.3043 131.876 87.2904 131.517 86.2152C130.371 82.7334 128.63 79.6306 126.09 76.968C124.605 75.4012 122.997 74.0188 121.093 72.9026ZM66.6542 49.6362C66.7156 49.5952 66.7668 49.544 66.8283 49.503C66.7259 49.3392 66.6337 49.1753 66.5313 49.0012C64.3706 45.202 62.8038 41.1673 61.9948 36.8663C61.2062 32.7086 60.0696 28.6841 58.3389 24.8234C58.0215 24.1168 57.6835 23.4103 57.3149 22.7241C56.9667 22.0687 56.5571 21.4338 56.1782 20.7887C56.2191 21.1266 56.3318 21.4236 56.4751 21.7001C58.1853 25.1307 59.281 28.7455 59.9467 32.514C60.3972 35.0537 60.8478 37.5933 61.3496 40.1227C61.5237 41.0239 61.7387 41.9558 62.1586 42.7545C62.8857 44.1575 63.7459 45.499 64.6061 46.8303C65.241 47.8031 65.9681 48.7043 66.6542 49.6362ZM109.347 79.477C108.722 78.7499 108.149 78.0638 107.565 77.3981C105.711 75.3193 104.012 73.1381 102.742 70.6292C101.492 68.151 99.8334 65.9493 97.6214 64.2289C97.3654 64.0343 97.0992 63.8602 96.9968 63.7783C97.6112 64.8228 98.2973 65.9697 98.9629 67.1269C100.427 69.6563 101.892 72.196 103.336 74.7458C104.677 77.1216 106.674 78.6577 109.347 79.477ZM92.2145 61.7199C92.5319 62.3753 92.8596 63.0205 93.1668 63.6861C95.1637 68.0793 97.6726 72.1038 101.359 75.2988C101.728 75.6163 102.199 75.8109 102.752 76.1488C102.65 75.8928 102.639 75.8211 102.598 75.7597C100.919 73.0766 99.219 70.4039 97.5498 67.7004C96.1263 65.4065 94.4571 63.3379 92.2145 61.7199ZM83.1516 68.9292C82.8546 68.8985 82.6908 68.8678 82.527 68.8678C79.3627 69.0214 76.1983 69.1238 73.0443 69.3491C70.392 69.5334 67.7704 69.5846 65.2922 68.4275C64.3706 67.9974 63.5001 67.4853 62.4249 66.9221C63.2646 67.8745 63.9814 68.6937 64.7085 69.5027C64.7904 69.5949 64.8928 69.6666 65.0055 69.7075C66.8283 70.5165 68.692 71.1822 70.7299 70.9876C72.5425 70.8135 74.3653 70.5882 76.1574 70.2912C78.4512 69.9021 80.7349 69.4105 83.1516 68.9292ZM114.703 98.9544C114.723 99.0261 114.754 99.0977 114.774 99.1694C121.246 97.9098 127.636 96.3533 133.955 94.0594C133.668 94.0082 133.484 93.9775 133.31 93.9468C131.456 93.6191 129.654 93.916 127.903 94.4588C124.81 95.4112 121.738 96.4557 118.666 97.49C117.334 97.9508 116.024 98.4731 114.703 98.9544ZM80.3969 82.7642C81.5541 83.4605 82.527 84.5153 84.0938 84.5255C86.3671 84.5358 88.5484 84.1261 90.6374 83.2967C94.2421 81.8528 97.8774 80.5317 101.707 79.8456C102.527 79.7022 103.346 79.5998 104.165 79.477C103.756 79.2619 103.356 79.1595 102.957 79.1288C99.9358 78.9444 97.2118 80.0811 94.5083 81.1564C91.2723 82.4365 87.9749 83.2864 84.4829 83.1533C83.1004 83.0919 81.7487 82.887 80.3969 82.7642ZM61.9333 29.4112C62.6706 32.7905 63.326 36.0982 64.1145 39.3752C65.0464 43.2358 66.9512 47.7724 67.9343 48.7452C67.9138 48.6223 67.924 48.5199 67.8933 48.438C66.7054 45.2225 65.9886 41.9046 65.3434 38.5457C65.0464 36.9789 64.6983 35.4019 64.1862 33.8965C63.664 32.34 63.1212 30.7629 61.9333 29.4112ZM127.083 87.6284C127.022 87.5669 126.971 87.485 126.899 87.4338C122.045 84.1671 118.195 79.9583 115.071 75.0326C114.334 73.8652 113.412 72.8002 112.573 71.6942C112.562 71.6839 112.511 71.7044 112.409 71.7249C114.6 75.3705 116.577 79.0981 119.126 82.4877C121.164 85.2116 123.97 86.6043 127.083 87.6284ZM140.15 95.5648C139.341 95.0323 138.481 94.6841 137.529 94.8275C136.187 95.0425 134.825 95.2268 133.514 95.5648C129.582 96.5786 125.67 97.6743 121.738 98.7086C120.744 98.9646 119.731 99.1182 118.717 99.323C121.809 99.3333 124.851 98.9646 127.831 98.2068C131.907 97.193 135.859 95.616 140.15 95.5648ZM98.4509 91.1306C100.315 92.0932 102.291 92.0113 104.237 91.6222C106.5 91.1716 108.712 90.424 110.975 89.9837C113.74 89.441 116.546 89.0825 119.331 88.6422C119.495 88.6115 119.649 88.55 119.813 88.4988C119.813 88.4271 119.813 88.3555 119.813 88.2838C119.669 88.2735 119.526 88.2531 119.382 88.2633C117.764 88.3657 116.126 88.3452 114.529 88.6115C112.276 88.9801 110.064 89.6355 107.811 90.0349C104.718 90.5879 101.625 91.1511 98.4509 91.1306ZM103.684 93.0046C104.677 93.2811 105.568 93.8956 106.725 93.4347C107.893 92.9739 109.152 92.7384 110.361 92.3697C112.777 91.6427 115.184 90.9053 117.59 90.168C112.767 90.2295 108.374 92.298 103.684 93.0046ZM56.5366 41.4438C58.0931 44.9767 60.6328 47.6495 63.8585 49.841C62.3122 46.1749 59.2298 43.9732 56.5366 41.4438ZM89.5929 60.6856C89.5315 60.7266 89.47 60.7573 89.4086 60.7983C89.6031 61.2386 89.7977 61.679 89.982 62.1193C91.129 64.8535 92.3271 67.5775 93.9246 70.0864C94.6517 71.2231 95.6041 72.0321 96.8739 72.5032C93.6788 69.0419 92.0813 64.577 89.5929 60.6856ZM136.832 92.0728C135.286 89.4614 133.811 86.9525 132.337 84.4538C132.275 84.4948 132.214 84.5358 132.142 84.5767C133.156 87.3621 134.016 90.2499 136.832 92.0728ZM69.9311 50.353C69.8595 48.479 67.5656 40.6757 66.7361 39.7131C67.668 43.3792 68.2005 46.9736 69.9311 50.353ZM59.2503 42.1299C58.1853 39.9691 57.1305 37.8186 56.0655 35.6579C56.2703 38.2282 57.0486 40.5221 59.2503 42.1299Z" fill="white"/>
<path d="M36.8133 89.7072C34.4068 85.2833 31.0787 82.2112 25.7024 82.16C25.1085 82.1497 24.5043 82.2828 24.1561 81.607C23.8899 81.0847 23.9615 80.6034 24.3916 80.2757C29.4095 76.4663 28.5186 71.1002 28.1909 65.8776C28.1704 65.5806 28.027 65.2836 28.0475 64.9969C28.0884 64.4234 28.0475 63.6656 28.7745 63.5632C29.4299 63.4813 29.7679 64.0548 29.9625 64.659C30.3823 65.98 30.6998 67.342 31.2732 68.6016C32.9322 72.2779 35.9941 73.7525 39.865 73.7423C40.6638 73.7423 41.6469 73.476 42.0667 74.1929C42.5173 74.9609 41.6366 75.6368 41.227 76.2512C38.6259 80.1733 37.8374 84.4129 38.7386 89.0211C38.9229 89.9632 39.9879 91.3252 38.4723 91.7758C37.2127 92.1547 37.2127 90.5674 36.8133 89.7072ZM36.1067 84.8327C36.5471 82.8256 36.6393 80.9823 37.3663 79.4565C38.4928 77.0807 39.1379 75.5344 35.5333 74.9916C33.8026 74.7356 32.2563 73.3122 30.6281 72.4213C29.8396 74.3055 29.9215 76.4458 28.8258 78.2481C27.9553 79.6818 28.4776 80.4088 30.0341 80.9106C32.2154 81.5967 34.0586 82.9382 36.1067 84.8327Z" fill="white"/>
<path d="M127.462 42.1094C127.298 37.0813 125.701 32.8417 120.918 30.384C120.386 30.1075 119.792 29.9539 119.782 29.1859C119.771 28.6022 120.058 28.2028 120.59 28.1106C126.786 26.9534 128.394 21.7615 130.442 16.9485C130.555 16.672 130.565 16.3443 130.708 16.0985C130.995 15.5967 131.302 14.9004 131.998 15.1462C132.623 15.3612 132.664 16.0268 132.562 16.6618C132.347 18.0237 132.019 19.396 131.957 20.7682C131.783 24.7927 133.862 27.486 137.334 29.2166C138.051 29.575 139.044 29.7798 139.095 30.6093C139.146 31.49 138.061 31.705 137.426 32.0737C133.34 34.4188 130.729 37.8493 129.469 42.3654C129.213 43.287 129.551 44.987 127.994 44.7105C126.714 44.4749 127.431 43.0515 127.462 42.1094ZM129.008 37.4295C130.309 35.832 131.21 34.2344 132.541 33.1899C134.61 31.5719 135.88 30.4762 132.91 28.3769C131.486 27.3733 130.739 25.4071 129.674 23.8711C128.128 25.2023 127.237 27.148 125.455 28.2745C124.031 29.1654 124.175 30.0461 125.342 31.193C126.991 32.7905 128.035 34.8182 129.008 37.4295Z" fill="white"/>
</svg>
