<svg width="375" height="32" viewBox="0 0 375 32" fill="none" xmlns="http://www.w3.org/2000/svg">
<path opacity="0.1" d="M72 15.5C72 14.6716 72.6716 14 73.5 14H237.5C238.328 14 239 14.6716 239 15.5C239 16.3284 238.328 17 237.5 17H73.5C72.6716 17 72 16.3284 72 15.5Z" fill="#2582E8"/>
<path d="M72 15.5C72 14.6716 72.6716 14 73.5 14H94.5C95.3284 14 96 14.6716 96 15.5C96 16.3284 95.3284 17 94.5 17H73.5C72.6716 17 72 16.3284 72 15.5Z" fill="#2582E8"/>
<g opacity="0.2">
<circle cx="339" cy="16" r="10" stroke="#2582E8" stroke-width="1.5"/>
<path d="M336.556 17.74H341.353V17.065H340.066H339.913H337.816L339.598 14.401V17.317V17.416V19H340.363V12.7H340.048L336.556 17.74Z" fill="#2582E8"/>
</g>
<g opacity="0.2">
<circle cx="307" cy="16" r="10" stroke="#2582E8" stroke-width="1.5"/>
<path d="M306.82 15.895C307.126 15.895 307.402 15.853 307.648 15.769C307.9 15.685 308.116 15.571 308.296 15.427C308.482 15.277 308.623 15.106 308.719 14.914C308.821 14.716 308.872 14.506 308.872 14.284C308.872 13.984 308.8 13.708 308.656 13.456C308.518 13.204 308.317 13 308.053 12.844C307.795 12.688 307.486 12.61 307.126 12.61C306.784 12.61 306.478 12.682 306.208 12.826C305.944 12.964 305.734 13.156 305.578 13.402C305.428 13.648 305.353 13.936 305.353 14.266H306.082C306.082 14.08 306.127 13.915 306.217 13.771C306.313 13.627 306.439 13.513 306.595 13.429C306.757 13.345 306.937 13.303 307.135 13.303C307.345 13.303 307.519 13.345 307.657 13.429C307.801 13.513 307.909 13.633 307.981 13.789C308.053 13.939 308.089 14.113 308.089 14.311C308.089 14.461 308.059 14.602 307.999 14.734C307.945 14.866 307.864 14.983 307.756 15.085C307.648 15.181 307.516 15.259 307.36 15.319C307.204 15.373 307.024 15.4 306.82 15.4V15.895ZM307.09 19.09C307.468 19.09 307.804 19.018 308.098 18.874C308.392 18.73 308.623 18.526 308.791 18.262C308.965 17.998 309.052 17.689 309.052 17.335C309.052 17.023 308.992 16.756 308.872 16.534C308.758 16.312 308.596 16.132 308.386 15.994C308.182 15.85 307.945 15.745 307.675 15.679C307.411 15.613 307.126 15.58 306.82 15.58V16.075C307.024 16.075 307.213 16.099 307.387 16.147C307.561 16.195 307.714 16.27 307.846 16.372C307.978 16.468 308.08 16.591 308.152 16.741C308.23 16.885 308.269 17.053 308.269 17.245C308.269 17.473 308.221 17.671 308.125 17.839C308.029 18.007 307.891 18.139 307.711 18.235C307.537 18.325 307.33 18.37 307.09 18.37C306.85 18.37 306.637 18.325 306.451 18.235C306.265 18.145 306.118 18.022 306.01 17.866C305.908 17.71 305.857 17.533 305.857 17.335H305.083C305.083 17.581 305.131 17.812 305.227 18.028C305.323 18.238 305.458 18.424 305.632 18.586C305.806 18.742 306.016 18.865 306.262 18.955C306.508 19.045 306.784 19.09 307.09 19.09Z" fill="#2582E8"/>
</g>
<g opacity="0.2">
<circle cx="275" cy="16" r="10" stroke="#2582E8" stroke-width="1.5"/>
<path d="M272.618 19H277.064V18.28H274.193L276.2 16.237C276.446 15.985 276.647 15.7 276.803 15.382C276.959 15.064 277.037 14.743 277.037 14.419C277.037 14.227 276.998 14.026 276.92 13.816C276.842 13.606 276.722 13.411 276.56 13.231C276.398 13.045 276.191 12.895 275.939 12.781C275.687 12.661 275.387 12.601 275.039 12.601C274.607 12.601 274.235 12.697 273.923 12.889C273.617 13.075 273.383 13.339 273.221 13.681C273.059 14.017 272.978 14.41 272.978 14.86H273.743C273.743 14.542 273.794 14.269 273.896 14.041C273.998 13.807 274.145 13.63 274.337 13.51C274.535 13.384 274.769 13.321 275.039 13.321C275.231 13.321 275.402 13.354 275.552 13.42C275.702 13.486 275.828 13.573 275.93 13.681C276.038 13.789 276.119 13.909 276.173 14.041C276.227 14.173 276.254 14.308 276.254 14.446C276.254 14.614 276.227 14.776 276.173 14.932C276.125 15.082 276.05 15.232 275.948 15.382C275.852 15.526 275.735 15.673 275.597 15.823L272.618 19Z" fill="#2582E8"/>
</g>
<circle cx="36" cy="16" r="10" fill="#2582E8"/>
<path d="M34.5437 14.176L36.0017 13.771V19H37.0547V12.601L34.5437 13.168V14.176Z" fill="#F3F6F8"/>
</svg>
