<svg width="375" height="32" viewBox="0 0 375 32" fill="none" xmlns="http://www.w3.org/2000/svg">
<path opacity="0.1" d="M136 15.5C136 14.6716 136.672 14 137.5 14H301.5C302.328 14 303 14.6716 303 15.5C303 16.3284 302.328 17 301.5 17H137.5C136.672 17 136 16.3284 136 15.5Z" fill="#2582E8"/>
<path d="M136 15.5C136 14.6716 136.672 14 137.5 14H158.5C159.328 14 160 14.6716 160 15.5C160 16.3284 159.328 17 158.5 17H137.5C136.672 17 136 16.3284 136 15.5Z" fill="#2582E8"/>
<g opacity="0.2">
<circle cx="339" cy="16" r="10" stroke="#2582E8" stroke-width="1.5"/>
<path d="M336.556 17.74H341.353V17.065H340.066H339.913H337.816L339.598 14.401V17.317V17.416V19H340.363V12.7H340.048L336.556 17.74Z" fill="#2582E8"/>
</g>
<circle cx="100" cy="16" r="10" fill="#2582E8"/>
<path d="M99.7652 15.913C100.209 15.913 100.602 15.847 100.944 15.715C101.292 15.583 101.565 15.394 101.763 15.148C101.961 14.902 102.06 14.62 102.06 14.302C102.06 13.99 101.982 13.708 101.826 13.456C101.676 13.198 101.457 12.991 101.169 12.835C100.881 12.679 100.533 12.601 100.125 12.601C99.7412 12.601 99.4022 12.679 99.1082 12.835C98.8142 12.985 98.5832 13.192 98.4152 13.456C98.2532 13.72 98.1722 14.026 98.1722 14.374H99.1712C99.1712 14.122 99.2612 13.915 99.4412 13.753C99.6272 13.585 99.8582 13.501 100.134 13.501C100.32 13.501 100.476 13.537 100.602 13.609C100.728 13.681 100.824 13.783 100.89 13.915C100.956 14.041 100.989 14.188 100.989 14.356C100.989 14.488 100.959 14.617 100.899 14.743C100.845 14.863 100.764 14.968 100.656 15.058C100.554 15.148 100.428 15.22 100.278 15.274C100.128 15.322 99.9572 15.346 99.7652 15.346V15.913ZM100.08 19.108C100.512 19.108 100.89 19.033 101.214 18.883C101.538 18.733 101.79 18.523 101.97 18.253C102.15 17.983 102.24 17.671 102.24 17.317C102.24 16.999 102.177 16.729 102.051 16.507C101.925 16.279 101.748 16.096 101.52 15.958C101.298 15.814 101.037 15.709 100.737 15.643C100.437 15.571 100.113 15.535 99.7652 15.535V16.138C99.9752 16.138 100.167 16.162 100.341 16.21C100.515 16.258 100.662 16.327 100.782 16.417C100.908 16.507 101.004 16.618 101.07 16.75C101.136 16.882 101.169 17.032 101.169 17.2C101.169 17.41 101.124 17.59 101.034 17.74C100.944 17.884 100.818 17.995 100.656 18.073C100.5 18.151 100.314 18.19 100.098 18.19C99.8882 18.19 99.6962 18.151 99.5222 18.073C99.3482 17.989 99.2102 17.875 99.1082 17.731C99.0122 17.581 98.9642 17.404 98.9642 17.2H97.9022C97.9022 17.458 97.9532 17.704 98.0552 17.938C98.1572 18.166 98.3012 18.37 98.4872 18.55C98.6732 18.724 98.9012 18.862 99.1712 18.964C99.4412 19.06 99.7442 19.108 100.08 19.108Z" fill="white"/>
<circle cx="68" cy="16" r="10" fill="#2582E8"/>
<path d="M65.4642 19H70.2702V18.01H67.5342L69.3252 16.255C69.5832 16.015 69.7902 15.742 69.9462 15.436C70.1082 15.13 70.1892 14.812 70.1892 14.482C70.1892 14.272 70.1442 14.056 70.0542 13.834C69.9702 13.612 69.8382 13.408 69.6582 13.222C69.4842 13.036 69.2622 12.886 68.9922 12.772C68.7222 12.652 68.4042 12.592 68.0382 12.592C67.5582 12.592 67.1502 12.694 66.8142 12.898C66.4842 13.096 66.2322 13.372 66.0582 13.726C65.8902 14.074 65.8062 14.473 65.8062 14.923H66.8592C66.8592 14.647 66.9042 14.404 66.9942 14.194C67.0902 13.984 67.2252 13.825 67.3992 13.717C67.5732 13.603 67.7802 13.546 68.0202 13.546C68.1942 13.546 68.3472 13.576 68.4792 13.636C68.6112 13.69 68.7222 13.765 68.8122 13.861C68.9082 13.957 68.9772 14.065 69.0192 14.185C69.0672 14.299 69.0912 14.416 69.0912 14.536C69.0912 14.704 69.0642 14.863 69.0102 15.013C68.9562 15.163 68.8752 15.313 68.7672 15.463C68.6592 15.613 68.5302 15.769 68.3802 15.931L65.4642 19Z" fill="white"/>
<circle cx="36" cy="16" r="10" fill="#2582E8"/>
<path d="M34.5437 14.176L36.0017 13.771V19H37.0547V12.601L34.5437 13.168V14.176Z" fill="white"/>
</svg>
