<svg width="375" height="32" viewBox="0 0 375 32" fill="none" xmlns="http://www.w3.org/2000/svg">
<path opacity="0.1" d="M104 15.5C104 14.6716 104.672 14 105.5 14H269.5C270.328 14 271 14.6716 271 15.5C271 16.3284 270.328 17 269.5 17H105.5C104.672 17 104 16.3284 104 15.5Z" fill="#2582E8"/>
<path d="M104 15.5C104 14.6716 104.672 14 105.5 14H126.5C127.328 14 128 14.6716 128 15.5C128 16.3284 127.328 17 126.5 17H105.5C104.672 17 104 16.3284 104 15.5Z" fill="#2582E8"/>
<g opacity="0.2">
<circle cx="339" cy="16" r="10" stroke="#2582E8" stroke-width="1.5"/>
<path d="M336.556 17.74H341.353V17.065H340.066H339.913H337.816L339.598 14.401V17.317V17.416V19H340.363V12.7H340.048L336.556 17.74Z" fill="#2582E8"/>
</g>
<g opacity="0.2">
<circle cx="307" cy="16" r="10" stroke="#2582E8" stroke-width="1.5"/>
<path d="M306.82 15.895C307.126 15.895 307.402 15.853 307.648 15.769C307.9 15.685 308.116 15.571 308.296 15.427C308.482 15.277 308.623 15.106 308.719 14.914C308.821 14.716 308.872 14.506 308.872 14.284C308.872 13.984 308.8 13.708 308.656 13.456C308.518 13.204 308.317 13 308.053 12.844C307.795 12.688 307.486 12.61 307.126 12.61C306.784 12.61 306.478 12.682 306.208 12.826C305.944 12.964 305.734 13.156 305.578 13.402C305.428 13.648 305.353 13.936 305.353 14.266H306.082C306.082 14.08 306.127 13.915 306.217 13.771C306.313 13.627 306.439 13.513 306.595 13.429C306.757 13.345 306.937 13.303 307.135 13.303C307.345 13.303 307.519 13.345 307.657 13.429C307.801 13.513 307.909 13.633 307.981 13.789C308.053 13.939 308.089 14.113 308.089 14.311C308.089 14.461 308.059 14.602 307.999 14.734C307.945 14.866 307.864 14.983 307.756 15.085C307.648 15.181 307.516 15.259 307.36 15.319C307.204 15.373 307.024 15.4 306.82 15.4V15.895ZM307.09 19.09C307.468 19.09 307.804 19.018 308.098 18.874C308.392 18.73 308.623 18.526 308.791 18.262C308.965 17.998 309.052 17.689 309.052 17.335C309.052 17.023 308.992 16.756 308.872 16.534C308.758 16.312 308.596 16.132 308.386 15.994C308.182 15.85 307.945 15.745 307.675 15.679C307.411 15.613 307.126 15.58 306.82 15.58V16.075C307.024 16.075 307.213 16.099 307.387 16.147C307.561 16.195 307.714 16.27 307.846 16.372C307.978 16.468 308.08 16.591 308.152 16.741C308.23 16.885 308.269 17.053 308.269 17.245C308.269 17.473 308.221 17.671 308.125 17.839C308.029 18.007 307.891 18.139 307.711 18.235C307.537 18.325 307.33 18.37 307.09 18.37C306.85 18.37 306.637 18.325 306.451 18.235C306.265 18.145 306.118 18.022 306.01 17.866C305.908 17.71 305.857 17.533 305.857 17.335H305.083C305.083 17.581 305.131 17.812 305.227 18.028C305.323 18.238 305.458 18.424 305.632 18.586C305.806 18.742 306.016 18.865 306.262 18.955C306.508 19.045 306.784 19.09 307.09 19.09Z" fill="#2582E8"/>
</g>
<circle cx="68" cy="16" r="10" fill="#2582E8"/>
<path d="M65.4642 19H70.2702V18.01H67.5342L69.3252 16.255C69.5832 16.015 69.7902 15.742 69.9462 15.436C70.1082 15.13 70.1892 14.812 70.1892 14.482C70.1892 14.272 70.1442 14.056 70.0542 13.834C69.9702 13.612 69.8382 13.408 69.6582 13.222C69.4842 13.036 69.2622 12.886 68.9922 12.772C68.7222 12.652 68.4042 12.592 68.0382 12.592C67.5582 12.592 67.1502 12.694 66.8142 12.898C66.4842 13.096 66.2322 13.372 66.0582 13.726C65.8902 14.074 65.8062 14.473 65.8062 14.923H66.8592C66.8592 14.647 66.9042 14.404 66.9942 14.194C67.0902 13.984 67.2252 13.825 67.3992 13.717C67.5732 13.603 67.7802 13.546 68.0202 13.546C68.1942 13.546 68.3472 13.576 68.4792 13.636C68.6112 13.69 68.7222 13.765 68.8122 13.861C68.9082 13.957 68.9772 14.065 69.0192 14.185C69.0672 14.299 69.0912 14.416 69.0912 14.536C69.0912 14.704 69.0642 14.863 69.0102 15.013C68.9562 15.163 68.8752 15.313 68.7672 15.463C68.6592 15.613 68.5302 15.769 68.3802 15.931L65.4642 19Z" fill="white"/>
<circle cx="36" cy="16" r="10" fill="#2582E8"/>
<path d="M34.5437 14.176L36.0017 13.771V19H37.0547V12.601L34.5437 13.168V14.176Z" fill="white"/>
</svg>
